<svg width="12" height="12" viewBox="0 0 76 76" fill="none" xmlns="http://www.w3.org/2000/svg">
<path d="M16.9234 30.755C16.1256 33.087 15.7201 35.5352 15.7234 38C15.7234 40.7525 16.2184 43.3887 17.1334 45.8225C18.2738 48.8644 20.0652 51.6203 22.3821 53.8975C24.699 56.1747 27.4855 57.9181 30.5466 59.0058C33.6078 60.0934 36.8696 60.499 40.1039 60.1942C43.3382 59.8894 46.4668 58.8816 49.2709 57.2412H49.2747C53.6923 54.6513 57.0866 50.6229 58.8897 45.83H38.8384V30.995H74.8571C75.7887 35.9018 75.7326 40.9451 74.6921 45.83C72.8892 54.2746 68.2266 61.838 61.4921 67.2425C54.8404 72.5988 46.5537 75.5132 38.0134 75.5C31.5745 75.5035 25.2433 73.8488 19.6296 70.6952C14.0158 67.5416 9.3089 62.9954 5.96223 57.4946C2.61555 51.9938 0.741939 45.7238 0.521902 39.2887C0.301865 32.8536 1.74282 26.4703 4.70594 20.7537C7.86708 14.6484 12.6461 9.52985 18.5205 5.95775C24.3948 2.38566 31.1383 0.497589 38.0134 0.500002C47.1109 0.500002 55.4547 3.74 61.9496 9.1325L49.7997 19.0775C46.9535 17.3061 43.7446 16.1991 40.4116 15.8388C37.0787 15.4784 33.7074 15.874 30.5483 16.996C27.3893 18.1181 24.5238 19.9378 22.165 22.3199C19.8061 24.702 18.0145 27.5851 16.9234 30.755Z" fill="#ffffff"/>
</svg>
