<svg width="76" height="76" viewBox="0 0 76 76" fill="none" xmlns="http://www.w3.org/2000/svg">
<path d="M38 0.5C17.4029 0.5 0.5 17.4029 0.5 38C0.5 44.7978 2.33277 51.4153 5.80834 57.2049L0.5 75.5L18.7951 70.1917C24.5847 73.6672 31.2022 75.5 38 75.5C58.5971 75.5 75.5 58.5971 75.5 38C75.5 17.4029 58.5971 0.5 38 0.5ZM61.4455 53.8449L59.7009 55.5896C57.2324 58.0581 51.5555 57.8624 47.9077 57.158C35.7787 54.8154 21.6378 41.1088 18.9107 29.239C17.5603 23.359 18.3059 18.2469 20.2559 16.2963L22.0006 14.5516C22.9636 13.5892 24.528 13.5903 25.4899 14.5516L32.4696 21.532C32.9354 21.9977 33.1906 22.6151 33.1906 23.276C33.1906 23.9369 32.9354 24.5549 32.4696 25.019L30.7256 26.7653C28.803 28.6925 28.803 31.8231 30.7256 33.7457L42.2515 45.1199C44.1798 47.0483 47.3006 47.0506 49.2318 45.1199L50.9765 43.3759C51.8771 42.4701 53.5594 42.4672 54.4675 43.3759L61.4455 50.3539C62.3931 51.2975 62.4291 52.8607 61.4455 53.8449Z" fill="#282B30"/>
</svg>
