<svg width="263" height="160" viewBox="0 0 263 160" fill="none" xmlns="http://www.w3.org/2000/svg">
<path d="M60.7991 0.706965H0V11.3822H24.0369V50.1946H36.7623V11.3822H60.7991V0.706965Z" fill="#282B30"/>
<path d="M61.9286 25.3801C61.9286 41.8524 71.2606 50.9016 93.0351 50.9016C112.76 50.9016 122.657 43.3371 123.93 28.9856H110.992C109.79 37.0451 103.569 40.2264 93.0351 40.2264C80.1684 40.2264 74.654 35.5604 74.654 25.3801C74.654 15.2705 80.0977 10.6752 93.0351 10.6752C103.64 10.6752 109.79 13.7858 110.992 21.7746H123.93C122.657 7.49385 112.76 0 93.0351 0C71.2606 0 61.9286 8.97848 61.9286 25.3801Z" fill="#282B30"/>
<path fill-rule="evenodd" clip-rule="evenodd" d="M121.173 75H5.81567V66.0158H121.173V75Z" fill="#282B30"/>
<path d="M28.4105 104.9V111.75H19.1105V140H10.5605V111.75H1.26055V104.9H28.4105ZM31.0016 126C31.0016 123.133 31.5349 120.617 32.6016 118.45C33.7016 116.283 35.1849 114.617 37.0516 113.45C38.9182 112.283 41.0016 111.7 43.3016 111.7C45.2682 111.7 46.9849 112.1 48.4516 112.9C49.9516 113.7 51.1016 114.75 51.9016 116.05V112.1H60.4516V140H51.9016V136.05C51.0682 137.35 49.9016 138.4 48.4016 139.2C46.9349 140 45.2182 140.4 43.2516 140.4C40.9849 140.4 38.9182 139.817 37.0516 138.65C35.1849 137.45 33.7016 135.767 32.6016 133.6C31.5349 131.4 31.0016 128.867 31.0016 126ZM51.9016 126.05C51.9016 123.917 51.3016 122.233 50.1016 121C48.9349 119.767 47.5016 119.15 45.8016 119.15C44.1016 119.15 42.6516 119.767 41.4516 121C40.2849 122.2 39.7016 123.867 39.7016 126C39.7016 128.133 40.2849 129.833 41.4516 131.1C42.6516 132.333 44.1016 132.95 45.8016 132.95C47.5016 132.95 48.9349 132.333 50.1016 131.1C51.3016 129.867 51.9016 128.183 51.9016 126.05ZM77.9871 140.4C75.5538 140.4 73.3871 139.983 71.4871 139.15C69.5871 138.317 68.0871 137.183 66.9871 135.75C65.8871 134.283 65.2704 132.65 65.1371 130.85H73.5871C73.6871 131.817 74.1371 132.6 74.9371 133.2C75.7371 133.8 76.7204 134.1 77.8871 134.1C78.9538 134.1 79.7704 133.9 80.3371 133.5C80.9371 133.067 81.2371 132.517 81.2371 131.85C81.2371 131.05 80.8204 130.467 79.9871 130.1C79.1538 129.7 77.8038 129.267 75.9371 128.8C73.9371 128.333 72.2704 127.85 70.9371 127.35C69.6038 126.817 68.4538 126 67.4871 124.9C66.5204 123.767 66.0371 122.25 66.0371 120.35C66.0371 118.75 66.4704 117.3 67.3371 116C68.2371 114.667 69.5371 113.617 71.2371 112.85C72.9704 112.083 75.0204 111.7 77.3871 111.7C80.8871 111.7 83.6371 112.567 85.6371 114.3C87.6704 116.033 88.8371 118.333 89.1371 121.2H81.2371C81.1038 120.233 80.6704 119.467 79.9371 118.9C79.2371 118.333 78.3038 118.05 77.1371 118.05C76.1371 118.05 75.3704 118.25 74.8371 118.65C74.3038 119.017 74.0371 119.533 74.0371 120.2C74.0371 121 74.4538 121.6 75.2871 122C76.1538 122.4 77.4871 122.8 79.2871 123.2C81.3538 123.733 83.0371 124.267 84.3371 124.8C85.6371 125.3 86.7704 126.133 87.7371 127.3C88.7371 128.433 89.2538 129.967 89.2871 131.9C89.2871 133.533 88.8204 135 87.8871 136.3C86.9871 137.567 85.6704 138.567 83.9371 139.3C82.2371 140.033 80.2538 140.4 77.9871 140.4ZM110.068 132.75V140H105.718C102.618 140 100.201 139.25 98.468 137.75C96.7346 136.217 95.868 133.733 95.868 130.3V119.2H92.468V112.1H95.868V105.3H104.418V112.1H110.018V119.2H104.418V130.4C104.418 131.233 104.618 131.833 105.018 132.2C105.418 132.567 106.085 132.75 107.018 132.75H110.068ZM141.13 125.6C141.13 126.4 141.08 127.233 140.98 128.1H121.63C121.764 129.833 122.314 131.167 123.28 132.1C124.28 133 125.497 133.45 126.93 133.45C129.064 133.45 130.547 132.55 131.38 130.75H140.48C140.014 132.583 139.164 134.233 137.93 135.7C136.73 137.167 135.214 138.317 133.38 139.15C131.547 139.983 129.497 140.4 127.23 140.4C124.497 140.4 122.064 139.817 119.93 138.65C117.797 137.483 116.13 135.817 114.93 133.65C113.73 131.483 113.13 128.95 113.13 126.05C113.13 123.15 113.714 120.617 114.88 118.45C116.08 116.283 117.747 114.617 119.88 113.45C122.014 112.283 124.464 111.7 127.23 111.7C129.93 111.7 132.33 112.267 134.43 113.4C136.53 114.533 138.164 116.15 139.33 118.25C140.53 120.35 141.13 122.8 141.13 125.6ZM132.38 123.35C132.38 121.883 131.88 120.717 130.88 119.85C129.88 118.983 128.63 118.55 127.13 118.55C125.697 118.55 124.48 118.967 123.48 119.8C122.514 120.633 121.914 121.817 121.68 123.35H132.38ZM144.191 122.4C144.191 118.933 144.941 115.85 146.441 113.15C147.941 110.417 150.024 108.3 152.691 106.8C155.391 105.267 158.441 104.5 161.841 104.5C166.008 104.5 169.574 105.6 172.541 107.8C175.508 110 177.491 113 178.491 116.8H169.091C168.391 115.333 167.391 114.217 166.091 113.45C164.824 112.683 163.374 112.3 161.741 112.3C159.108 112.3 156.974 113.217 155.341 115.05C153.708 116.883 152.891 119.333 152.891 122.4C152.891 125.467 153.708 127.917 155.341 129.75C156.974 131.583 159.108 132.5 161.741 132.5C163.374 132.5 164.824 132.117 166.091 131.35C167.391 130.583 168.391 129.467 169.091 128H178.491C177.491 131.8 175.508 134.8 172.541 137C169.574 139.167 166.008 140.25 161.841 140.25C158.441 140.25 155.391 139.5 152.691 138C150.024 136.467 147.941 134.35 146.441 131.65C144.941 128.95 144.191 125.867 144.191 122.4ZM192.277 103V140H183.727V103H192.277ZM196.773 126C196.773 123.133 197.306 120.617 198.373 118.45C199.473 116.283 200.956 114.617 202.823 113.45C204.69 112.283 206.773 111.7 209.073 111.7C211.04 111.7 212.756 112.1 214.223 112.9C215.723 113.7 216.873 114.75 217.673 116.05V112.1H226.223V140H217.673V136.05C216.84 137.35 215.673 138.4 214.173 139.2C212.706 140 210.99 140.4 209.023 140.4C206.756 140.4 204.69 139.817 202.823 138.65C200.956 137.45 199.473 135.767 198.373 133.6C197.306 131.4 196.773 128.867 196.773 126ZM217.673 126.05C217.673 123.917 217.073 122.233 215.873 121C214.706 119.767 213.273 119.15 211.573 119.15C209.873 119.15 208.423 119.767 207.223 121C206.056 122.2 205.473 123.867 205.473 126C205.473 128.133 206.056 129.833 207.223 131.1C208.423 132.333 209.873 132.95 211.573 132.95C213.273 132.95 214.706 132.333 215.873 131.1C217.073 129.867 217.673 128.183 217.673 126.05ZM249.409 111.8C252.675 111.8 255.275 112.867 257.209 115C259.175 117.1 260.159 120 260.159 123.7V140H251.659V124.85C251.659 122.983 251.175 121.533 250.209 120.5C249.242 119.467 247.942 118.95 246.309 118.95C244.675 118.95 243.375 119.467 242.409 120.5C241.442 121.533 240.959 122.983 240.959 124.85V140H232.409V112.1H240.959V115.8C241.825 114.567 242.992 113.6 244.459 112.9C245.925 112.167 247.575 111.8 249.409 111.8Z" fill="#282B30"/>
</svg>
