<svg width="90" height="94" viewBox="0 0 496 494" fill="none" xmlns="http://www.w3.org/2000/svg">
<path fill-rule="evenodd" clip-rule="evenodd" d="M249.697 370.874C221.886 371.607 214.915 413.026 190.281 425.962C138.078 453.376 81.7556 513.11 29.0565 486.713C-18.1557 463.065 7.63877 387.169 6.91995 334.372C6.34611 292.223 -5.51553 240.862 25.1039 211.867C56.3468 182.283 119.892 229.079 150.197 198.535C201.968 146.355 162.134 4.4187 235.519 0.317432C303.465 -3.47984 278.019 124.769 296.646 190.192C304.209 216.754 294.365 247.865 312.129 269.01C362.986 329.546 529.719 351.188 488.679 418.804C445.546 489.869 332.799 368.684 249.697 370.874Z" fill="#FE724E"/>
</svg>
