<svg width="605" height="601" viewBox="0 0 605 601" fill="none" xmlns="http://www.w3.org/2000/svg">
<path fill-rule="evenodd" clip-rule="evenodd" d="M328 71.0001C378.908 46.2333 439.746 -24.0277 485 10.0001C536.081 48.4093 486.922 136.028 498 199C503.579 230.711 517.824 259.609 533 288C553.798 326.908 612.17 353.639 604 397C595.985 439.54 527.512 438.445 499 471C472.269 501.521 480.175 556.148 446 578C412.613 599.348 366.703 588.486 328 580C292.962 572.317 268.863 531.329 233 532C156.755 533.426 67.0998 639.773 14.0001 585C-36.038 533.385 73.0269 456.782 94.0001 388C104.339 354.093 96.2743 318.088 106 284C115.412 251.01 128.029 218.337 150 192C171.762 165.914 203.862 152.021 232 133C264.129 111.281 293.129 87.9645 328 71.0001Z" fill="#FE724E"/>
</svg>
