<svg width="512" height="512" viewBox="0 0 512 512" fill="none" xmlns="http://www.w3.org/2000/svg">
<path d="M176 448C193.673 448 208 433.673 208 416C208 398.327 193.673 384 176 384C158.327 384 144 398.327 144 416C144 433.673 158.327 448 176 448Z" fill="#ffffff"/>
<path d="M400 448C417.673 448 432 433.673 432 416C432 398.327 417.673 384 400 384C382.327 384 368 398.327 368 416C368 433.673 382.327 448 400 448Z" fill="#ffffff"/>
<path d="M456.8 120.78C454.552 118.03 451.72 115.816 448.51 114.297C445.3 112.779 441.791 111.994 438.24 112H133.89L127.76 77.22C127.106 73.5153 125.168 70.1594 122.286 67.7417C119.404 65.324 115.762 63.9992 112 64H48C43.7565 64 39.6869 65.6857 36.6863 68.6863C33.6857 71.6869 32 75.7565 32 80C32 84.2435 33.6857 88.3131 36.6863 91.3137C39.6869 94.3143 43.7565 96 48 96H98.58L144.24 354.78C144.894 358.485 146.832 361.841 149.714 364.258C152.596 366.676 156.238 368.001 160 368H416C420.243 368 424.313 366.314 427.314 363.314C430.314 360.313 432 356.243 432 352C432 347.757 430.314 343.687 427.314 340.686C424.313 337.686 420.243 336 416 336H173.42L167.78 304H409.44C414.989 303.993 420.365 302.069 424.658 298.554C428.951 295.039 431.898 290.148 433 284.71L461.8 140.71C462.494 137.225 462.405 133.629 461.541 130.183C460.676 126.736 459.057 123.525 456.8 120.78Z" fill="#ffffff"/>
</svg>
