<svg width="302" height="261" viewBox="0 0 302 261" fill="none" xmlns="http://www.w3.org/2000/svg">
<path d="M300 27C300 27 297.358 21.9598 293 15C293 15 278.893 25.577 279 25C279.107 24.423 300 27 300 27Z" fill="#282B30"/>
<path d="M299 27C291.776 26.0395 280.289 24.8264 279 25C278.663 25.1388 278.116 25.0694 278 25C277.9 24.9326 278.047 25.1108 278 25C277.953 24.8891 277.979 24.1187 278 24C278 23.838 277.617 24.0925 278 24C278.79 23.6875 287.25 17.5411 292 14C292.064 13.9518 291.922 14.0179 292 14C292.078 13.982 291.921 13.9846 292 14C292.078 14.0127 292.934 13.9561 293 14C293.066 14.0439 292.958 13.9328 293 14C297.286 20.7813 299.93 25.9537 300 26C300.049 26.0882 300.002 25.8994 300 26C299.998 26.1005 300.052 26.9135 300 27C299.948 27.0864 300.088 26.9504 300 27C299.912 27.0496 299.101 27.0002 299 27ZM281 24C283.532 24.1388 288.058 24.6923 298 26C297.036 24.2757 294.973 19.7214 292 15C285.798 19.6288 282.824 22.7849 281 24Z" fill="#282B30"/>
<path d="M112 241L105 229L115 220L112 241Z" fill="#282B30"/>
<path d="M113 241C112.898 240.998 112.089 241.05 112 241C111.911 240.95 112.055 241.087 112 241L105 229C104.929 228.879 104.978 228.138 105 228C105.022 227.862 104.896 228.093 105 228L115 219C115.091 218.917 114.878 219.015 115 219C115.122 218.985 115.892 218.942 116 219C116.106 219.059 115.945 218.891 116 219C116.055 219.109 116.015 219.878 116 220L113 240C112.985 240.126 113.086 240.907 113 241C113.123 240.976 112.914 241.093 113 241ZM106 229L112 239L115 221L106 229Z" fill="#282B30"/>
<path d="M117 244L231 260C233.329 260.309 236.028 259.281 238 258C239.972 256.719 241.329 255.259 242 253L301 32C302.195 27.4317 298.818 23.3957 294 23L178 14C175.711 13.8872 173.869 14.6692 172 16C170.131 17.3308 168.649 18.7952 168 21L111 235C110.707 235.99 110.85 236.979 111 238C111.15 239.021 111.436 240.137 112 241C112.564 241.863 113.126 242.456 114 243C114.874 243.544 115.979 243.875 117 244Z" fill="#282B30"/>
<path d="M232 260C231.54 259.997 230.455 260.061 230 260L117 244C115.902 243.865 114.942 243.581 114 243C113.058 242.419 111.616 240.921 111 240C110.388 239.053 110.167 238.116 110 237C109.833 235.884 109.692 235.085 110 234L167 21C167.689 18.6601 169.019 16.4158 171 15C172.981 13.5841 175.569 12.8893 178 13L294 22C295.173 22.07 295.968 22.4368 297 23C298.032 23.5631 299.304 25.0504 300 26C300.64 26.9338 300.822 27.8809 301 29C301.178 30.1191 301.319 30.9129 301 32L242 252C241.361 254.166 239.798 256.639 238 258C236.202 259.361 234.252 259.977 232 260ZM117 242L231 259C233.188 259.293 235.145 258.201 237 257C238.855 255.799 240.366 254.12 241 252L300 32C300.277 31.082 300.147 29.9476 300 29C299.853 28.0523 299.542 26.7904 299 26C298.402 25.1864 296.889 24.4766 296 24C295.111 23.5233 295.007 24.0471 294 24L178 14C175.849 13.8866 173.757 14.7496 172 16C170.243 17.2503 168.603 18.9263 168 21L111 234C110.733 234.921 110.862 236.051 111 237C111.138 237.949 111.482 239.194 112 240C112.526 240.777 113.201 241.51 114 242C114.799 242.49 116.07 241.885 117 242Z" fill="#282B30"/>
<path d="M109 232L223 248C225.328 248.304 228.029 247.281 230 246C231.971 244.719 233.325 243.256 234 241L293 20C294.195 15.4316 290.817 11.3957 286 11L170 2C167.71 1.88871 165.87 2.66959 164 4C162.13 5.33041 160.653 6.79528 160 9L103 223C102.701 223.993 102.852 224.974 103 226C103.148 227.026 103.434 228.133 104 229C104.566 229.867 105.121 230.454 106 231C106.879 231.546 107.973 231.878 109 232Z" fill="#FFC42B"/>
<path d="M225 248C224.541 247.998 223.455 248.062 223 248L110 232C108.903 231.865 107.942 231.581 107 231C106.058 230.419 104.616 228.921 104 228C103.387 227.054 103.167 226.116 103 225C102.833 223.884 102.691 223.085 103 222L160 8.99996C160.69 6.66217 162.019 4.41189 164 2.99996C165.982 1.58802 168.572 0.883627 171 0.999956L287 9.99996C288.183 10.0622 288.957 10.4365 290 11C291.043 11.5634 292.297 13.0434 293 14C293.637 14.9353 293.822 15.8813 294 17C294.178 18.1186 294.316 18.9124 294 20L235 240C234.354 242.169 232.807 244.643 231 246C229.193 247.357 227.257 247.989 225 248ZM170 1.99996C167.968 2.05641 165.613 2.75858 164 3.99996C162.387 5.24133 161.58 7.04559 161 8.99996L105 222C104.733 222.921 103.862 224.051 104 225C104.138 225.949 104.482 227.194 105 228C105.526 228.777 106.201 229.51 107 230C107.799 230.49 109.07 229.885 110 230L224 247C226.182 247.284 228.154 246.2 230 245C231.847 243.8 233.367 242.114 234 240L293 20C293.274 19.0816 293.147 17.9473 293 17C292.853 16.0527 292.539 14.7916 292 14C291.401 13.1848 289.891 12.4767 289 12C288.109 11.5232 288.009 12.0453 287 12L171 1.99996H170Z" fill="#282B30"/>
<path d="M281 34L162 24L117 195L234 211L281 34Z" fill="white"/>
<path d="M229 188C228.887 188.001 229.095 188.062 229 188C228.905 187.938 229.046 188.104 229 188L205 137C204.966 136.928 205.004 137.079 205 137C204.996 136.921 204.973 136.075 205 136C205.027 135.925 204.947 136.059 205 136C205.053 135.941 204.929 136.033 205 136C205.142 135.934 205.853 135.946 206 136C206.147 136.054 205.933 135.858 206 136L230 187C230.034 187.071 229.996 186.922 230 187C230.004 187.078 230.027 187.926 230 188C229.973 188.074 230.053 187.942 230 188C229.947 188.058 230.071 187.968 230 188C229.922 188.037 229.086 187.997 229 188Z" fill="#FFC42B"/>
<path d="M157 230L179 233C180.401 233.17 181.821 232.766 183 232C184.179 231.233 185.604 230.338 186 229L188 221C188.183 220.383 188.1 219.635 188 219C187.9 218.365 187.364 217.533 187 217C186.636 216.467 186.559 216.33 186 216C185.441 215.67 184.648 215.064 184 215L162 212C160.612 211.85 159.162 212.235 158 213C156.838 213.765 155.394 214.677 155 216L153 224C152.817 224.609 152.904 225.371 153 226C153.096 226.629 153.644 227.471 154 228C154.356 228.529 154.45 228.67 155 229C155.55 229.33 156.36 229.932 157 230Z" fill="#FFC42B"/>
<path d="M179 234C178.727 234.004 179.27 234.045 179 234L156 231C155.281 230.914 154.617 230.39 154 230C153.383 229.61 153.4 228.621 153 228C152.6 227.379 152.109 226.737 152 226C151.891 225.263 151.797 224.716 152 224L154 216C154.431 214.483 155.723 212.874 157 212C158.277 211.125 159.476 210.821 161 211L184 214C184.731 214.089 185.371 214.607 186 215C186.629 215.393 186.586 215.373 187 216C187.395 216.626 187.892 217.262 188 218C188.108 218.738 188.198 220.282 188 221L186 229C185.607 230.4 184.128 232.121 183 233C181.872 233.879 180.414 233.992 179 234ZM157 230L179 233C180.249 233.157 180.949 232.712 182 232C183.051 231.288 183.645 230.243 184 229L187 220C187.151 219.448 187.082 219.567 187 219C186.918 218.432 186.3 217.483 186 217C185.677 216.52 185.486 216.301 185 216C184.514 215.699 183.563 215.069 183 215L161 212C159.763 211.854 159.037 212.29 158 213C156.963 213.709 156.349 214.769 156 216L153 225C152.838 225.548 152.919 225.433 153 226C153.081 226.567 153.692 227.522 154 228C154.308 228.478 154.524 228.703 155 229C155.476 229.297 156.447 229.94 157 230Z" fill="#D8D8D8"/>
<path d="M246 20L213 17C212.922 16.9931 212.069 17.0356 212 17C211.93 16.9643 212.05 17.059 212 17C211.95 16.941 212.023 17.0733 212 17C211.977 16.9267 211.993 17.0765 212 17C212.007 16.9235 211.964 16.068 212 16C212.036 15.9319 211.94 16.0492 212 16C212.06 15.9508 211.925 16.0229 212 16C212.075 15.9771 212.922 15.9931 213 16L246 19C246.158 19 246.888 18.8907 247 19C247.111 19.1093 247 18.8455 247 19C247 19.1545 247.111 19.8907 247 20C246.888 20.1093 246.158 20 246 20Z" fill="white"/>
<path d="M208 17H204C203.92 16.9929 203.072 16.0429 203 16C202.928 15.9572 203.052 16.0718 203 16C202.948 15.9282 203.023 16.0894 203 16C202.977 15.9106 202.992 16.093 203 16C203.016 15.8122 202.876 15.1224 203 15C203.124 14.8776 203.837 14.9881 204 15H208C208.163 15 208.885 15.8663 209 16C209.115 16.1337 209 15.811 209 16C209 16.1891 209.115 16.8663 209 17C208.885 17.1337 208.163 17 208 17Z" fill="white"/>
<path d="M241 129C241 129 255.642 80.6259 243 70L181 63C181 63 170.532 73.5351 169 82C167.468 90.4649 154.212 109.243 159 120L241 129Z" fill="#282B30"/>
<path d="M241 129L160 120C159.898 119.988 159.083 120.06 159 120C158.917 119.94 159.044 119.093 159 119C155.695 111.555 161.111 101.634 165 93C166.921 88.7423 168.523 84.6878 169 82C170.539 73.4846 180.559 62.452 181 62C181.064 61.9337 180.913 62.031 181 62C181.087 61.9691 180.908 61.9891 181 62L243 69C243.113 69.0154 243.91 69.9298 244 70C256.753 80.7037 242.549 127.038 242 129C241.964 129.116 242.096 128.926 242 129C241.904 129.074 241.121 128.993 241 129ZM160 119L241 128C242.456 123.029 254.262 80.8236 243 71L182 63C180.545 64.5699 171.36 74.4718 170 82C169.487 84.8306 167.945 88.671 166 93C162.325 101.242 157.173 112.043 160 119Z" fill="#282B30"/>
<path d="M247 131L144 116C143.845 115.976 143.094 116.127 143 116C142.906 115.873 142.979 116.157 143 116C143.021 115.841 142.874 115.098 143 115C143.126 114.902 143.842 114.979 144 115L247 130C247.159 130.024 247.903 129.871 248 130C248.097 130.129 248.021 129.839 248 130C247.975 130.142 248.11 130.907 248 131C247.89 131.093 247.143 130.999 247 131Z" fill="#282B30"/>
<path d="M243 70C243 70 236.844 70.9113 233 84C227.12 104.029 218.898 147.101 214 163C206.815 186.127 188 189 188 189L107 177C107 177 140.432 165.477 146 146C151.856 125.478 159.809 86.6577 162 78C165.868 62.6658 181 63 181 63L243 70Z" fill="#FFC42B"/>
<path d="M187 189L107 177C106.867 176.98 106.093 177.098 106 177C105.907 176.902 106.014 177.134 106 177C105.987 176.867 105.929 176.113 106 176C106.071 175.887 105.874 176.045 106 176C106.335 175.892 138.6 164.919 144 146C148.05 131.793 153.571 108.382 157 93C158.541 86.1063 160.331 80.6496 161 78C164.931 62.4142 180.845 62 181 62L242 69C242.144 69.0174 242.903 69.892 243 70C243.097 70.108 242.998 69.8548 243 70C242.999 70.1448 243.094 69.8902 243 70C242.906 70.1098 242.142 70.9773 242 71C241.904 71 236.584 71.5913 233 84C230.025 94.1188 226.333 109.738 223 125C219.75 139.95 216.413 154.147 214 162C210.273 174.097 203.328 180.571 198 184C194.734 186.196 191.839 188.153 188 189H187ZM109 176L187 188C188.398 187.712 206.357 183.664 213 162C215.389 154.195 218.75 139.914 222 125C225.321 109.714 229.025 94.1547 232 84C234.521 75.4278 237.718 71.4507 240 70L181 63C180.45 63 165.704 63.3254 162 78C161.343 80.6256 159.541 86.1063 158 93C154.559 108.394 150.062 131.757 146 146C143.073 156.227 132.231 164.12 124 169C119.166 171.838 114.203 173.921 109 176Z" fill="#282B30"/>
<path d="M204 163L194 162C193.846 161.985 193.097 162.1 193 162C192.903 161.9 192.983 161.128 193 161C193.007 160.936 192.963 161.056 193 161C193.037 160.944 192.94 161.04 193 161C193.06 160.96 192.926 161.017 193 161C193.074 160.983 193.924 160.992 194 161L204 162C204.154 162.015 204.903 161.9 205 162C205.097 162.1 205.016 162.872 205 163C204.98 163.118 205.108 162.921 205 163C204.892 163.079 204.143 162.999 204 163Z" fill="white"/>
<path d="M184 162L152 158C151.844 157.982 151.098 158.124 151 158C150.902 157.876 150.983 158.157 151 158C151.007 157.921 150.963 157.069 151 157C151.037 156.931 150.939 157.049 151 157C151.061 156.951 150.925 157.021 151 157C151.076 156.979 151.922 156.99 152 157L184 161C184.158 161.009 184.895 160.881 185 161C185.105 161.119 185.01 160.841 185 161C184.991 161.159 185.119 161.894 185 162C184.882 162.106 184.158 162.009 184 162Z" fill="white"/>
<path d="M194 176L185 175C184.924 174.992 184.067 175.032 184 175C183.933 174.968 184.047 175.051 184 175C183.953 174.949 184.021 175.062 184 175C183.979 174.938 183.991 174.064 184 174C184.009 173.936 183.962 174.056 184 174C184.038 173.944 183.94 174.04 184 174C184.06 173.96 183.926 174.017 184 174C184.074 173.983 184.924 173.992 185 174L194 175C194.076 175.004 194.931 174.972 195 175C195.069 175.028 194.949 174.952 195 175C195.051 175.048 194.975 174.939 195 175C195.025 175.061 195.005 175.936 195 176C194.995 176.064 195.033 175.942 195 176C194.967 176.058 195.057 175.957 195 176C194.943 176.043 195.072 175.979 195 176C194.928 176.021 194.076 176.004 194 176Z" fill="white"/>
<path d="M173 174L142 170C141.84 169.982 141.101 170.128 141 170C140.899 169.872 140.982 170.163 141 170C141.018 169.838 140.874 169.102 141 169C141.126 168.898 141.84 168.982 142 169L173 173C173.159 173.018 173.9 172.874 174 173C174.1 173.126 174.017 172.839 174 173C173.982 173.151 174.111 173.899 174 174C173.889 174.101 173.15 173.998 173 174Z" fill="white"/>
<path d="M188 189C183.262 184.634 179.256 179.028 177 173C174.744 166.972 174.29 160.395 175 154L90 139C90 139 97.3018 167.1 107 177L188 189Z" fill="#FFC42B"/>
<path d="M187 189L106 177C105.869 176.978 106.094 177.093 106 177C96.3301 167.153 89.2984 140.164 89 139C88.9753 138.904 88.9749 138.096 89 138C89.025 137.904 88.9314 138.071 89 138C89.0676 137.924 88.9038 138.033 89 138C89.0961 137.967 89.8997 137.982 90 138L175 153C175.146 153.031 174.912 152.879 175 153C175.088 153.121 175.015 153.852 175 154C174.331 160.264 174.787 166.098 177 172C179.213 177.902 183.371 183.703 188 188C188.1 188.075 187.965 187.881 188 188C188.035 188.119 188.043 188.883 188 189C187.957 189.117 188.104 188.931 188 189C187.896 189.069 187.125 189.006 187 189ZM107 176L186 188C181.73 183.653 178.043 177.728 176 172C173.957 166.272 173.439 160.052 174 154L90 139C91.337 143.858 98.5836 167.246 107 176Z" fill="#282B30"/>
<path d="M221 89L169 83C168.921 82.993 168.07 83.0366 168 83C167.93 82.9633 168.049 83.0603 168 83C167.951 82.9396 168.02 83.0741 168 83C167.98 82.9258 167.988 83.0758 168 83C168.018 82.8492 167.877 82.0948 168 82C168.123 81.9051 168.843 81.9838 169 82L221 88C221.159 88.0076 221.893 87.8867 222 88C222.107 88.1132 222.008 87.8474 222 88C221.992 88.1525 222.118 88.8975 222 89C221.882 89.1024 221.159 89.0076 221 89Z" fill="white"/>
<path d="M219 102L210 101C209.923 100.992 209.068 101.033 209 101C208.932 100.967 209.048 101.052 209 101C208.952 100.948 209.021 101.064 209 101C208.979 100.936 208.991 100.066 209 100C209.009 99.9338 208.962 100.058 209 100C209.038 99.9418 208.939 100.041 209 100C209.061 99.9588 208.925 100.018 209 100C209.075 99.982 209.923 99.992 210 100L219 101C219.077 101.003 219.93 100.972 220 101C220.07 101.028 219.948 100.951 220 101C220.052 101.049 219.974 100.938 220 101C220.026 101.062 220.004 101.934 220 102C219.996 102.066 220.033 101.94 220 102C219.967 102.06 220.058 101.956 220 102C219.943 102.044 220.073 101.978 220 102C219.927 102.022 219.077 102.003 219 102Z" fill="white"/>
<path d="M198 101L167 97C166.841 96.982 166.1 97.128 166 97C165.9 96.8719 165.983 97.1631 166 97C166.018 96.8368 165.875 96.1027 166 96C166.125 95.8973 166.841 95.982 167 96L198 100C198.079 100.005 198.929 99.9646 199 100C199.071 100.035 198.948 99.9394 199 100C199.052 100.061 198.974 99.9235 199 100C199.026 100.076 199.005 99.9192 199 100C198.995 100.081 199.034 100.927 199 101C198.966 101.073 199.059 100.946 199 101C198.941 101.054 199.074 100.974 199 101C198.926 101.026 198.079 101.005 198 101Z" fill="white"/>
<path d="M215 115L200 113C199.847 112.98 199.095 113.12 199 113C198.905 112.88 198.984 113.152 199 113C199.02 112.849 198.879 112.094 199 112C199.121 111.906 199.847 111.984 200 112L215 114C215.076 114.007 215.933 113.964 216 114C216.067 114.036 215.953 113.941 216 114C216.048 114.059 215.979 113.927 216 114C216.021 114.072 216.01 113.925 216 114C215.983 114.138 216.104 114.907 216 115C215.896 115.093 215.14 114.998 215 115Z" fill="white"/>
<path d="M184 112L164 109C163.921 108.991 163.07 109.042 163 109C162.931 108.958 163.05 109.067 163 109C162.95 108.933 163.022 109.083 163 109C162.978 108.917 162.991 109.086 163 109C163.009 108.914 162.962 108.076 163 108C163.038 107.924 162.938 108.054 163 108C163.062 107.946 162.924 108.024 163 108C163.076 107.976 163.921 107.991 164 108L184 111C184.158 111.023 184.901 110.863 185 111C185.099 111.137 185.017 110.827 185 111C184.994 111.17 185.112 111.881 185 112C184.888 112.119 184.156 111.997 184 112Z" fill="white"/>
<path d="M213 128L200 126C199.841 125.978 199.099 126.13 199 126C198.901 125.87 198.983 126.165 199 126C199.024 125.837 198.875 125.102 199 125C199.125 124.898 199.841 124.985 200 125L213 127C213.16 127.008 213.893 126.878 214 127C214.107 127.122 214.008 126.835 214 127C213.992 127.165 214.118 127.889 214 128C213.881 128.111 213.16 128.008 213 128Z" fill="white"/>
<path d="M185 124L161 121C160.843 120.982 160.099 121.121 160 121C159.901 120.879 159.983 121.154 160 121C160.021 120.845 159.874 120.096 160 120C160.126 119.904 160.841 119.983 161 120L185 123C185.159 123 185.888 122.89 186 123C186.113 123.11 186 122.845 186 123C186 123.155 186.113 123.89 186 124C185.888 124.11 185.159 124 185 124Z" fill="white"/>
<path d="M210 141L199 139C198.848 138.979 198.096 139.14 198 139C197.904 138.86 197.984 139.179 198 139C198.007 138.911 197.964 138.079 198 138C198.036 137.921 197.94 138.056 198 138C198.06 137.944 197.926 138.024 198 138C198.074 137.976 198.924 137.989 199 138L210 140C210.154 140.011 210.897 139.865 211 140C211.102 140.135 211.009 139.82 211 140C210.991 140.18 211.116 140.88 211 141C210.884 141.12 210.154 141.011 210 141Z" fill="white"/>
<path d="M190 138L158 134C157.845 133.982 157.098 134.123 157 134C156.903 133.877 156.983 134.156 157 134C157.007 133.922 156.963 133.069 157 133C157.037 132.931 156.939 133.049 157 133C157.061 132.951 156.925 133.021 157 133C157.075 132.979 157.923 132.99 158 133L190 137C190.157 137.008 190.895 136.883 191 137C191.105 137.117 191.008 136.842 191 137C190.992 137.158 191.117 137.894 191 138C190.884 138.106 190.157 138.008 190 138Z" fill="white"/>
<path d="M208 151L194 149C193.84 148.981 193.101 149.127 193 149C192.899 148.873 192.983 149.162 193 149C193.007 148.919 192.962 148.072 193 148C193.038 147.928 192.937 148.051 193 148C193.063 147.949 192.923 148.022 193 148C193.077 147.978 193.92 147.99 194 148L208 150C208.162 150.01 208.892 149.877 209 150C209.108 150.123 209.01 149.836 209 150C208.99 150.164 209.121 150.891 209 151C208.879 151.109 208.162 151.01 208 151Z" fill="white"/>
<path d="M186 149L155 145C154.842 144.982 154.099 145.127 154 145C153.9 144.873 153.983 145.162 154 145C154.017 144.838 153.876 144.102 154 144C154.124 143.898 154.842 143.982 155 144L186 148C186.158 148.01 186.895 147.878 187 148C187.105 148.122 187.009 147.838 187 148C186.99 148.162 187.119 148.892 187 149C186.881 149.108 186.158 149.01 186 149Z" fill="white"/>
<path d="M21.3938 70.9849L48.7858 129.931C51.0679 134.842 57.1952 137.046 62.0648 134.778L151.807 92.9759C156.676 90.7076 158.94 84.5956 156.657 79.6849L129.265 20.7385C126.983 15.8277 120.856 13.6239 115.986 15.8922L26.2445 57.6939C21.3749 59.9621 19.1118 66.0741 21.3938 70.9849Z" fill="#FFC42B"/>
<path d="M58 136C56.0192 136.003 53.6712 135.063 52 134C50.3287 132.937 49.8371 131.794 49 130L21 71C19.8391 68.5023 20.0547 65.5868 21 63C21.9452 60.4131 23.5019 58.1619 26 57L117 15C119.499 13.8397 122.412 14.0552 125 15C127.588 15.9447 129.837 17.5031 131 20L158 79C158.577 80.2357 158.941 81.6376 159 83C159.059 84.3623 158.467 85.7187 158 87C157.533 88.2812 156.922 88.9952 156 90C155.078 91.0048 154.237 92.4248 153 93L62 135C60.6461 135.628 59.4927 135.996 58 136ZM121 15C119.665 15.0008 118.211 15.4397 117 16L27 58C24.7921 59.0289 22.8348 60.7125 22 63C21.1651 65.2874 20.9735 67.7917 22 70L50 129C51.0318 131.208 52.7095 133.166 55 134C57.2905 134.834 59.7889 135.026 62 134L153 92C155.208 90.971 156.165 89.2874 157 87C157.835 84.7125 158.026 82.2082 157 80L129 20C128.261 18.4203 127.47 17.9387 126 17C124.53 16.0612 122.745 15.0062 121 15Z" fill="#282B30"/>
<path d="M100.886 44.2352L108.05 59.6519C109.717 63.2401 113.777 64.7066 117.345 63.0443L128.223 57.9775C131.792 56.3152 133.286 52.2619 131.619 48.6737L124.455 33.257C122.787 29.6688 118.728 28.2023 115.159 29.8646L104.281 34.9314C100.713 36.5937 99.2186 40.647 100.886 44.2352Z" fill="white"/>
<path d="M34.8332 66.1492C32.6639 67.1597 31.8456 69.2118 32.8929 71.4657C33.9403 73.7195 36.4566 75.3215 38.6259 74.311L59.4751 64.5995C61.6444 63.5891 62.0413 60.6301 60.9939 58.3762C59.9466 56.1224 57.8516 55.4273 55.6823 56.4377L34.8332 66.1492Z" fill="white"/>
<path d="M123.05 82.6519L125.157 87.1863C125.668 88.2847 126.728 88.6607 127.813 88.1555L143.223 80.9774C144.308 80.4722 144.704 79.4176 144.193 78.3192L142.086 73.7848C141.576 72.6864 140.515 72.3104 139.43 72.8156L124.02 79.9937C122.936 80.4989 122.54 81.5535 123.05 82.6519Z" fill="white"/>
<path d="M100.05 92.6519L102.157 97.1863C102.668 98.2847 103.728 98.6607 104.813 98.1555L120.223 90.9775C121.308 90.4723 121.704 89.4177 121.193 88.3193L119.086 83.7849C118.576 82.6865 117.515 82.3105 116.43 82.8157L101.02 89.9937C99.9357 90.4989 99.5397 91.5535 100.05 92.6519Z" fill="white"/>
<path d="M77.0501 103.652L79.1572 108.186C79.6676 109.285 80.7284 109.661 81.813 109.156L97.2232 101.977C98.3077 101.472 98.7038 100.418 98.1933 99.3193L96.0863 94.7849C95.5758 93.6865 94.515 93.3105 93.4305 93.8157L78.0202 100.994C76.9357 101.499 76.5397 102.554 77.0501 103.652Z" fill="white"/>
<path d="M53.0501 114.652L55.1572 119.186C55.6676 120.285 56.7284 120.661 57.813 120.156L73.2232 112.977C74.3077 112.472 74.7038 111.418 74.1934 110.319L72.0863 105.785C71.5758 104.687 70.515 104.31 69.4305 104.816L54.0202 111.994C52.9357 112.499 52.5397 113.554 53.0501 114.652Z" fill="white"/>
<path d="M223 60.9999C222.902 61.0009 223.086 61.0474 223 60.9999C222.914 60.9525 223.052 61.0837 223 60.9999L207 35.9999C206.925 35.8689 206.964 35.1465 207 34.9999C207.036 34.8534 206.874 35.0815 207 34.9999C207.126 34.9184 207.852 34.9718 208 34.9999C208.148 35.0281 207.912 34.8775 208 34.9999L224 59.9999C224.084 60.1313 224.033 60.8475 224 60.9999C223.967 61.1523 224.131 60.9154 224 60.9999C223.907 61.0646 223.113 61.0034 223 60.9999Z" fill="#FFC42B"/>
<path d="M174 53.9999C173.895 53.9999 174.09 54.0565 174 53.9999C173.91 53.9434 174.049 54.0969 174 53.9999L166 37.9999C165.965 37.9314 166.007 38.0774 166 37.9999C165.993 37.9225 165.978 37.0742 166 36.9999C166.022 36.9257 165.952 37.0593 166 36.9999C166.048 36.9406 165.934 37.0351 166 36.9999C166.066 36.9627 166.925 37.0075 167 36.9999C167.075 36.9924 166.928 36.9767 167 36.9999C167.072 37.0232 166.942 36.9495 167 36.9999C167.058 37.0504 166.965 36.9301 167 36.9999L175 52.9999C175.069 53.1407 175.045 53.8489 175 53.9999C174.955 54.151 175.133 53.9243 175 53.9999C174.917 54.0355 174.09 53.9962 174 53.9999Z" fill="#FFC42B"/>
<path d="M42 147L37 153C33.7831 157.051 23.3735 154.58 14 147C4.62644 139.42 -0.253056 130.063 2.99996 126L7.99997 120L42 147Z" fill="#FFC42B"/>
<path d="M32 155C27.2146 155 19.6159 152.28 13 147C8.80101 143.765 5.65818 139.583 3.00001 135C0.78674 130.855 0.301176 127.126 2.00001 125L7.00001 119C7.10173 118.884 7.84615 119.013 8.00001 119C8.15387 118.987 7.87976 118.903 8.00001 119L42 146C42.0648 146.048 41.9608 145.93 42 146C42.0392 146.07 41.9934 146.92 42 147C42.0131 147.164 42.1052 146.873 42 147L37 153C36.3532 153.719 34.8981 154.64 34 155C33.102 155.36 32.9652 155.072 32 155ZM8.00001 120L3.00001 126C1.64812 127.684 2.0619 130.416 4.00001 134C6.58027 138.447 9.92099 142.866 14 146C22.889 153.168 33.057 155.656 36 152L41 147L8.00001 120Z" fill="#282B30"/>
<path d="M41.1713 146.869C44.4489 142.772 40.2981 133.352 31.0338 125.925C21.7695 118.497 10.8998 115.875 7.62226 119.972C4.34467 124.069 9.90031 133.334 19.1646 140.761C28.4289 148.189 37.8937 150.966 41.1713 146.869Z" fill="#FFC42B"/>
<path d="M37 149C32.2209 149 24.5833 146.298 18 141C13.7999 137.75 10.6555 133.612 8.00004 129C5.78967 124.831 5.29149 121.138 7.00004 119C8.69664 116.861 12.4837 116.738 17 118C22.0556 119.596 26.9279 121.591 31 125C40.7137 132.821 45.453 142.711 42 147C41.351 147.726 40.901 148.635 40 149C39.0991 149.364 37.9685 149.072 37 149ZM12 118C11.2181 117.926 10.7365 118.725 10 119C9.26359 119.275 8.54474 119.431 8.00004 120C6.62603 121.718 7.05253 124.396 9.00004 128C11.5734 132.471 14.9307 136.847 19 140C27.8773 147.208 38.0728 149.676 41 146C43.9273 142.324 38.8893 133.148 30 126C26.057 122.691 20.9001 120.546 16 119C14.6557 118.611 13.3988 118.01 12 118Z" fill="#282B30"/>
<path d="M15.9999 123L18.9999 125C19.6866 125.133 20.3017 125.819 20.9999 126C22.8349 126.508 24.4477 126.867 25.9999 128C26.9704 128.682 28.2322 130.082 28.9999 131C29.4824 131.497 29.8843 131.306 29.9999 132C30.0237 132.246 29.1165 132.784 28.9999 133C28.8834 133.216 29.2148 133.893 28.9999 134C28.6624 134.241 28.3724 133.759 27.9999 134L31.9999 138C32.6866 137.494 31.9426 137.048 30.9999 136L33.9999 135C34.7469 135.671 35.564 137.081 35.9999 138C36.185 138.345 36.0352 138.607 35.9999 139C35.9646 139.393 35.2433 139.696 34.9999 140C34.7555 140.277 35.3025 140.723 34.9999 141L35.9999 142L33.9999 143L31.9999 142C31.2784 142 30.7448 142 29.9999 142C28.5642 141.858 27.2962 140.655 25.9999 140C24.2414 139.196 22.3132 138.454 20.9999 137C19.6616 135.482 19.1736 133.807 19.9999 133C20.5518 132.509 21.3074 132.232 21.9999 132L17.9999 128C17.9079 128.257 18.0316 128.728 17.9999 129C18.1321 129.544 18.5804 129.645 18.9999 130L14.9999 131C14.6974 130.663 14.2676 130.325 13.9999 130C13.0223 128.795 12.6974 127.783 12.9999 127C13.1991 126.622 13.6503 126.234 13.9999 126C14.3496 125.766 14.5849 125.032 14.9999 125C15.128 125 15.128 125.133 14.9999 125C14.2667 124.301 13.7215 123.711 12.9999 123H15.9999ZM25.9999 135C25.6392 135.301 24.9068 135.434 24.9999 136C25.093 136.566 26.8245 138.59 27.9999 139C28.5781 139.214 28.3864 139.023 28.9999 139L25.9999 135ZM24.9999 131C25.3142 130.819 24.9534 131.325 24.9999 131C25.0814 130.398 24.2801 128.482 22.9999 128C22.453 127.783 21.6051 128.181 20.9999 128L24.9999 131Z" fill="white"/>
<path d="M81 207L84 214C86.1587 218.677 78.8416 226.913 68 232C57.1584 237.087 46.1707 237.665 44 233L41 226L81 207Z" fill="#FFC42B"/>
<path d="M51 237C46.8406 237 44.1083 235.412 43 233L40 226C39.9422 225.855 39.9447 226.145 40 226C40.0553 225.854 39.8614 225.068 40 225L80 207C80.0731 206.967 79.9199 207 80 207C80.08 207 79.9268 206.967 80 207C80.075 207.031 79.9427 206.942 80 207C80.0573 207.058 80.9694 206.924 81 207L84 214C86.3121 219.03 78.2505 227.693 67 233C62.0489 235.452 56.5082 236.788 51 237ZM41 226L44 233C45.9664 237.27 56.6791 236.849 67 232C77.3209 227.151 83.9784 219.318 82 215L80 208L41 226Z" fill="#282B30"/>
<path d="M64.046 225.354C74.8079 220.337 82.4025 212.655 80.1898 207.897C77.9771 203.14 66.795 203.109 56.0331 208.126C45.2711 213.144 39.0046 221.31 41.2173 226.067C43.43 230.825 53.284 230.371 64.046 225.354Z" fill="#FFC42B"/>
<path d="M49 229C44.7017 229 41.1103 227.335 40 225C37.6121 219.969 44.729 212.284 56 207C67.2709 201.716 79.6718 201.957 82 207C84.3282 212.043 77.2709 219.704 66 225C61.24 227.34 54.2843 228.653 49 229ZM73 204C67.6343 204.222 62.8228 205.619 58 208C47.6961 212.814 40.0299 220.691 42 225C42.9312 226.998 44.9166 228.12 49 228C54.1246 227.664 60.3889 226.279 65 224C75.3038 219.185 81.9819 211.309 80 207C79.0926 204.978 76.6296 204 73 204Z" fill="#282B30"/>
<path d="M48 219L51 218C51.4373 217.44 51.502 216.49 52 216C53.3133 214.582 55.2597 212.898 57 212C58.0697 211.424 58.8118 211.292 60 211C60.6751 210.79 61.3249 210.79 62 211C62.2218 211.088 62.866 210.809 63 211C63.134 211.191 62.9988 211.77 63 212C63 212.408 62.9636 212.568 63 213L68 211C67.8542 210.16 67.3848 210.603 66 211L67 209C67.9673 208.62 68.9549 207.989 70 208C70.4029 207.982 70.6605 207.791 71 208C71.3395 208.209 71.8492 208.641 72 209C72.1313 209.382 71.921 209.605 72 210H74V212L72 213C71.6599 213.642 71.3887 214.346 71 215C70.2199 216.232 69.18 217.109 68 218C66.4681 219.237 63.9208 220.46 62 221C60.0078 221.56 59.3523 221.085 59 220C58.8108 219.295 58.891 218.72 59 218C59 217.895 59 217.093 59 217L53 219V220C53.1852 220.195 53.7662 219.862 54 220C54.5504 220.121 54.487 220.226 55 220L54 223C53.5505 223.128 53.413 223.907 53 224C51.4573 224.373 49.5709 223.619 49 223C48.7567 222.663 49.0487 222.407 49 222C48.9513 221.593 48.8426 221.381 49 221C49 220.883 49.1944 220.93 49 221L46 222L48 219ZM63 216C63.1093 216.455 63.4534 216.802 64 217C64.5912 216.993 64.4608 217.233 65 217C65.5392 216.767 66.6025 216.421 67 216C67.4608 215.57 67.7385 214.564 68 214L63 216ZM59 215C59 214.65 59.2794 214.175 59 214C58.502 213.673 56.0447 214.055 55 215C54.5627 215.397 54.4252 215.533 54 216L59 215Z" fill="white"/>
<path d="M52 163C47.7257 170.16 52 186 52 186L59 191C61.2555 192.364 63.397 193.607 66 194C68.603 194.393 71.4458 193.639 74 193C76.5543 192.361 78.8834 191.573 81 190C83.1166 188.427 84.6433 186.268 86 184C87.3568 181.732 88.6097 179.618 89 177C89.3904 174.382 88.6355 171.569 88 169C87.3645 166.431 86.5646 164.128 85 162C83.4354 159.872 81.2555 157.364 79 156L72 153C72 153 56.2743 155.852 52 163Z" fill="#FFC42B"/>
<path d="M68 194C64.2879 193.993 61.1796 192.93 58 191L52 186C51.8972 185.921 51.0369 186.125 51 186C50.797 185.338 46.6772 170.28 51 163C55.3465 155.78 71.3312 152.132 72 152C72.1209 151.965 71.879 151.965 72 152L79 155C82.8523 157.328 86.3331 161.796 88 166C89.6668 170.204 89.1991 174.637 88 179C86.8008 183.362 84.5756 187.26 81 190C77.4244 192.74 72.4922 194.001 68 194ZM52 186L59 190C63.3943 192.645 68.0349 193.254 73 192C77.965 190.746 82.3635 187.421 85 183C87.6362 178.572 88.238 174.01 87 169C85.7619 163.989 82.3887 159.665 78 157L72 153C70.173 153.385 55.8211 156.622 52 163C48.1788 169.426 51.4865 184.195 52 186Z" fill="#282B30"/>
<path d="M64 191C75.0457 191 84 182.046 84 171C84 159.954 75.0457 151 64 151C52.9543 151 44 159.954 44 171C44 182.046 52.9543 191 64 191Z" fill="#FFC42B"/>
<path d="M64 191C60.8657 190.992 57.8049 190.405 55 189C52.1951 187.595 49.8926 185.509 48 183C46.1074 180.491 44.587 177.092 44 174C43.413 170.908 44.1593 168.032 45 165C45.8407 161.968 46.9064 159.342 49 157C51.0936 154.657 54.0886 152.166 57 151C59.9114 149.834 62.8759 149.747 66 150C69.1241 150.253 72.3124 151.38 75 153C78.8208 155.302 82.3497 158.843 84 163C85.6503 167.157 85.1952 171.689 84 176C82.8048 180.311 80.5518 184.298 77 187C73.4482 189.702 68.4559 191.012 64 191ZM65 151C60.3621 150.993 55.4975 152.941 52 156C48.5025 159.059 45.6303 163.385 45 168C44.3697 172.615 45.4518 177.108 48 181C50.5482 184.892 54.5315 187.752 59 189C63.4685 190.247 68.8175 190.013 73 188C77.1825 185.987 80.1685 182.279 82 178C83.8315 173.721 84.4239 169.433 83 165C81.5761 160.567 77.9762 156.398 74 154C71.0302 152.199 68.4691 151.012 65 151Z" fill="#282B30"/>
<path d="M53 161L56 163C56.1697 163.094 55.8788 163.141 56 163C56.9895 161.932 58.6041 160.476 60 160C61.4567 159.501 62.5669 159.44 64 160C64.3878 160.153 64.5516 160.823 65 161L63 165C62.4084 164.662 61.6794 163.906 61 164C60.478 164.132 59.5032 164.811 59 165L64 168H65C65.8446 167.112 65.9685 165.676 67 165C67.7597 164.468 69.0669 164.075 70 164C70.9331 163.925 72.161 164.596 73 165C74.6318 165.646 75.3017 166.428 76 168C76.5753 169.277 77.3075 170.638 77 172C76.8182 172.847 76.2545 174.129 76 175L78 176L76 180L74 179C73.3577 179.588 72.618 179.482 72 180C70.7962 181.025 69.5985 181.919 68 182C66.6251 182.033 65.1613 181.716 64 181L66 177C66.6829 177.365 67.2291 178.113 68 178C68.7709 177.887 69.4581 176.544 70 176L65 173C64.3577 173.577 63.6544 174.435 63 175C62.2331 175.716 62.0233 176.719 61 177C59.9491 177.255 58.005 177.393 57 177C55.7467 176.575 54.8385 174.999 54 174C53.3989 173.276 53.2283 172.903 53 172C52.7717 171.097 52.8124 169.912 53 169C53.1454 168.258 53.7819 167.718 54 167C54 166.918 53.9031 166.094 54 166L51 165L53 161ZM73 173C73.2803 172.383 73.1062 171.666 73 171C72.8915 170.433 72.4691 169.354 72 169C71.5309 168.646 70.5925 168.961 70 169C69.1615 169.224 68.5961 169.385 68 170L73 173ZM57 168C56.9138 168.577 56.9945 169.417 57 170C57.0269 170.315 56.8389 170.725 57 171C57.1611 171.275 57.7347 171.816 58 172C58.2653 172.184 58.6797 171.942 59 172C59.3203 172.058 59.6842 172.078 60 172C60.638 171.729 60.5361 171.504 61 171L57 168Z" fill="white"/>
</svg>
