<svg width="58" height="58" viewBox="0 0 58 58" fill="none" xmlns="http://www.w3.org/2000/svg">
<path d="M53.7097 27.6112C53.7192 31.2774 52.8725 34.8942 51.2388 38.1667C49.3016 42.0882 46.3236 45.3866 42.6383 47.6925C38.9529 49.9983 34.7059 51.2205 30.3727 51.2222C26.749 51.2318 23.1743 50.3752 19.9397 48.7222L4.29022 54L9.50673 38.1667C7.87295 34.8942 7.0263 31.2774 7.03575 27.6112C7.03743 23.2272 8.24546 18.9302 10.5245 15.2016C12.8036 11.473 16.0637 8.45998 19.9397 6.50008C23.1743 4.84711 26.749 3.99052 30.3727 4.00008H31.7455C37.4681 4.3195 42.8732 6.7633 46.9259 10.8636C50.9786 14.9638 53.394 20.4324 53.7097 26.2223V27.6112Z" stroke="#282B30" stroke-width="8" stroke-linecap="round" stroke-linejoin="round"/>
</svg>
