<svg width="300" height="300" viewBox="0 0 300 300" fill="none" xmlns="http://www.w3.org/2000/svg">
<g clip-path="url(#clip0)">
<path fill-rule="evenodd" clip-rule="evenodd" d="M222 134H296V160C296 166.318 290.351 171 284 171H258L242 179L222 171V134Z" fill="#FE724E"/>
<path fill-rule="evenodd" clip-rule="evenodd" d="M222 171H258V188C258 192.014 254.944 195 251 195H134C134 184.493 134.063 179 142 179H158C167.951 178.983 174.356 176.532 178 171H222Z" fill="#FFC42B"/>
<path fill-rule="evenodd" clip-rule="evenodd" d="M148 195H251C257.011 205.428 261.168 218.033 257 242C250.025 218.364 179.273 227.722 172 255H94C91.044 248.33 88.4411 241.654 86 235H108C152.569 218.25 138.02 225.803 148 195Z" fill="#FE724E"/>
<path fill-rule="evenodd" clip-rule="evenodd" d="M142 131C143.521 139.021 145.684 146.272 148 153L170 162L195 153C194.124 105.59 176.049 83.3571 161 76C155.575 71.8644 150 70 150 70C150 70 143.38 82 143 82C140.188 88.6947 138.818 97.571 139 107L142 131Z" fill="#FE724E"/>
<path fill-rule="evenodd" clip-rule="evenodd" d="M195 153H147C136.056 154.205 123 162.937 123 189V216H148V195C148 184.578 148.103 179 156 179H171C180.901 178.983 187.374 176.487 191 171C193.798 166.768 195.397 160.879 195 153Z" fill="#FFC42B"/>
<path fill-rule="evenodd" clip-rule="evenodd" d="M195 154C194.125 106.286 176.026 83.4042 161 76C158.771 77.5843 156.724 79.033 154 80C167.309 90.1567 180.24 112.707 181 154H195Z" fill="#FE724E"/>
<path fill-rule="evenodd" clip-rule="evenodd" d="M195 153H181C181.402 160.835 180.836 166.792 178 171C175.684 174.443 171.782 177.336 167 179H171C181.033 178.984 187.325 176.456 191 171C193.835 166.792 195.402 160.835 195 153Z" fill="#FFC42B"/>
<path fill-rule="evenodd" clip-rule="evenodd" d="M234 97H284C290.351 97 296 102.571 296 109V128H222V109C222 102.571 227.649 97 234 97Z" fill="#FE724E"/>
<path fill-rule="evenodd" clip-rule="evenodd" d="M222 122H296V140H222V122Z" fill="#FFC42B"/>
<path fill-rule="evenodd" clip-rule="evenodd" d="M281 122H290H296V109C296 104.639 293.543 99.9722 290 98C288.336 97.0811 286.013 97 284 97H269C275.355 97 281 102.616 281 109V122Z" fill="#FE724E"/>
<path fill-rule="evenodd" clip-rule="evenodd" d="M280 140H289H295V134V128V122H289H280V128V134V140Z" fill="#FFC42B"/>
<path fill-rule="evenodd" clip-rule="evenodd" d="M281 140V160C281 166.454 275.355 172 269 172H284C286.013 172 288.336 171.93 290 171C293.544 168.989 296 164.41 296 160V140H290H281Z" fill="#FE724E"/>
<path fill-rule="evenodd" clip-rule="evenodd" d="M172 255C172 230.512 191.971 211 216 211C235.545 211 251.503 224.003 257 242C258.129 245.692 258.883 249.927 259 254C259.05 255.589 257.494 255 256 255C227.853 255 200.147 254.983 172 255Z" fill="#FFC42B"/>
<path fill-rule="evenodd" clip-rule="evenodd" d="M183 256H249C248.057 273.825 233.642 288 216 288C198.358 287.999 183.943 273.825 183 256Z" fill="#FFC42B"/>
<path fill-rule="evenodd" clip-rule="evenodd" d="M14.9999 248L71.9999 261C68.3624 276.819 52.8003 286.641 36.9999 283C21.1825 279.358 11.363 263.818 14.9999 248Z" fill="#FFC42B"/>
<path fill-rule="evenodd" clip-rule="evenodd" d="M10 232C18.0081 220.186 31.4698 213.526 46 215C71.626 220.497 80.3323 236.628 82 256C81.9668 258.631 81.5609 261.352 81 264C80.8352 264.737 80.7922 264.184 80 264L71 262L14 248H10L4 246C5.13877 240.939 7.25939 236.039 10 232Z" fill="#FE724E"/>
<path fill-rule="evenodd" clip-rule="evenodd" d="M47 216L70 136L80 131L92 136C76.9051 178.407 80.8109 207.751 91 236C93.4361 242.711 96.086 249.272 99 256H83L47 216Z" fill="#FFC42B"/>
<path fill-rule="evenodd" clip-rule="evenodd" d="M118 46L145 40C147.716 40.2479 155 46.9069 155 51L149 80C146.629 80.7098 144.601 81 142 81C127.743 81 116 69.2941 116 55C116 51.6819 116.864 48.9044 118 46Z" fill="white"/>
<path fill-rule="evenodd" clip-rule="evenodd" d="M110 46C110 27.4302 124.767 12 143 12C161.233 12 176 27.4302 176 46C176 58.2577 171.066 68.6721 162 75C158.767 77.2758 155.233 79.0369 151 80V51C151 46.8805 148.75 46.2494 146 46H119H110Z" fill="#FFC42B"/>
<path fill-rule="evenodd" clip-rule="evenodd" d="M125 17C129.99 13.8428 135.7 12 142 12C160.137 12 175 27.4219 175 46C175 58.2632 170.018 68.6693 161 75C158.712 76.612 155.785 78.0364 153 79C159.664 72.237 164 62.7016 164 52C164 32.5913 147.949 17 129 17C127.524 17.0006 126.426 16.8008 125 17Z" fill="#FFC42B"/>
<path fill-rule="evenodd" clip-rule="evenodd" d="M123 216H148V231C148 234.309 146.672 235 144 235H108C107.29 219.505 116.498 216 123 216Z" fill="#FFC42B"/>
<path fill-rule="evenodd" clip-rule="evenodd" d="M91 236C80.7783 207.831 76.8568 178.287 92 136H83C82.9668 136 83.0332 136 83 136H80C64.8568 178.287 68.762 207.831 79 236C81.4275 242.692 84.0604 249.291 87 256H93H99C96.0767 249.291 93.4444 242.692 91 236Z" fill="#FFC42B"/>
<path fill-rule="evenodd" clip-rule="evenodd" d="M83 256L47 215C43.2769 214.631 39.5564 215.346 36 216L71 254C70.9664 256.263 70.4341 258.704 70 261L72 262L81 264C81.8016 264.184 81.8333 264.738 82 264C82.5684 261.352 82.967 258.631 83 256Z" fill="#FE724E"/>
<path fill-rule="evenodd" clip-rule="evenodd" d="M251 195H148V204H232C238.874 204 242.32 207.015 245 213C247.313 218.189 247.951 219.733 249 226C252.945 230.559 255.186 236.049 257 242C261.177 217.995 257.025 205.445 251 195Z" fill="#FE724E"/>
<path fill-rule="evenodd" clip-rule="evenodd" d="M248 226C240.036 216.778 229.092 211 216 211C212.714 211 209.07 211.321 206 212C225.596 216.421 239.402 234.115 240 254C240.033 255.093 239.796 254.95 239 255H249H256C257.493 255 259.05 255.589 259 254C258.884 249.927 258.129 245.693 257 242C256.967 241.884 257.033 242.099 257 242C257 242 257 242.016 257 242C255.174 236.188 251.866 230.47 248 226Z" fill="#FFC42B"/>
<path fill-rule="evenodd" clip-rule="evenodd" d="M70 261L15 248C14.3826 250.582 13.8999 253.467 14 256L58 266H60C58.3649 273.073 53.5226 279.036 48 283C59.2617 281.043 69.2808 272.678 72 261H70Z" fill="#D8D8D8"/>
<path fill-rule="evenodd" clip-rule="evenodd" d="M238 256H183C183.182 259.44 183.858 262.903 185 266H224H234C233.586 273.7 230.7 280.544 226 286C238.76 281.855 248.256 270.074 249 256H238Z" fill="#D8D8D8"/>
<path fill-rule="evenodd" clip-rule="evenodd" d="M258 188V171H235V188C235 192.014 231.979 195 228 195H251C254.979 195 258 192.014 258 188Z" fill="#D8D8D8"/>
<path fill-rule="evenodd" clip-rule="evenodd" d="M117 53H139C141.702 53.2531 144 53.8201 144 58V82C146.194 81.899 147.969 81.6238 150 81V51C150 46.8201 147.702 46.2531 145 46H119C118.198 48.1238 117.246 50.6403 117 53Z" fill="#FFC42B"/>
<path fill-rule="evenodd" clip-rule="evenodd" d="M65 110L96 120C97.5298 121.353 96.0312 135.446 95 135H70H59V112C59 107.528 61.0594 108.713 65 110Z" fill="#FE724E"/>
<path fill-rule="evenodd" clip-rule="evenodd" d="M111 136H108H95C86.5207 136 87.0351 121.816 97 121L111 120L115 128L111 136Z" fill="white"/>
<path fill-rule="evenodd" clip-rule="evenodd" d="M139 107L144 102C157.047 90.7012 173.441 110.617 156 122L142 131L134 136H111V120L126 119L139 107Z" fill="#FFC42B"/>
<path fill-rule="evenodd" clip-rule="evenodd" d="M111 136V128H108H106H104H89.9999C89.5016 128 89.4483 128.101 88.9999 128C88.518 131.916 90.4796 136 94.9999 136H108H111Z" fill="#FFC42B"/>
<path fill-rule="evenodd" clip-rule="evenodd" d="M156 122C166.551 115.117 165.007 105.076 159 101C159.483 105.176 157.991 110.107 152 114L140 121L137 123L130 128H111V136H134L142 131L156 122Z" fill="#FFC42B"/>
<path fill-rule="evenodd" clip-rule="evenodd" d="M95.9999 121L83.9999 117C79.8744 121.504 77.3472 130.279 79.9999 136H91.9999H94.9999C90.5469 136 88.5252 131.87 88.9999 128C89.4262 124.648 91.4649 121.383 95.9999 121Z" fill="#FE724E"/>
<path d="M284 92H233C224.221 92 217 99.203 217 108V167H198C199.057 163.15 199.257 158.285 199 153C198.587 130.668 194.568 111.788 187 97C181.123 85.5185 174.885 79.1151 169 75C175.907 67.8876 180 57.6693 180 46C180 25.0044 162.556 8 142 8C121.443 8 105 25.0044 105 46C105 48.431 107.573 50 110 50H113C112.725 51.6606 112 54.2813 112 56C112 70.7963 123.042 82.2286 137 85C135.537 90.4406 133.997 97.7122 134 105L123 114L96.9998 116L65.9998 106C63.1803 105.061 59.7725 103.998 56.9998 106C54.2676 107.975 54.9998 111.865 54.9998 113V136C54.9998 138.431 56.5729 140 58.9998 140H63.9998L55.9998 168C55.3254 170.334 56.6684 172.325 58.9998 173C61.3325 173.679 64.3248 172.334 64.9998 170L72.9998 140H85.9998C70.4607 187.454 79.3714 218.944 92.9998 251H84.9998L51.9998 214L58.9998 190C59.6748 187.665 58.3313 185.675 55.9998 185C53.6684 184.325 50.6748 185.666 49.9998 188L43.9998 211C23.4181 210.656 4.69145 224.555 -0.000179604 245C-0.543347 247.368 0.635549 249.455 2.99982 250L9.99982 252C8.40606 268.578 19.3743 284.168 35.9998 288C38.5246 288.583 40.4709 289 42.9998 289C49.2366 289 55.5805 287.402 60.9998 284C67.3602 280.009 72.4352 273.935 74.9998 267L79.9998 268C81.4664 268.34 82.61 268.749 83.9998 268C85.293 267.303 85.6776 265.421 85.9998 264C86.3092 262.559 86.8363 261.478 86.9998 260H179C181.939 278.3 197.431 292 216 292C234.569 292 250.061 278.3 253 260H256H257C257.134 260.002 256.849 260 257 260C258.257 260 260.509 259.519 262 258C262.746 257.24 263.067 256.16 263 254C262.876 249.867 262.057 245.795 261 242C264.5 220.719 261.993 208.144 257 198C260.156 195.928 262 192.056 262 188V176H284C292.779 176 300 168.797 300 160V108C300.002 99.2036 292.78 92 284 92ZM55.9998 276C50.3742 279.531 44.4616 280.49 37.9998 279C26.1064 276.259 17.4215 265.81 17.9998 254L65.9998 265C64.0275 269.65 60.3645 273.261 55.9998 276ZM77.9998 259L9.99982 243C15.275 228.534 29.4823 219.176 44.9998 220L77.9998 257C77.9705 257.495 78.049 258.511 77.9998 259ZM145 182C143.724 185.369 143 189.25 143 195V212H127V189C127 163.242 141.7 158.758 148 158H191C190.826 163.846 189.501 168.362 187 171C184.085 174.074 178.345 174.993 171 175H156C150.375 175.001 146.702 177.503 145 182ZM143 221V231C142.96 231 143.042 231 143 231H112C112.351 227.741 113.335 225.745 115 224C117.476 221.405 121.141 221 123 221H143ZM191 149H151C149.395 143.943 147.176 138.692 146 133L158 125C164.633 120.687 168.616 114.314 168 108C167.454 102.403 163.334 97.14 158 95C153.128 93.046 148.634 94.0327 144 97C144.382 92.7904 144.971 89.1897 146 86C147.873 85.8064 149.173 85.5381 151 85C154.719 84.1351 157.897 82.8278 161 81C169.464 86.0639 189.03 102.144 191 149ZM114 42C116.072 27.9384 127.745 17 142 17C157.71 17 171 29.8583 171 46C171 59.1286 164.137 69.3433 154 74V51C154 46.9905 153.297 42.6654 146 42C145.867 41.9877 145.133 42 145 42H114ZM121 56C121 54.2631 120.611 51.6383 121 50H145C145.271 50.0293 145.858 50.9712 146 51C146.023 51.1631 146 50.6779 146 51V77C144.953 77.1543 144.053 76.9994 143 77C142.99 77 143.009 77 143 77C131.072 76.9889 121 67.968 121 56ZM115 124L126 123C126.927 122.925 127.294 122.607 128 122L147 105C148.816 103.433 151.112 103 153 103C153.84 103 154.195 103.677 155 104C157.322 104.931 158.769 106.638 159 109C159.29 111.973 157.839 115.503 154 118L133 131H115V124ZM96.9998 125L106 124V131H94.9998C93.5262 131 93.042 130.029 92.9998 129C92.9758 128.417 93.5709 125.282 96.9998 125ZM85.9998 122C84.6762 124.173 83.8985 126.528 83.9998 129C84.0262 129.64 84.8861 130.399 84.9998 131C84.9998 131.012 84.9975 130.988 84.9998 131H62.9998V114L85.9998 122C86.0063 121.989 85.9928 122.012 85.9998 122ZM94.9998 140H134C134.849 140 135.288 139.463 136 139L138 138C138.957 142.235 140.813 146.107 142 150C133.037 152.649 119 161.391 119 189V212C115.917 212.623 112.051 213.803 109 217C105.784 220.37 103.44 225.331 103 231H93.9998C85.0666 205.218 81.9796 177.942 94.9998 140ZM102 251C100.376 247.259 99.474 243.741 97.9998 240H143C148.914 240 152 237.317 152 232V216V200H187C189.427 200 191 197.431 191 195C191 192.569 189.427 191 187 191H152C152.056 188.5 152.542 186.208 153 185C153.222 184.413 153.586 184 156 184H171C180.882 183.991 188.339 181.916 193 177C193.215 176.772 193.795 176.238 194 176H222H253V188C253 189.513 251.507 191 250 191H207C204.572 191 202 192.569 202 195C202 197.431 204.572 200 207 200H248C251.473 206.456 254.186 214.307 254 227C245.306 214.906 230.974 207 215 207C202.171 207 191.03 211.849 182 221C173.987 229.119 168.99 239.619 168 251H102ZM216 283C202.262 283 190.803 273.38 188 260H244C241.196 273.379 229.737 283 216 283ZM249 251H183H177C179.157 231.101 194.888 216 215 216C232.657 216 248.089 227.678 253 244C253.016 244.052 252.982 243.949 253 244C253.694 246.342 253.734 248.488 254 251H249ZM291 160C291 163.944 287.933 167 284 167H226V144H291V160ZM291 136H226V126H291V136ZM291 117H226V108C226 104.056 229.067 101 233 101H284C287.933 101 291 104.057 291 108V117Z" fill="#282B30"/>
</g>
<defs>
<clipPath id="clip0">
<rect width="300" height="300" fill="white"/>
</clipPath>
</defs>
</svg>
