<svg width="130" height="76" viewBox="0 0 130 76" fill="none" xmlns="http://www.w3.org/2000/svg">
<ellipse cx="3.63639" cy="3.90909" rx="3.40909" ry="3.40909" fill="#FE724E"/>
<ellipse cx="71.8182" cy="3.90909" rx="3.40908" ry="3.40909" fill="#FE724E"/>
<ellipse cx="3.63639" cy="17.5454" rx="3.40909" ry="3.40909" fill="#FE724E"/>
<ellipse cx="71.8182" cy="17.5454" rx="3.40908" ry="3.40909" fill="#FE724E"/>
<ellipse cx="3.63639" cy="31.1818" rx="3.40909" ry="3.40909" fill="#FE724E"/>
<ellipse cx="71.8182" cy="31.1818" rx="3.40908" ry="3.40909" fill="#FE724E"/>
<ellipse cx="3.63639" cy="44.8182" rx="3.40909" ry="3.40909" fill="#FE724E"/>
<ellipse cx="71.8182" cy="44.8182" rx="3.40908" ry="3.40909" fill="#FE724E"/>
<ellipse cx="3.63639" cy="72.0909" rx="3.40909" ry="3.40909" fill="#FE724E"/>
<ellipse cx="71.8182" cy="72.0909" rx="3.40908" ry="3.40909" fill="#FE724E"/>
<ellipse cx="3.63639" cy="58.4546" rx="3.40909" ry="3.40909" fill="#FE724E"/>
<ellipse cx="71.8182" cy="58.4546" rx="3.40908" ry="3.40909" fill="#FE724E"/>
<ellipse cx="17.2727" cy="3.90909" rx="3.40909" ry="3.40909" fill="#FE724E"/>
<ellipse cx="85.4546" cy="3.90909" rx="3.4091" ry="3.40909" fill="#FE724E"/>
<ellipse cx="17.2727" cy="17.5454" rx="3.40909" ry="3.40909" fill="#FE724E"/>
<ellipse cx="85.4546" cy="17.5454" rx="3.4091" ry="3.40909" fill="#FE724E"/>
<circle cx="17.2727" cy="31.1818" r="3.40909" fill="#FE724E"/>
<ellipse cx="85.4546" cy="31.1818" rx="3.4091" ry="3.40909" fill="#FE724E"/>
<ellipse cx="17.2727" cy="44.8182" rx="3.40909" ry="3.40909" fill="#FE724E"/>
<ellipse cx="85.4546" cy="44.8182" rx="3.4091" ry="3.40909" fill="#FE724E"/>
<ellipse cx="17.2727" cy="72.0909" rx="3.40909" ry="3.40909" fill="#FE724E"/>
<ellipse cx="85.4546" cy="72.0909" rx="3.4091" ry="3.40909" fill="#FE724E"/>
<ellipse cx="17.2727" cy="58.4546" rx="3.40909" ry="3.40909" fill="#FE724E"/>
<ellipse cx="85.4546" cy="58.4546" rx="3.4091" ry="3.40909" fill="#FE724E"/>
<ellipse cx="30.9091" cy="3.90909" rx="3.40909" ry="3.40909" fill="#FE724E"/>
<ellipse cx="99.091" cy="3.90909" rx="3.4091" ry="3.40909" fill="#FE724E"/>
<ellipse cx="30.9091" cy="17.5454" rx="3.40909" ry="3.40909" fill="#FE724E"/>
<ellipse cx="99.091" cy="17.5454" rx="3.4091" ry="3.40909" fill="#FE724E"/>
<ellipse cx="30.9091" cy="31.1818" rx="3.40909" ry="3.40909" fill="#FE724E"/>
<ellipse cx="99.091" cy="31.1818" rx="3.4091" ry="3.40909" fill="#FE724E"/>
<circle cx="30.9091" cy="44.8182" r="3.40909" fill="#FE724E"/>
<ellipse cx="99.091" cy="44.8182" rx="3.4091" ry="3.40909" fill="#FE724E"/>
<ellipse cx="30.9091" cy="72.0909" rx="3.40909" ry="3.40909" fill="#FE724E"/>
<ellipse cx="99.091" cy="72.0909" rx="3.4091" ry="3.40909" fill="#FE724E"/>
<circle cx="30.9091" cy="58.4546" r="3.40909" fill="#FE724E"/>
<ellipse cx="99.091" cy="58.4546" rx="3.4091" ry="3.40909" fill="#FE724E"/>
<ellipse cx="44.5455" cy="3.90909" rx="3.40909" ry="3.40909" fill="#FE724E"/>
<ellipse cx="112.727" cy="3.90909" rx="3.40908" ry="3.40909" fill="#FE724E"/>
<ellipse cx="44.5455" cy="17.5454" rx="3.40909" ry="3.40909" fill="#FE724E"/>
<ellipse cx="112.727" cy="17.5454" rx="3.40908" ry="3.40909" fill="#FE724E"/>
<ellipse cx="44.5455" cy="31.1818" rx="3.40909" ry="3.40909" fill="#FE724E"/>
<ellipse cx="112.727" cy="31.1818" rx="3.40908" ry="3.40909" fill="#FE724E"/>
<ellipse cx="44.5455" cy="44.8182" rx="3.40909" ry="3.40909" fill="#FE724E"/>
<ellipse cx="112.727" cy="44.8182" rx="3.40908" ry="3.40909" fill="#FE724E"/>
<ellipse cx="44.5455" cy="72.0909" rx="3.40909" ry="3.40909" fill="#FE724E"/>
<ellipse cx="112.727" cy="72.0909" rx="3.40908" ry="3.40909" fill="#FE724E"/>
<ellipse cx="44.5455" cy="58.4546" rx="3.40909" ry="3.40909" fill="#FE724E"/>
<ellipse cx="112.727" cy="58.4546" rx="3.40908" ry="3.40909" fill="#FE724E"/>
<ellipse cx="58.1819" cy="3.90909" rx="3.40909" ry="3.40909" fill="#FE724E"/>
<ellipse cx="126.364" cy="3.90909" rx="3.40909" ry="3.40909" fill="#FE724E"/>
<ellipse cx="58.1819" cy="17.5454" rx="3.40909" ry="3.40909" fill="#FE724E"/>
<ellipse cx="126.364" cy="17.5454" rx="3.40909" ry="3.40909" fill="#FE724E"/>
<circle cx="58.1819" cy="31.1818" r="3.40909" fill="#FE724E"/>
<ellipse cx="126.364" cy="31.1818" rx="3.40909" ry="3.40909" fill="#FE724E"/>
<ellipse cx="58.1819" cy="44.8182" rx="3.40909" ry="3.40909" fill="#FE724E"/>
<ellipse cx="126.364" cy="44.8182" rx="3.40909" ry="3.40909" fill="#FE724E"/>
<ellipse cx="58.1819" cy="72.0909" rx="3.40909" ry="3.40909" fill="#FE724E"/>
<circle cx="126.364" cy="72.0909" r="3.40909" fill="#FE724E"/>
<ellipse cx="58.1819" cy="58.4546" rx="3.40909" ry="3.40909" fill="#FE724E"/>
<ellipse cx="126.364" cy="58.4546" rx="3.40909" ry="3.40909" fill="#FE724E"/>
</svg>
