<svg width="50" height="50" viewBox="0 0 50 50" fill="none" xmlns="http://www.w3.org/2000/svg">
<path d="M6.25 35.4165C6.25 36.5672 7.18281 37.5 8.3335 37.5H41.6665C42.8172 37.5 43.75 36.5672 43.75 35.4165V35.4165C43.75 34.2658 42.8172 33.333 41.6665 33.333H8.3335C7.18281 33.333 6.25 34.2658 6.25 35.4165V35.4165ZM6.25 25C6.25 26.1504 7.18259 27.083 8.33301 27.083H41.667C42.8174 27.083 43.75 26.1504 43.75 25V25C43.75 23.8496 42.8174 22.917 41.667 22.917H8.33301C7.18259 22.917 6.25 23.8496 6.25 25V25ZM8.3335 12.5C7.18281 12.5 6.25 13.4328 6.25 14.5835V14.5835C6.25 15.7342 7.18281 16.667 8.3335 16.667H41.6665C42.8172 16.667 43.75 15.7342 43.75 14.5835V14.5835C43.75 13.4328 42.8172 12.5 41.6665 12.5H8.3335Z" fill="#fff"/>
</svg>
