<svg width="271" height="319" viewBox="0 0 271 319" fill="none" xmlns="http://www.w3.org/2000/svg">
<path d="M249 68C254.7 69.182 260.703 69.0635 265 73C266.641 74.5125 268.126 76.9493 269 79C269.874 81.0507 270.047 82.7724 270 85V86C269.445 96.9746 259.214 103.851 250 110C249.661 110.236 249.407 110.927 249 111C248.593 111.073 248.401 111.103 248 111C247.599 110.897 247.321 110.26 247 110C246.679 109.74 246.183 109.37 246 109C245.561 108.929 245.363 109.257 245 109C244.722 108.801 244.171 108.296 244 108C243.829 107.704 244.034 107.339 244 107C243.966 106.661 243.891 106.323 244 106C244.109 105.677 243.767 105.25 244 105C244.286 104.505 245 104.571 245 104C245 103.429 244.286 102.495 244 102C242.499 98.5189 238.862 97.347 235 97C230.214 96.5771 224.732 97.0194 220 96C215.921 95.2251 212.606 93.2227 210 90C208.102 87.3132 206.165 84.0738 205 81C203.803 78.2347 203.306 76.1689 201 74C199.906 72.9903 198.431 72.4168 197 72C194.794 71.4798 192.225 70.5656 190 71C185.148 71.7483 180.645 74.6661 176 76C171.219 77.3565 166.903 77.8138 162 77C153.526 75.6553 143.572 70.9961 135 74C126.428 77.0039 121.789 84.8791 114 89C109.781 91.4008 104.837 92.4456 100 92C95.6379 91.4903 91.9161 89.5941 88 88C84.6604 86.6661 80.4266 84.8505 77 86C74.0303 86.9977 72.1756 89.8311 70 92C67.5975 94.6466 65.0061 97.061 62 99C48.0604 102.893 17.3241 106.87 4.99999 92C-10.4052 73.4126 16.5766 45.4356 20 27C22.7387 12.2515 46.6373 8.14548 58 8C63.1683 2.84569 69.6896 0.0257365 77 0H86C87.9883 0.996185 90.1712 1.7361 92 3C96.0466 5.72196 99.7575 9.56 104 12C108.464 14.6686 113.832 15.616 119 15C125.668 14.2734 130.952 10.6894 137 8C143.048 5.31058 150.201 3.60729 157 3C157.958 2.90461 158.037 2.99854 159 3C164.052 2.95247 169.757 4.26451 174 7C178.155 9.7328 180.737 13.4972 184 17C187.057 20.2642 190.442 23.3733 195 25C200.047 26.7893 205.681 26.4578 211 27C216.602 27.5531 222.964 28.4972 227 32C231.036 35.5028 232.76 40.2935 234 45C235.24 49.7065 235.879 55.4779 238 60C238.86 61.9641 240.421 63.5455 242 65C243.989 66.6123 246.47 67.5871 249 68Z" fill="#FFC42B"/>
<path d="M188 201L190 202L188 204L187 202L185 204L183 202L185 201L183 199L185 197L187 199L188 197L190 199L188 201Z" fill="white"/>
<path d="M198 187C197.129 187 195.724 186.484 195 186C194.276 185.516 193.333 184.805 193 184C192.667 183.195 192.83 182.854 193 182C193.17 181.146 193.384 179.616 194 179C194.616 178.384 196.146 178.17 197 178C197.854 177.83 198.195 177.667 199 178C199.804 178.333 200.516 179.276 201 180C201.484 180.724 202 182.129 202 183C202 184.168 201.826 185.174 201 186C200.174 186.826 199.168 187 198 187ZM195 183C195 183.546 194.697 183.546 195 184C195.303 184.454 195.496 184.791 196 185C196.504 185.209 197.465 185.107 198 185C198.535 184.894 198.614 184.386 199 184C199.386 183.614 199.893 183.535 200 183C200.106 182.465 200.209 181.504 200 181C199.791 180.496 199.453 180.303 199 180C198.546 179.697 198.545 180 198 180C197.268 180 196.517 180.483 196 181C195.482 181.517 195 182.268 195 183Z" fill="#FFC42B"/>
<path d="M206.059 197.597L211 201L214.414 196.066L209.473 192.663L206.059 197.597Z" fill="#FFC42B"/>
<path d="M201 215C203.209 215 205 213.209 205 211C205 208.791 203.209 207 201 207C198.791 207 197 208.791 197 211C197 213.209 198.791 215 201 215Z" fill="#FFC42B"/>
<path d="M226 210C227.381 210 228 208.381 228 207C228 205.619 227.381 205 226 205C224.619 205 223 205.619 223 207C223 208.381 224.619 210 226 210Z" fill="white"/>
<path d="M104 173C103.129 173 101.724 172.484 101 172C100.276 171.516 99.3332 170.805 98.9999 170C98.6667 169.195 98.83 168.854 98.9999 168C99.1698 167.146 99.3841 165.616 99.9999 165C100.616 164.384 102.146 164.17 103 164C103.854 163.83 104.195 163.667 105 164C105.805 164.333 106.516 165.276 107 166C107.484 166.724 108 167.129 108 168C108 169.168 107.826 171.174 107 172C106.174 172.826 105.168 173 104 173ZM101 168C100.998 168.548 100.697 169.543 101 170C101.303 170.457 101.494 170.789 102 171C102.506 171.211 103.462 171.106 104 171C104.538 170.894 104.612 171.387 105 171C105.388 170.613 105.892 169.537 106 169C106.108 168.463 106.209 167.507 106 167C105.791 166.493 105.456 166.305 105 166C104.544 165.695 104.548 166 104 166C103.637 165.999 102.336 165.862 102 166C101.664 166.138 101.257 166.744 101 167C100.743 167.256 101.139 166.665 101 167C100.861 167.335 101 167.637 101 168Z" fill="#FFC42B"/>
<path d="M90.0586 182.597L95 186L98.4143 181.066L93.4729 177.663L90.0586 182.597Z" fill="white"/>
<path d="M103 200C105.209 200 107 198.209 107 196C107 193.791 105.209 192 103 192C100.791 192 99 193.791 99 196C99 198.209 100.791 200 103 200Z" fill="#FFC42B"/>
<path d="M113 182C114.381 182 116 181.381 116 180C116 178.619 114.381 177 113 177C111.619 177 111 178.619 111 180C111 181.381 111.619 182 113 182Z" fill="white"/>
<path d="M175 291C174.558 292.113 175.266 293.046 176 294C180.7 299.979 187.399 303.85 195 305L196 304C196 303.703 196 303.297 196 303C194.426 299.369 191.771 296.857 189 294C187.59 292.553 185.871 290.797 184 290C182.129 289.203 180.039 289.022 178 289C176.684 289.106 175.475 289.845 175 291Z" fill="white"/>
<path d="M180 273C179.765 273.443 179.945 273.501 180 274C180.148 279.455 184.033 284.303 188 288C190.37 290.21 193.203 292.378 196 294C196.668 291.503 196.06 288.39 195 286C192.815 280.725 188.518 276.443 184 273C183.454 272.538 182.685 272.195 182 272C181.657 271.918 181.333 271.882 181 272C180.667 272.118 180.217 272.72 180 273Z" fill="white"/>
<path d="M182 261C181.935 262.742 182.154 264.488 183 266C185.887 271.825 191.023 276.74 197 279C196.083 273.941 193.918 269.185 191 265C189.467 262.569 187.548 260.244 185 259C184.633 258.813 184.409 258.98 184 259C183.031 259.099 182.118 259.929 182 261Z" fill="white"/>
<path d="M199 267C199.005 266.92 199.005 267.08 199 267C198.281 261.149 195.46 254.891 191 251C190.624 250.673 190.426 251.259 190 251C189.657 250.768 188.406 250.082 188 250C187.594 249.918 187.407 249.92 187 250C186.673 252.374 186.868 254.884 188 257C189.128 259.103 191.365 261.256 193 263C194.611 264.816 196.601 266.543 199 267C198.936 267.021 199.065 267.018 199 267C198.959 267.054 199.064 266.979 199 267Z" fill="white"/>
<path d="M189 246C188.751 246.142 188.11 246.74 188 247C187.89 247.259 187.927 247.728 188 248C188.296 249.221 188.952 250.27 190 251C191.638 252.324 193.976 253.361 196 254C196.641 254.245 197.321 254.11 198 254C197.933 253.665 198.066 253.346 198 253C196.025 250.178 193.189 247.419 190 246C189.641 245.807 189.394 245.89 189 246Z" fill="white"/>
<path d="M196 247C196.279 244.683 195.574 242.26 195 240C194.383 237.544 192.885 235.65 191 234C190.435 233.511 189.586 232.532 189 233C188.797 233.229 189.062 233.698 189 234C188.938 234.302 188.904 234.708 189 235C189.732 239.491 192.654 243.992 196 247Z" fill="white"/>
<path d="M196 304C196 304.558 195.957 305.453 196 306C200.37 306.229 205.02 305.741 209 304C210.213 303.579 210.996 302.776 212 302C212.498 301.607 212.708 300.551 213 300C213.292 299.449 213.964 299.617 214 299C214.019 298.515 214.272 297.41 214 297C213.618 296.59 212.539 296.189 212 296C211.461 295.811 210.568 295.924 210 296C206.96 296.147 204.475 297.306 202 299C199.779 300.499 197.714 301.983 196 304Z" fill="white"/>
<path d="M196 295C196 295.471 196.021 295.529 196 296C196.28 296.082 196.72 296.082 197 296C201.029 295.206 205.32 293.857 209 292C210.891 291.126 212.524 289.492 214 288C214.734 287.249 214.605 286.982 215 286C215.395 285.018 216.006 283.062 216 282C216.002 281.455 216.308 281.444 216 281C215.673 280.624 214.48 280.108 214 280C211.98 279.612 209.71 279.834 208 281C202.834 283.976 199.38 290.021 196 295Z" fill="white"/>
<path d="M197 279C197 279.258 197.088 279.753 197 280C200.177 279.439 204.15 278.477 207 277C210.311 275.323 213.139 272.473 214 269C214.145 268.593 214.057 268.428 214 268C213.943 267.573 214.248 267.357 214 267C213.227 266.108 211.159 265.613 210 266C207.181 267.042 204.953 268.762 203 271C201.064 273.24 199.531 276.48 198 279H197C197 278.968 197 279 197 279Z" fill="white"/>
<path d="M199 254C199 254.148 199.087 253.852 199 254C201.123 253.567 203.165 253.124 205 252C205.914 251.435 206.435 249.898 207 249C207.565 248.102 207.9 247.048 208 246C208.04 245.75 208.104 246.232 208 246C207.896 245.768 207.216 245.141 207 245C206.783 244.929 207.226 244.964 207 245C205.289 245.36 203.256 245.814 202 247C200.219 248.436 198.315 250.794 198 253L199 254Z" fill="white"/>
<path d="M204 259C201.829 261.789 200.091 264.607 199 268C201.651 267.854 203.976 266.768 206 265C208.178 263.056 209.784 260.691 211 258C211.537 257.127 212.191 256.014 212 255C211.926 254.712 211.233 254.178 211 254C210.599 253.772 210.443 253.879 210 254C207.469 254.421 205.605 256.927 204 259Z" fill="white"/>
<path d="M197 280C198.181 268.733 198.469 257.907 195 247C194.807 246.399 195.807 245.399 196 246C199.394 256.678 199.106 267.94 198 279C196.808 290.879 195.611 304.165 194 316C193.914 316.622 192.903 316.611 193 316C194.568 304.46 195.776 291.573 197 280Z" fill="white"/>
<path d="M239 285C238.655 285.676 237.577 286.505 237 287C235.99 287.806 235.165 288.439 234 289L230 291C228.712 291.675 227.244 292.249 226 293C224.909 293.653 223.847 294.651 224 296C224.153 297.349 225.898 297.826 227 298C228.362 298.023 229.651 297.813 231 298C231.52 298.163 231.589 298.643 232 299C232.411 299.357 232.766 299.509 233 300C233.234 300.491 232.983 301.457 233 302C233.017 302.543 233.202 302.495 233 303C232.171 305.317 230.237 307.086 228 308C225.618 308.883 222.525 309.712 220 310C215.286 310.707 210.263 311.312 207 315C206.738 315.283 205.738 314.305 206 314H207C205.308 311.914 203.448 310.262 202 308C200.5 305.699 199.233 303.453 198 301C197.378 299.771 196.546 298.273 196 297C195.454 295.837 195.125 294.278 195 293C194.874 291.97 195.434 290.871 196 290C196.566 289.129 197.005 288.306 198 288C199.964 287.543 201.832 289.597 203 291C203.371 291.457 203.629 291.597 204 292C204.786 292.914 205.712 294.207 207 294C207.534 293.872 207.663 293.433 208 293C208.337 292.567 209.008 291.548 209 291C208.975 289.76 208.688 289.034 208 288C207.357 286.831 206.483 285.243 206 284C205.046 281.536 204.991 279.641 205 277C204.974 276.38 204.779 275.58 205 275C205.221 274.42 205.567 273.446 206 273C206.391 272.636 206.475 273.102 207 273C207.525 272.898 208.501 272.809 209 273C211.313 273.881 211.501 276.467 214 277C215.364 277.283 216.033 276.164 216 275C215.887 273.725 215.724 273.058 215 272C213.702 269.9 211.633 267.426 211 265C210.666 263.925 210.547 263.03 211 262C211.436 261.117 213.108 260.42 214 260C214.45 259.793 214.506 259.973 215 260C215.494 260.027 215.575 259.747 216 260C217.091 260.653 218.018 262.249 219 263C219.441 263.381 220.417 263.018 221 263C221.273 262.973 220.807 263.195 221 263C221.193 262.805 221.976 262.273 222 262C222.055 260.727 220.567 259.11 220 258C218.676 255.47 217.928 253.699 217 251C216.48 249.795 215.808 248.298 216 247C216.115 246.497 216.664 245.392 217 245C217.336 244.608 217.519 244.191 218 244C218.478 243.845 219.511 243.883 220 244C220.489 244.117 220.644 244.645 221 245C221.633 245.533 222.04 247.109 223 247C224.288 246.859 224.978 244.925 225 244C225 242.586 224.967 241.414 225 240C224.927 238.925 224.587 236.996 225 236C225.413 235.004 226.187 234.711 227 234C227.868 233.404 228.954 232.87 230 233C231.046 233.13 232.306 233.209 233 234C234.8 235.839 234.415 238.639 234 241C233.76 242.327 233.196 243.673 233 245C232.846 245.619 232.78 246.401 233 247C233.22 247.599 234.482 247.626 235 248C235.456 248.176 235.512 249.022 236 249C236.488 248.978 236.562 248.217 237 248C237.814 247.633 239.107 248.028 240 248C240.428 248.028 240.665 247.734 241 248C241.335 248.266 241.877 248.591 242 249C242.201 250.041 241.518 251.074 241 252C239.966 254.344 239.024 256.424 237 258C236.073 258.718 234.382 259.814 234 261C233.902 261.225 233.972 261.756 234 262C234.029 262.244 233.853 261.803 234 262C234.147 262.197 234.774 262.904 235 263C235.226 263.096 235.756 263.03 236 263C237.571 262.869 238.931 261.053 240 263C240.363 263.813 241.314 265.167 241 266C240.614 267.042 239.684 268.124 239 269C237.444 271.179 235.133 272.378 233 274C231.959 274.642 231.622 275.949 231 277C230.444 278.219 230.734 278.75 232 279C233.266 279.25 234.712 278.891 236 279C236.541 279.028 237.54 279.715 238 280C238.46 280.285 238.736 280.528 239 281C239.306 281.573 239.011 282.351 239 283C238.989 283.649 239.326 284.438 239 285Z" fill="#FFC42B"/>
<path d="M228 256C228.697 250.717 229.327 245.319 229 240C229 239.325 229.054 238.675 229 238C228.991 237.916 229.065 238.053 229 238C228.934 237.947 228.084 237.991 228 238C227.916 238.009 228.053 237.935 228 238C227.947 238.065 227.991 237.916 228 238C228.472 243.335 228.595 248.677 228 254C227.407 259.301 226.415 264.857 225 270C223.559 275.248 222.063 280.965 220 286C217.93 291.128 215.483 296.046 213 301C210.516 305.954 207.571 311.09 205 316L204 318C203.815 318.348 204.815 318.348 205 318C207.625 313.068 209.483 307.997 212 303C214.516 298.003 217.843 293.15 220 288C222.103 282.986 223.475 277.219 225 272C226.502 266.816 227.312 261.354 228 256Z" fill="white"/>
<path d="M224 301L209 309C207.408 303.592 205.584 298.015 203 293C202.817 292.658 201.817 292.647 202 293C204.645 298.131 206.398 304.46 208 310C208 310.214 208.849 310.075 209 310L225 301C225.344 300.797 224.344 300.818 224 301Z" fill="white"/>
<path d="M231 284L218 292C216.491 287.518 214.504 283.052 212 279C211.79 278.662 210.79 278.652 211 279C213.539 283.114 215.504 288.441 217 293C217.019 293.042 216.964 292.97 217 293C217.036 293.03 216.954 292.987 217 293C217.046 293.013 217.952 293.007 218 293C218.047 292.993 217.96 293.025 218 293L232 284C232.341 283.8 231.341 283.8 231 284Z" fill="white"/>
<path d="M231 268C228.612 270.759 225.893 273.746 223 276C221.793 272.538 221.055 269.059 219 266C218.789 265.681 217.789 265.671 218 266C220.103 269.14 221.799 273.437 223 277C223.018 277.041 222.965 276.97 223 277C223.035 277.03 222.956 276.987 223 277C223.044 277.013 222.954 277.007 223 277C223.046 276.993 223.962 277.025 224 277C227.053 274.646 229.485 271.898 232 269C232.243 268.712 231.243 267.722 231 268Z" fill="white"/>
<path d="M234 254C231.858 255.808 228.884 257.922 227 260L223 251C222.813 250.646 221.813 250.646 222 251C223.612 254.043 225.388 257.964 227 261C227.021 261.052 226.957 260.965 227 261C227.043 261.035 226.945 260.99 227 261C227.055 261.01 226.947 261.018 227 261C227.053 260.982 227.962 261.041 228 261C229.936 258.831 231.778 256.871 234 255C234.264 254.746 234.308 253.746 234 254Z" fill="white"/>
<path d="M266 283C262.421 293.248 254.151 304.082 245 310C234.984 316.527 223.811 316.751 212 315C210.32 314.768 208.611 314.528 207 314C207.262 312.297 207.424 310.625 208 309C210.563 301.478 214.975 295.217 221 290C227.025 284.783 235.152 281.494 243 280C250.914 278.51 259.027 279.018 266 283Z" fill="white"/>
<path d="M262 284C256.756 285.587 252.028 287.831 247 290C247.087 289.645 246.902 289.366 247 289C247.325 288.01 247.664 286.99 248 286C248.195 285.387 247.206 284.322 247 285L246 289C245.802 289.466 246.039 289.496 246 290C244.135 290.829 241.833 292.107 240 293C237.831 294.076 236.071 294.838 234 296C234.694 293.493 235.306 290.518 236 288C236.173 287.376 235.184 287.311 235 288L233 297C229.118 299.195 224.673 301.461 221 304C221.954 300.879 223.038 297.121 224 294C224.184 293.376 223.184 293.376 223 294C221.937 297.444 221.055 300.549 220 304C219.984 304.093 219.984 304.908 220 305C216.367 307.572 212.373 310.095 209 313C208.501 313.431 209.501 314.431 210 314C213.503 310.966 217.205 307.68 221 305L232 309C232.618 309.183 232.694 308.183 232 308L222 305C224.256 303.44 226.647 301.442 229 300C230.28 299.225 231.699 298.743 233 298L243 302C243.062 302.026 243.933 301.999 244 302C244.067 302.001 243.938 302.025 244 302C244.062 301.975 243.952 302.047 244 302C244.048 301.953 243.974 302.062 244 302C244.026 301.939 243.999 302.067 244 302C244.001 301.933 244.025 301.062 244 301C243.975 300.938 244.047 301.048 244 301C243.953 300.952 244.062 301.026 244 301L234 297C237.947 294.791 241.85 292.815 246 291C246.083 291.1 245.896 290.922 246 291C246.393 291.257 247.557 291.842 248 292L249 293L253 294C253.062 294.026 252.933 293.999 253 294C253.067 294.001 252.938 294.025 253 294C253.062 293.975 252.952 294.047 253 294C253.048 293.953 253.974 294.062 254 294C254.026 293.939 253.999 294.067 254 294C254.001 293.933 254.025 293.062 254 293C253.975 292.938 253.047 293.048 253 293C252.953 292.952 253.062 293.026 253 293L250 292C249.046 291.602 247.933 291.452 247 291C247.976 290.58 249.013 289.398 250 289C254.099 287.343 258.764 286.277 263 285C263.596 284.882 262.618 283.806 262 284Z" fill="#FFC42B"/>
<path d="M157 290C157.426 291.096 156.713 292.036 156 293C151.53 298.986 145.245 302.838 138 304L137 303V302C138.499 298.374 140.361 295.853 143 293C144.347 291.554 146.215 289.798 148 289C149.785 288.202 152.055 288.025 154 288C155.245 288.022 156.553 288.838 157 290Z" fill="white"/>
<path d="M152 274C152.215 274.427 152.047 274.522 152 275C151.856 280.208 148.731 284.475 145 288C142.78 290.113 139.622 292.448 137 294C136.371 291.619 137.031 289.276 138 287C140.053 281.966 143.756 277.285 148 274C148.509 273.555 149.355 273.182 150 273C150.324 272.916 150.684 272.889 151 273C151.316 273.111 151.793 273.73 152 274Z" fill="white"/>
<path d="M150 262C150.074 263.658 149.853 265.564 149 267C146.114 272.537 140.976 276.852 135 279C135.913 274.191 138.075 269.973 141 266C142.519 263.697 144.468 261.185 147 260C147.368 259.827 147.592 259.992 148 260C149.036 260.087 149.889 260.989 150 262Z" fill="white"/>
<path d="M134 267C133.995 266.922 133.995 267.078 134 267C134.657 261.492 137.892 255.658 142 252C142.344 251.689 142.608 252.246 143 252C143.316 251.782 143.625 251.076 144 251C144.374 250.923 144.626 250.923 145 251C145.304 253.237 145.043 256.006 144 258C142.955 259.975 141.504 261.358 140 263C138.518 264.717 136.254 266.576 134 267C134.052 267.019 133.946 267.012 134 267C134.034 267.044 133.948 266.981 134 267Z" fill="white"/>
<path d="M143 247C143.221 247.143 143.901 247.741 144 248C144.099 248.258 144.063 248.729 144 249C143.733 250.229 142.951 251.272 142 252C140.532 253.323 138.815 254.361 137 255C136.423 255.248 135.613 255.109 135 255C135 254.652 134.938 254.347 135 254C136.783 251.193 139.139 248.41 142 247C142.322 246.799 142.638 246.907 143 247Z" fill="white"/>
<path d="M136 248C135.726 245.849 136.434 244.1 137 242C137.623 239.718 139.116 237.539 141 236C141.563 235.55 142.415 234.571 143 235C143.201 235.216 142.938 235.718 143 236C143.062 236.282 143.093 236.726 143 237C142.26 241.17 139.343 245.2 136 248Z" fill="white"/>
<path d="M137 303C137 303.546 137.042 304.422 137 305C132.876 305.227 128.758 304.738 125 303C123.852 302.577 122.948 301.782 122 301C121.527 300.607 120.276 299.553 120 299C119.724 298.447 120.033 298.619 120 298C119.993 297.516 119.745 296.41 120 296C120.363 295.592 121.49 295.187 122 295C122.51 294.813 122.464 294.921 123 295C125.868 295.148 128.666 296.303 131 298C133.095 299.498 135.383 300.983 137 303Z" fill="white"/>
<path d="M136 293C136 293.436 135.979 293.564 136 294C135.732 294.08 135.268 294.08 135 294C131.172 293.262 127.494 291.747 124 290C122.202 289.181 120.402 288.404 119 287C118.303 286.295 118.374 284.922 118 284C117.626 283.078 116.993 281.997 117 281C117.006 280.492 116.705 280.412 117 280C117.314 279.646 118.541 279.102 119 279C120.919 278.636 122.379 278.9 124 280C128.86 282.745 132.76 288.319 136 293Z" fill="white"/>
<path d="M135 279C135 279.256 134.925 279.744 135 280C132.002 279.434 128.693 278.476 126 277C122.952 275.32 119.816 272.482 119 269C118.863 268.593 118.946 268.427 119 268C119.054 267.573 118.767 267.356 119 267C119.73 266.11 121.927 265.611 123 266C125.646 267.046 128.167 268.762 130 271C131.829 273.231 132.565 276.479 134 279H135C134.98 278.969 135.008 279.036 135 279Z" fill="white"/>
<path d="M134 255C134 255.142 133.91 254.858 134 255C131.87 254.564 129.846 254.119 128 253C127.085 252.432 126.565 250.9 126 250C125.435 249.1 125.1 248.049 125 247C124.956 246.751 124.896 247.231 125 247C125.104 246.769 125.782 246.137 126 246C126.217 245.926 125.773 245.962 126 246C127.704 246.362 129.758 246.812 131 248C132.793 249.432 134.684 251.759 135 254L134 255Z" fill="white"/>
<path d="M130 258C132.167 260.591 133.907 263.851 135 267C132.351 266.871 130.022 265.642 128 264C125.821 262.195 124.209 260.502 123 258C122.453 257.193 121.803 255.943 122 255C122.08 254.738 122.776 254.168 123 254C123.399 253.783 123.557 253.885 124 254C126.531 254.426 128.394 256.081 130 258Z" fill="white"/>
<path d="M136 280C134.812 269.022 134.547 258.583 138 248C138.2 247.407 137.189 246.418 137 247C133.603 257.374 133.89 268.253 135 279C136.188 290.538 137.39 303.539 139 315C139.078 315.604 140.144 315.604 140 315C138.412 303.792 137.177 291.241 136 280Z" fill="white"/>
<path d="M96 284C96.3304 284.653 96.4448 285.524 97 286C97.9763 286.773 99.877 287.463 101 288L104 290C105.233 290.65 106.81 291.275 108 292C109.017 292.628 110.141 293.701 110 295C109.859 296.299 109.06 295.838 108 296C106.693 296.025 105.295 296.823 104 297C103.503 297.16 102.392 297.655 102 298C101.608 298.345 102.222 298.527 102 299C101.778 299.473 101.015 299.477 101 300C100.985 300.523 100.806 301.515 101 302C101.779 304.22 104.88 305.134 107 306C109.277 306.853 111.585 307.724 114 308C118.522 308.682 123.874 309.46 127 313C127.249 313.282 127.249 313.282 127 313V312C128.613 310.004 129.6 308.152 131 306C132.434 303.788 133.826 301.361 135 299C135.606 297.809 136.481 297.223 137 296C137.519 294.879 137.875 293.23 138 292C138.121 291.009 137.542 289.839 137 289C136.458 288.161 135.953 287.297 135 287C133.107 286.567 132.093 288.701 131 290C130.643 290.444 130.389 290.61 130 291C129.254 291.877 128.255 293.195 127 293C126.49 292.874 125.324 292.414 125 292C124.676 291.586 124.999 290.526 125 290C125.044 288.803 125.337 287.998 126 287C126.617 285.875 126.537 284.197 127 283C127.914 280.635 129.006 278.536 129 276C129.028 275.402 129.214 274.559 129 274C128.786 273.441 128.42 273.426 128 273C127.627 272.651 126.501 272.098 126 272C125.499 271.902 125.476 271.816 125 272C122.836 272.845 121.412 276.48 119 277C117.691 277.282 117.957 276.126 118 275C118.103 273.776 118.302 272.011 119 271C120.233 268.975 121.394 267.317 122 265C122.315 263.972 122.434 262.984 122 262C121.592 261.142 120.864 260.394 120 260C119.572 259.801 119.471 259.976 119 260C118.528 260.025 117.405 259.757 117 260C115.918 260.628 115.93 262.285 115 263C114.576 263.371 113.563 263.016 113 263C112.727 262.958 113.179 263.211 113 263C112.821 262.789 112.997 262.277 113 262C113 260.777 113.448 259.072 114 258C115.269 255.558 116.108 253.604 117 251C117.498 249.841 118.187 248.248 118 247C117.89 246.516 117.322 246.377 117 246C116.678 245.623 116.46 245.184 116 245C115.543 244.852 114.467 244.889 114 245C113.533 245.111 113.342 245.663 113 246C112.394 246.531 111.909 247.097 111 247C109.756 246.87 109.022 244.888 109 244C109 242.636 110.022 241.364 110 240C110.05 238.982 109.399 237.938 109 237C108.601 236.062 107.768 235.669 107 235C106.171 234.433 104.996 233.874 104 234C103.003 234.126 102.663 234.245 102 235C100.269 236.765 99.5997 239.726 100 242C100.227 243.278 100.816 244.722 101 246C101.154 246.597 101.21 247.42 101 248C100.789 248.58 100.501 248.641 100 249C99.564 249.172 99.4681 249.022 99 249C98.5319 248.978 97.4176 249.213 97 249C96.2174 248.657 95.854 248.029 95 248C94.5894 248.022 94.3218 248.744 94 249C93.6782 249.256 93.1139 249.605 93 250C92.8071 250.999 93.5066 252.111 94 253C94.991 255.254 96.0585 256.487 98 258C98.887 258.704 100.611 259.874 101 261C101.067 261.21 101.04 260.783 101 261C100.96 261.217 100.138 261.828 100 262C99.8616 262.172 100.203 261.915 100 262C99.7967 262.086 99.2194 263.021 99 263C97.4962 262.881 95.0277 261.116 94 263C93.8263 263.385 94.0111 263.578 94 264C93.9888 264.422 93.8468 264.607 94 265C94.3646 266.004 95.3398 267.161 96 268C97.483 270.098 98.9555 272.445 101 274C101.996 274.619 103.404 274.99 104 276C104.53 277.169 103.212 278.751 102 279C100.771 279.07 99.2286 279.07 98 279C97.4825 279.031 97.4401 278.726 97 279C96.5598 279.274 96.2564 279.549 96 280C95.7054 280.549 95.9924 281.377 96 282C96.0075 282.623 95.6921 283.458 96 284Z" fill="#FFC42B"/>
<path d="M106 258C105.332 252.907 104.684 247.128 105 242C105 241.359 104.935 240.641 105 240C105.018 239.93 104.941 240.041 105 240C105.059 239.959 105.929 239.993 106 240C106.071 240.006 105.95 239.949 106 240C106.05 240.051 105.995 239.928 106 240C105.54 245.144 105.433 250.867 106 256C106.57 261.1 107.65 266.051 109 271C110.388 276.055 112.026 281.145 114 286C115.989 290.941 118.655 295.221 121 300C123.345 304.779 125.493 310.265 128 315L129 317C129.173 317.337 128.173 317.337 128 317C125.482 312.243 123.399 306.822 121 302C118.601 297.178 116.064 292.996 114 288C111.981 283.169 110.465 278.029 109 273C107.555 268.028 106.677 263.135 106 258Z" fill="white"/>
<path d="M109 300L124 308C125.509 302.9 127.54 297.726 130 293C130.169 292.666 131.169 292.666 131 293C128.49 297.824 126.522 303.789 125 309C124.947 309.198 124.148 309.083 124 309L109 301C108.619 300.822 108.693 299.833 109 300Z" fill="white"/>
<path d="M103 284L117 292C118.436 287.552 119.649 283.031 122 279C122.205 278.663 123.194 278.663 123 279C120.605 283.119 118.412 288.44 117 293C116.982 293.043 117.034 292.969 117 293C116.966 293.031 117.044 292.986 117 293C116.956 293.014 117.046 293.007 117 293C116.954 292.993 117.038 293.026 117 293L103 284C102.677 283.793 102.677 283.804 103 284Z" fill="white"/>
<path d="M103 268C105.391 270.813 108.113 273.694 111 276C112.212 272.465 112.95 269.128 115 266C115.045 265.935 115.922 266.014 116 266C116.078 265.986 115.935 265.955 116 266C116.065 266.045 115.986 265.923 116 266C116.014 266.077 116.045 265.935 116 266C113.901 269.207 112.205 273.365 111 277C110.981 277.042 111.035 276.97 111 277C110.965 277.03 111.044 276.987 111 277C110.956 277.013 111.046 277.006 111 277C110.954 276.994 110.039 277.024 110 277C106.953 274.608 104.521 271.936 102 269C101.76 268.652 102.76 267.707 103 268Z" fill="white"/>
<path d="M100 255C101.963 256.621 104.272 258.138 106 260L110 252C110.177 251.682 111.177 251.672 111 252L106 261C105.98 261.045 106.04 260.969 106 261C105.96 261.031 106.05 260.992 106 261C105.95 261.008 106.048 261.016 106 261C105.952 260.984 106.034 261.037 106 261C104.224 259.06 102.032 256.679 100 255C99.7391 254.774 99.7391 254.713 100 255Z" fill="white"/>
<path d="M69 283C72.4592 293.004 80.155 303.217 89 309C98.677 315.321 109.593 315.704 121 314C122.624 313.778 124.441 313.51 126 313C125.741 311.34 125.55 309.587 125 308C122.528 300.654 117.822 295.093 112 290C106.178 284.906 99.585 281.452 92 280C84.3482 278.516 75.7323 279.108 69 283Z" fill="white"/>
<path d="M73 284C78.04 285.531 83.1679 286.907 88 289C87.9027 288.664 87.1328 288.323 87 288L86 286C85.8057 285.398 86.8057 284.409 87 285L88 288C88.1943 288.447 88.9657 289.515 89 290C90.799 290.795 92.201 291.133 94 292C96.04 293.01 98.0139 294.861 100 296C99.3307 293.585 98.6764 290.422 98 288C97.838 287.398 98.838 287.387 99 288C99.7771 290.773 100.223 293.227 101 296C104.735 298.15 108.481 300.549 112 303L110 294C109.816 293.398 109.816 293.387 110 294C111.015 297.318 112.978 300.668 114 304C114.016 304.089 114.016 303.911 114 304C117.483 306.494 120.755 309.191 124 312C124.475 312.408 123.475 313.419 123 313C119.621 310.076 116.648 307.58 113 305L102 308C101.395 308.172 101.395 307.172 102 307L112 304C109.841 302.484 107.256 300.387 105 299C103.769 298.248 102.252 297.677 101 297L91 302C90.8845 302.029 90.1064 302.053 90 302C89.8935 301.947 90.0457 301.109 90 301C89.9542 300.891 89.9629 301.113 90 301C90.037 300.887 89.898 301.061 90 301L100 297C96.2005 294.85 91.983 292.752 88 291C87.9237 291.099 88.1026 290.928 88 291C87.6273 291.249 87.4229 291.85 87 292H85L82 294C81.8783 294.051 81.1224 294.049 81 294C80.8775 293.951 81.0515 294.121 81 294C80.9484 293.879 80.9504 293.122 81 293C81.0496 292.878 80.8783 293.051 81 293L84 292C84.9175 291.613 86.1041 291.441 87 291V290C86.0609 289.592 84.9498 289.387 84 289C80.0565 287.402 76.0729 286.233 72 285C71.3631 284.774 72.4063 283.817 73 284Z" fill="#FFC42B"/>
<path d="M144 207C141.536 211.165 139.027 214.222 136 218C128.938 226.741 119.935 233.952 110 237C101.026 239.666 91.6637 239.543 83 236C78.8447 234.48 74.9954 232.248 72 229C72.272 228.208 72.7171 226.781 73 226C74.6866 221.271 76.3787 216.761 78 212C78.1596 211.566 77.8549 211.434 78 211C80.279 212.04 83.4951 212.916 86 213C95.0751 213.683 104.503 211.106 112 205C117.996 200.065 121.476 193.123 124 185C126.024 185.868 139.225 191.143 152 192C149.53 197.011 146.818 202.315 144 207Z" fill="#282B30"/>
<path d="M140 185C140.481 184.93 140.663 184.359 141 184C141.337 183.641 141.949 183.496 142 183C142.056 183.306 141.823 183.747 142 184C142.177 184.253 142.735 184.849 143 185C143.265 185.151 143.698 184.98 144 185C144.302 185.02 144.718 185.114 145 185C147.362 184.272 146 180 146 180H166L168 190C163.254 192.317 157.802 193.403 152 193C139.253 192.149 126.057 186.895 124 186C124.559 184.164 124.608 181.895 125 180H129C128.885 181.116 128.885 181.884 129 183C129.479 186.839 132.804 184.455 133 183C133 183 133.65 184.832 135 185C136.35 185.168 138 184 138 184C138.23 184.444 138.574 184.754 139 185C139.426 185.246 139.512 185.029 140 185Z" fill="white"/>
<path d="M152 192C157.78 192.389 163.272 192.236 168 190L144 207C146.809 202.334 149.614 197.011 152 192Z" fill="#282B30"/>
<path d="M266 113L226 120C226 120 224.16 100.416 246 101C259.138 101.351 264.234 107.635 266 113Z" fill="#FFC42B"/>
<path d="M269 121V124H259H233H225V121H226H268H269Z" fill="#FFC42B"/>
<path d="M266 114C266.71 116.255 267.046 118.623 267 121H226L266 114Z" fill="#282B30"/>
<path d="M247 92C247.67 92.0021 247.444 92.6265 248 93C248.556 93.3735 249.745 93.3808 250 94C250.255 94.6192 250.132 95.3435 250 96C249.868 96.6565 249.474 97.5273 249 98C248.526 98.4728 247.657 98.8701 247 99C246.343 99.1299 245.618 99.2567 245 99C244.382 98.7433 244.372 97.5569 244 97C243.628 96.4431 243 96.6696 243 96C243 95.5543 242.829 94.4117 243 94C243.171 93.5883 243.684 93.3147 244 93C244.316 92.6853 244.588 92.1697 245 92C245.412 91.8304 246.554 91.9987 247 92Z" fill="white"/>
<path d="M202 136V138L200 155V159L182 152L173 164V146H158V140L145 146H142L139 142L131 124L147 113C151.242 110.059 155.866 108.697 161 109L163 127L174 126L178 128L175 119L202 136Z" fill="#FFC42B"/>
<path d="M196 91H160C159.995 90.9627 159.995 91.0373 160 91C161.452 90.7188 165.178 89.8321 170 89C176.046 87.8754 183.882 86.4948 188 86C195.845 85.269 197 91 197 91H196Z" fill="white"/>
<path d="M190 94C183.976 95.3667 178 91 178 91H195C193.71 92.1777 191.769 93.5918 190 94Z" fill="#282B30"/>
<path d="M175 303H177C193.159 308.727 193 318 193 318L160 315L161 303C161.176 302.26 161.857 301.729 162 301C166.494 301.446 170.575 302.117 175 303Z" fill="#FFC42B"/>
<path d="M173 76C186.97 76 187 86 187 86C182.951 86.4275 175.946 87.9258 170 89C170 89 166.191 83.0042 173 76Z" fill="#FFC42B"/>
<path d="M175 303C170.657 302.129 166.407 301.43 162 301C166.986 275.097 162.82 246.939 153 223C150.778 217.198 147.672 212.001 144 207L168 190C177.712 205.193 183.083 223.933 184 243C184.971 263.195 181.13 283.988 175 303Z" fill="#282B30"/>
<path d="M175 119L178 128L174 126L175 119Z" fill="white"/>
<path d="M175 115V120L170 111L175 115Z" fill="#282B30"/>
<path d="M161 109L174 126L163 127L161 109Z" fill="white"/>
<path d="M173 163V179H166H161V146H173V163Z" fill="white"/>
<path d="M172 91L168 98C168.466 94.871 163.321 92.604 161 97C158.679 101.396 164 104 164 104L161 108C160.826 107.614 156.221 97.941 158 91H172Z" fill="#282B30"/>
<path d="M174 76C166.911 83.0478 171 89 171 89C166.063 89.8603 161.487 90.7243 160 91C160.033 91 159.456 76 174 76Z" fill="#FFC42B"/>
<path d="M159 140V146H145L159 140Z" fill="white"/>
<path d="M191 94C192.054 98.8977 190.381 103.601 188 108C183.991 114.913 175 115 175 115L170 111L175 120L174 126L161 109L162 108L165 104C165 104 159.705 101.337 162 97C164.295 92.663 169.463 93.913 169 97L173 91H178C178 91 184.933 95.5326 191 94Z" fill="#282B30"/>
<path d="M258 124C258 124 248.622 133.277 237 131L200 155L202 137L233 124H258Z" fill="#282B30"/>
<path d="M152 177C151.667 177.166 151.37 177.016 151 177C148.833 176.762 146.037 176.787 144 176L146 180C146 180 147.325 183.294 145 184C144.721 184.117 144.302 184.017 144 184C143.698 183.983 143.265 184.147 143 184C142.735 183.853 143.177 184.248 143 184C142.823 183.752 142.054 183.301 142 183C141.95 183.482 142.332 183.651 142 184C141.668 184.349 140.473 184.932 140 185C139.522 185.035 139.421 184.231 139 184C138.579 183.769 138.233 183.424 138 183C137.914 183.152 137.275 185.152 136 185C134.725 184.848 134 183 134 183C133.807 184.413 130.471 186.728 130 183C129.887 181.916 129.887 181.084 130 180C130.365 176.709 130.259 173.225 131 170C131 170 128.407 162.608 125 155C121.593 147.392 118.482 142.706 118 140C116.929 134.642 131 124 131 124L139 141L135 144L136 146L140 166C140 166 153.468 176.087 152 177Z" fill="#282B30"/>
<path d="M124 155C127.467 162.517 131 169 131 169C130.245 172.186 129.371 175.749 129 179H124V155Z" fill="#D8D8D8"/>
<path d="M162 146V179H147L145 175C147.096 175.776 148.77 176.765 151 177C151.381 177.016 151.658 176.163 152 176C153.511 175.078 141 166 141 166L136 146H162Z" fill="#D8D8D8"/>
<path d="M72 229C63.2383 245.336 56 243 56 243L67 207L78 213C76.4157 217.694 74.68 222.339 73 227C72.6385 227.727 72.3509 228.359 72 229Z" fill="#FFC42B"/>
<path d="M229 26L225 30L229 34L226 37L222 33L218 37L215 34L219 30L215 26L218 23L222 27L226 23L229 26ZM218 24L216 26L220 30L216 34L218 36L222 32L226 36L228 34L224 30L228 26L226 24L222 28L218 24Z" fill="white"/>
<path d="M234 35C234 33.8388 234.355 32.9655 235 32C235.645 31.0345 236.927 29.4443 238 29C239.073 28.5556 239.861 28.7734 241 29C242.139 29.2265 243.179 30.1789 244 31C244.821 31.8211 245.773 32.8611 246 34C246.227 35.1388 246.444 35.9272 246 37C245.556 38.0728 243.965 39.3549 243 40C242.035 40.6451 241.161 41 240 41C238.444 40.9973 237.1 40.1004 236 39C234.9 37.8995 234.003 36.5562 234 35ZM240 31C239.272 31 238.605 31.5958 238 32C237.395 32.4042 237.278 33.3278 237 34C236.722 34.6721 235.858 35.2864 236 36C236.142 36.7135 236.486 37.4855 237 38C237.514 38.5144 238.286 38.858 239 39C239.714 39.1419 240.328 38.2784 241 38C241.672 37.7216 242.596 37.6049 243 37C243.404 36.3951 244 35.7275 244 35C244 34.0244 243.69 32.6898 243 32C242.31 31.3101 240.976 31 240 31Z" fill="#FFC42B"/>
<path d="M227.941 42.5967L223 46L226.414 50.9338L231.356 47.5305L227.941 42.5967Z" fill="white"/>
<path d="M249 47C250.105 47 251 46.1046 251 45C251 43.8954 250.105 43 249 43C247.895 43 247 43.8954 247 45C247 46.1046 247.895 47 249 47Z" fill="#FFC42B"/>
</svg>
