<svg width="200" height="200" viewBox="0 0 200 200" fill="none" xmlns="http://www.w3.org/2000/svg">
<path d="M135 28H28C22.8223 28 19 31.8064 19 37V182C19 187.194 22.8223 191 28 191H135C140.178 191 144 187.194 144 182V37C144 31.8064 140.178 28 135 28Z" fill="#FFC42B"/>
<path d="M32 40H132V178H32V40Z" fill="#FE724E"/>
<path d="M132 40V165H57L32 140V40H132Z" fill="#FE724E"/>
<path d="M132 40V165H57L32 140V135L128 40H132Z" fill="#FE724E"/>
<path d="M32 141H57V166L32 141Z" fill="#D8D8D8"/>
<path d="M82 75C87.2467 75 91 71.2467 91 66C91 60.7533 87.2467 56 82 56C76.7533 56 72 60.7533 72 66C72 71.2467 76.7533 75 82 75Z" fill="#FE724E"/>
<path d="M116 157H107C106.28 157 105.56 156.46 105 156C104.44 155.54 103.152 154.716 103 154C102.856 154.254 103.126 154.749 103 155C102.682 155.644 102.642 156.695 102 157C101.358 157.305 100.689 157.166 100 157C99.3105 156.834 98.4398 156.565 98 156C97.5602 155.435 97.0006 154.721 97 154C96.9878 153.031 97.2651 151.93 97 151C96.1043 151.774 94.8402 153.305 94 155L88 152C88.9409 150.081 92.2733 144 97 144C97.8694 144.003 99.2321 144.585 100 145C100.768 145.415 101.51 145.269 102 146C103.417 144.648 105.084 144 107 144C107.761 143.978 108.328 144.635 109 145C109.672 145.365 109.595 145.344 110 146C110.758 147.249 111.256 149.475 111 151H116V157Z" fill="#FE724E"/>
<path d="M94 25V22C94 18.6406 92.3442 15.3755 90 13C87.6558 10.6245 85.3152 9 82 9C78.6848 9 75.3442 10.6245 73 13C70.6558 15.3755 69 18.6406 69 22V25L55 27C51.9771 27.3829 49.0163 28.6858 47 31C44.9837 33.3142 44.0004 35.9129 44 39V47H119V39C119 35.9129 118.016 33.3142 116 31C113.984 28.6858 111.023 27.3829 108 27L94 25Z" fill="#FFC42B"/>
<path d="M179 59L123 116L110 103L167 47C167.822 46.1778 168.926 45.4449 170 45C171.074 44.5551 171.837 44 173 44C175.348 44.0001 177.34 45.3396 179 47C180.66 48.6604 182 50.6518 182 53C182 54.1627 181.445 54.9258 181 56C180.555 57.0742 179.822 58.1778 179 59Z" fill="#FFC42B"/>
<path d="M110 103L104 122L123 116L110 103Z" fill="#D8D8D8"/>
<path d="M141 181C140.998 182.661 140.169 184.825 139 186C137.831 187.175 136.654 187.998 135 188H28C26.3462 187.998 25.1694 187.175 24 186C22.8306 184.825 22.002 182.661 22 181V37C22.002 35.3386 22.8306 34.1748 24 33C25.1694 31.8252 26.3462 31.002 28 31H43C41.8738 32.9168 41.2356 34.7869 41 37H32C31.1728 37 29.5849 37.4124 29 38C28.4151 38.5876 28 39.169 28 40V178C28 178.831 28.4151 180.412 29 181C29.5849 181.588 31.1728 181 32 181H131C131.827 181 133.415 181.588 134 181C134.585 180.412 135 178.831 135 178V119H128V163H60V141C60 140.169 59.5849 139.588 59 139C58.4151 138.412 57.8272 138 57 138H35V44H41V47C41 47.831 41.4151 48.4124 42 49C42.5849 49.5876 43.1728 50 44 50H119C119.827 50 120.415 49.5876 121 49C121.585 48.4124 122 47.831 122 47V44H128V66H135V40C135 39.169 134.585 38.5876 134 38C133.415 37.4124 131.827 37 131 37H122C121.764 34.7869 121.126 32.9168 120 31H135C136.654 31.002 137.831 31.8252 139 33C140.169 34.1748 140.998 35.3386 141 37V56H147V37C146.996 33.6771 145.339 30.3496 143 28C140.661 25.6504 138.308 25.0037 135 25H113C111.53 24.3088 109.611 23.202 108 23L97 22C97 17.8449 95.9247 13.9381 93 11C90.0753 8.06193 86.1361 6 82 6C77.8639 6 72.9247 8.06193 70 11C67.0753 13.9381 66 17.8449 66 22L55 23C53.3891 23.202 51.4704 24.3088 50 25H28C24.6922 25.0037 22.3389 25.6504 20 28C17.6611 30.3496 16.0037 33.6771 16 37V181C16.0037 184.323 17.6611 187.65 20 190C22.3389 192.35 24.6922 193.996 28 194H135C138.308 193.996 140.661 192.35 143 190C145.339 187.65 146.996 184.323 147 181V109H141V181ZM35 175V148L54 168C54.2896 168.291 54.6216 168.843 55 169C55.3784 169.157 56.5904 169 57 169H128V175H35ZM53 158L39 144H53V158ZM55 30L69 28C69.7542 27.9053 70.4969 27.5723 71 27C71.5031 26.4277 71.9997 25.7635 72 25V22C72 19.507 73.2452 16.7628 75 15C76.7548 13.2372 79.5183 12 82 12C84.4817 12 86.2452 13.2372 88 15C89.7548 16.7628 91 19.507 91 22V25C91 25.7637 91.4969 26.4275 92 27C92.5031 27.5725 93.2456 27.9053 94 28L108 30C110.262 30.2871 111.491 31.2834 113 33C114.509 34.7166 115.997 36.71 116 39V44H47V39C47.0032 36.7098 48.4912 34.7169 50 33C51.5088 31.2831 52.7383 30.2872 55 30Z" fill="#282B30"/>
<path d="M90.9999 65.9999C90.9999 64.1314 90.038 61.5535 88.9999 59.9999C87.9618 58.4463 86.7262 57.7149 84.9999 56.9999C83.2736 56.2848 81.8325 55.6354 79.9999 55.9999C78.1673 56.3644 76.3211 57.6787 74.9999 58.9999C73.6787 60.3211 72.3644 62.1673 71.9999 63.9999C71.6354 65.8325 72.2848 67.2736 72.9999 68.9999C73.7149 70.7262 74.4463 71.9618 75.9999 72.9999C77.5535 74.038 80.1314 74.9999 81.9999 74.9999C84.5046 74.997 86.2288 73.771 87.9999 71.9999C89.771 70.2288 90.997 68.5046 90.9999 65.9999ZM77.9999 65.9999C77.9999 65.3771 78.6539 64.5178 78.9999 63.9999C79.3459 63.482 79.4245 63.2382 79.9999 62.9999C80.5753 62.7615 81.389 61.8784 81.9999 61.9999C82.6108 62.1214 83.5595 62.5595 83.9999 62.9999C84.4403 63.4403 84.8784 64.389 84.9999 64.9999C85.1214 65.6108 84.2382 66.4245 83.9999 66.9999C83.7615 67.5753 83.5178 67.6539 82.9999 67.9999C82.482 68.3459 82.6227 68.9999 81.9999 68.9999C81.165 68.999 79.5903 68.5903 78.9999 67.9999C78.4095 67.4095 78.0008 66.8348 77.9999 65.9999Z" fill="#282B30"/>
<path d="M66 81H113V87H66V81Z" fill="#282B30"/>
<path d="M47 81H60V87H47V81Z" fill="#282B30"/>
<path d="M47 94H100V100H47V94Z" fill="#282B30"/>
<path d="M47 119H94V125H47V119Z" fill="#282B30"/>
<path d="M66 131H116V137H66V131Z" fill="#282B30"/>
<path d="M47 106H97V112H47V106Z" fill="#282B30"/>
<path d="M110 146C109.595 145.344 109.672 145.365 109 145C108.328 144.635 107.761 143.978 107 144C105.084 144 103.417 144.648 102 146C101.51 145.269 100.768 145.415 100 145C99.2322 144.585 97.8693 144.003 97 144C92.2736 144 88.9424 150.081 88 152L94 155C94.8401 153.303 96.1044 151.774 97 151C97.2656 151.93 96.9873 153.031 97 154C97.0001 154.721 97.5604 155.434 98 156C98.4396 156.566 99.3105 156.834 100 157C100.69 157.166 101.358 157.305 102 157C102.642 156.695 102.682 155.645 103 155C103.126 154.747 102.856 154.252 103 154C103.152 154.716 104.44 155.54 105 156C105.56 156.46 106.28 157 107 157H116V151H111C111.255 149.478 110.758 147.249 110 146Z" fill="#282B30"/>
<path d="M79 19H85V25H79V19Z" fill="#282B30"/>
<path d="M180 63.0001L181 62.0001C183.239 59.738 185.008 56.1833 185 53.0001C184.992 49.8168 183.25 47.2509 181 45.0001C178.75 42.7492 176.182 41.008 173 41.0001C169.818 40.9922 166.261 41.7604 164 44.0001L107 102C106.655 102.345 106.153 102.536 106 103L99.9999 122C99.8152 122.554 99.8658 123.432 99.9999 124C100.134 124.569 100.587 124.587 101 125C101.413 125.413 101.432 125.866 102 126C102.568 126.134 103.446 126.185 104 126L123 120C123.463 119.847 123.655 119.345 124 119L176 67.0001L177 69.0001C177.413 69.4131 177.777 70.4604 178 71.0001C178.223 71.5397 179 71.4159 179 72.0001C179 72.5842 178.223 73.4604 178 74.0001C177.777 74.5397 177.413 75.587 177 76.0001L161 92.0001L165 97.0001L182 80.0001C182.997 79.0029 183.461 78.3029 184 77.0001C184.539 75.6972 185 73.4103 185 72.0001C185 70.5899 184.539 69.3029 184 68.0001C183.461 66.6972 182.997 65.9972 182 65.0001L180 63.0001ZM173 47.0001C174.137 47 175.055 47.3682 176 48.0001C176.945 48.6319 177.565 49.9493 178 51.0001C178.435 52.0509 179.222 52.8845 179 54.0001C178.778 55.1156 177.804 56.1958 177 57.0001L176 59.0001L167 50.0001L169 49.0001C169.532 48.4644 170.302 48.2892 171 48.0001C171.698 47.711 172.245 46.9979 173 47.0001ZM111 110L116 115L108 118L111 110ZM122 112L114 104L141 77.0001L149 85.0001L122 112ZM154 81.0001L145 72.0001L163 55.0001L171 63.0001L154 81.0001Z" fill="#282B30"/>
</svg>
