<svg width="75" height="75" viewBox="0 0 75 75" fill="none" xmlns="http://www.w3.org/2000/svg">
<path d="M25 18.75C25 20.4076 24.3415 21.9973 23.1694 23.1694C21.9973 24.3415 20.4076 25 18.75 25C17.0924 25 15.5027 24.3415 14.3306 23.1694C13.1585 21.9973 12.5 20.4076 12.5 18.75C12.5 17.0924 13.1585 15.5027 14.3306 14.3306C15.5027 13.1585 17.0924 12.5 18.75 12.5C20.4076 12.5 21.9973 13.1585 23.1694 14.3306C24.3415 15.5027 25 17.0924 25 18.75Z" fill="#282B30"/>
<path d="M25 37.5C25 39.1576 24.3415 40.7473 23.1694 41.9194C21.9973 43.0915 20.4076 43.75 18.75 43.75C17.0924 43.75 15.5027 43.0915 14.3306 41.9194C13.1585 40.7473 12.5 39.1576 12.5 37.5C12.5 35.8424 13.1585 34.2527 14.3306 33.0806C15.5027 31.9085 17.0924 31.25 18.75 31.25C20.4076 31.25 21.9973 31.9085 23.1694 33.0806C24.3415 34.2527 25 35.8424 25 37.5Z" fill="#282B30"/>
<path d="M18.75 62.5C20.4076 62.5 21.9973 61.8415 23.1694 60.6694C24.3415 59.4973 25 57.9076 25 56.25C25 54.5924 24.3415 53.0027 23.1694 51.8306C21.9973 50.6585 20.4076 50 18.75 50C17.0924 50 15.5027 50.6585 14.3306 51.8306C13.1585 53.0027 12.5 54.5924 12.5 56.25C12.5 57.9076 13.1585 59.4973 14.3306 60.6694C15.5027 61.8415 17.0924 62.5 18.75 62.5Z" fill="#282B30"/>
<path d="M43.75 18.75C43.75 20.4076 43.0915 21.9973 41.9194 23.1694C40.7473 24.3415 39.1576 25 37.5 25C35.8424 25 34.2527 24.3415 33.0806 23.1694C31.9085 21.9973 31.25 20.4076 31.25 18.75C31.25 17.0924 31.9085 15.5027 33.0806 14.3306C34.2527 13.1585 35.8424 12.5 37.5 12.5C39.1576 12.5 40.7473 13.1585 41.9194 14.3306C43.0915 15.5027 43.75 17.0924 43.75 18.75Z" fill="#282B30"/>
<path d="M37.5 43.75C39.1576 43.75 40.7473 43.0915 41.9194 41.9194C43.0915 40.7473 43.75 39.1576 43.75 37.5C43.75 35.8424 43.0915 34.2527 41.9194 33.0806C40.7473 31.9085 39.1576 31.25 37.5 31.25C35.8424 31.25 34.2527 31.9085 33.0806 33.0806C31.9085 34.2527 31.25 35.8424 31.25 37.5C31.25 39.1576 31.9085 40.7473 33.0806 41.9194C34.2527 43.0915 35.8424 43.75 37.5 43.75Z" fill="#282B30"/>
<path d="M43.75 56.25C43.75 57.9076 43.0915 59.4973 41.9194 60.6694C40.7473 61.8415 39.1576 62.5 37.5 62.5C35.8424 62.5 34.2527 61.8415 33.0806 60.6694C31.9085 59.4973 31.25 57.9076 31.25 56.25C31.25 54.5924 31.9085 53.0027 33.0806 51.8306C34.2527 50.6585 35.8424 50 37.5 50C39.1576 50 40.7473 50.6585 41.9194 51.8306C43.0915 53.0027 43.75 54.5924 43.75 56.25Z" fill="#282B30"/>
<path d="M56.25 25C57.9076 25 59.4973 24.3415 60.6694 23.1694C61.8415 21.9973 62.5 20.4076 62.5 18.75C62.5 17.0924 61.8415 15.5027 60.6694 14.3306C59.4973 13.1585 57.9076 12.5 56.25 12.5C54.5924 12.5 53.0027 13.1585 51.8306 14.3306C50.6585 15.5027 50 17.0924 50 18.75C50 20.4076 50.6585 21.9973 51.8306 23.1694C53.0027 24.3415 54.5924 25 56.25 25Z" fill="#282B30"/>
<path d="M62.5 37.5C62.5 39.1576 61.8415 40.7473 60.6694 41.9194C59.4973 43.0915 57.9076 43.75 56.25 43.75C54.5924 43.75 53.0027 43.0915 51.8306 41.9194C50.6585 40.7473 50 39.1576 50 37.5C50 35.8424 50.6585 34.2527 51.8306 33.0806C53.0027 31.9085 54.5924 31.25 56.25 31.25C57.9076 31.25 59.4973 31.9085 60.6694 33.0806C61.8415 34.2527 62.5 35.8424 62.5 37.5Z" fill="#282B30"/>
<path d="M56.25 62.5C57.9076 62.5 59.4973 61.8415 60.6694 60.6694C61.8415 59.4973 62.5 57.9076 62.5 56.25C62.5 54.5924 61.8415 53.0027 60.6694 51.8306C59.4973 50.6585 57.9076 50 56.25 50C54.5924 50 53.0027 50.6585 51.8306 51.8306C50.6585 53.0027 50 54.5924 50 56.25C50 57.9076 50.6585 59.4973 51.8306 60.6694C53.0027 61.8415 54.5924 62.5 56.25 62.5Z" fill="#282B30"/>
</svg>
