<svg width="54" height="20" viewBox="0 0 124 75" fill="none" xmlns="http://www.w3.org/2000/svg">
<path d="M60.7991 0.706965H0V11.3822H24.0369V50.1946H36.7623V11.3822H60.7991V0.706965Z" fill="#fff"/>
<path d="M61.9286 25.3801C61.9286 41.8524 71.2606 50.9016 93.0351 50.9016C112.76 50.9016 122.657 43.3371 123.93 28.9856H110.992C109.79 37.0451 103.569 40.2264 93.0351 40.2264C80.1684 40.2264 74.654 35.5604 74.654 25.3801C74.654 15.2705 80.0977 10.6752 93.0351 10.6752C103.64 10.6752 109.79 13.7858 110.992 21.7746H123.93C122.657 7.49385 112.76 0 93.0351 0C71.2606 0 61.9286 8.97848 61.9286 25.3801Z" fill="#fff"/>
<path fillRule="evenodd" clipRule="evenodd" d="M121.173 75H5.81567V66.0158H121.173V75Z" fill="#fff"/>
</svg>
