<svg width="75" height="75" viewBox="0 0 75 75" fill="none" xmlns="http://www.w3.org/2000/svg">
<path fill-rule="evenodd" clip-rule="evenodd" d="M11.25 15C11.25 14.0054 11.6451 13.0516 12.3483 12.3483C13.0516 11.6451 14.0054 11.25 15 11.25H60C60.9946 11.25 61.9484 11.6451 62.6517 12.3483C63.3549 13.0516 63.75 14.0054 63.75 15C63.75 15.9946 63.3549 16.9484 62.6517 17.6516C61.9484 18.3549 60.9946 18.75 60 18.75H15C14.0054 18.75 13.0516 18.3549 12.3483 17.6516C11.6451 16.9484 11.25 15.9946 11.25 15ZM11.25 30C11.25 29.0054 11.6451 28.0516 12.3483 27.3484C13.0516 26.6451 14.0054 26.25 15 26.25H60C60.9946 26.25 61.9484 26.6451 62.6517 27.3484C63.3549 28.0516 63.75 29.0054 63.75 30C63.75 30.9946 63.3549 31.9484 62.6517 32.6516C61.9484 33.3549 60.9946 33.75 60 33.75H15C14.0054 33.75 13.0516 33.3549 12.3483 32.6516C11.6451 31.9484 11.25 30.9946 11.25 30ZM11.25 45C11.25 44.0054 11.6451 43.0516 12.3483 42.3484C13.0516 41.6451 14.0054 41.25 15 41.25H60C60.9946 41.25 61.9484 41.6451 62.6517 42.3484C63.3549 43.0516 63.75 44.0054 63.75 45C63.75 45.9946 63.3549 46.9484 62.6517 47.6516C61.9484 48.3549 60.9946 48.75 60 48.75H15C14.0054 48.75 13.0516 48.3549 12.3483 47.6516C11.6451 46.9484 11.25 45.9946 11.25 45ZM11.25 60C11.25 59.0054 11.6451 58.0516 12.3483 57.3484C13.0516 56.6451 14.0054 56.25 15 56.25H60C60.9946 56.25 61.9484 56.6451 62.6517 57.3484C63.3549 58.0516 63.75 59.0054 63.75 60C63.75 60.9946 63.3549 61.9484 62.6517 62.6517C61.9484 63.3549 60.9946 63.75 60 63.75H15C14.0054 63.75 13.0516 63.3549 12.3483 62.6517C11.6451 61.9484 11.25 60.9946 11.25 60Z" fill="#282B30"/>
</svg>
