<svg width="76" height="76" viewBox="0 0 76 76" fill="none" xmlns="http://www.w3.org/2000/svg">
<path d="M38 24.3636C30.4659 24.3636 24.3636 30.4659 24.3636 38C24.3636 45.5341 30.4659 51.6364 38 51.6364C45.5341 51.6364 51.6364 45.5341 51.6364 38C51.6364 30.4659 45.5341 24.3636 38 24.3636ZM68.4773 34.5909C67.7051 27.6777 64.6051 21.2325 59.6863 16.3137C54.7675 11.3949 48.3223 8.29493 41.4091 7.52273V0.5H34.5909V7.52273C27.6777 8.29493 21.2325 11.3949 16.3137 16.3137C11.3949 21.2325 8.29493 27.6777 7.52273 34.5909H0.5V41.4091H7.52273C8.29493 48.3223 11.3949 54.7675 16.3137 59.6863C21.2325 64.6051 27.6777 67.7051 34.5909 68.4773V75.5H41.4091V68.4773C48.3223 67.7051 54.7675 64.6051 59.6863 59.6863C64.6051 54.7675 67.7051 48.3223 68.4773 41.4091H75.5V34.5909H68.4773ZM38 61.8636C24.8068 61.8636 14.1364 51.1932 14.1364 38C14.1364 24.8068 24.8068 14.1364 38 14.1364C51.1932 14.1364 61.8636 24.8068 61.8636 38C61.8636 51.1932 51.1932 61.8636 38 61.8636Z" fill="#282B30"/>
</svg>
