<svg width="201" height="300" viewBox="0 0 201 300" fill="none" xmlns="http://www.w3.org/2000/svg">
<path d="M173 117C171.546 118.317 169.741 120.179 169 122C168.259 123.821 167.88 126.036 168 128L173 208C173 208 174.754 220 164 220C153.246 220 155 208 155 208L160 128C160.118 126.036 159.741 123.821 159 122C158.259 120.179 156.453 118.318 155 117L154 116C152.437 114.582 151.729 112.986 151 111C150.271 109.014 149.727 107.099 150 105L155 64C155.052 63.6664 155.745 63.2198 156 63C156.255 62.7803 156.664 63.0009 157 63C157.365 63 157.74 62.7422 158 63C158.26 63.2578 157.994 63.6326 158 64L159 102C159.005 102.395 158.72 103.722 159 104C159.28 104.278 159.607 104 160 104H161C161.198 104.001 161.817 104.076 162 104C162.183 103.924 161.86 104.141 162 104C162.14 103.859 161.925 103.184 162 103C162.075 102.816 162.001 102.199 162 102V65C162 64.6001 162.72 63.2838 163 63C163.28 62.7163 163.602 63.0028 164 63C164.398 63.0028 164.72 62.7163 165 63C165.28 63.2838 165 64.6001 165 65V102C164.999 102.199 165.925 102.816 166 103C166.075 103.184 165.86 103.859 166 104C166.14 104.141 165.817 103.924 166 104C166.183 104.076 166.802 104.001 167 104H168C168.393 104 168.72 104.278 169 104C169.28 103.722 168.994 102.395 169 102L170 64C170.003 63.6336 169.741 63.2581 170 63C170.259 62.7419 170.636 63 171 63C171.338 63.002 171.746 62.7758 172 63C172.254 63.2242 172.955 63.6635 173 64L178 105C178.271 107.099 177.729 109.014 177 111C176.271 112.986 175.562 114.581 174 116L173 117Z" fill="white"/>
<path d="M147 32L149 34L147 36L146 34L144 36L142 34L144 32L142 31L144 29L146 31L147 29L149 31L147 32Z" fill="white"/>
<path d="M157 20C156.128 20.0021 154.726 19.483 154 19C153.274 18.517 152.335 17.805 152 17C151.665 16.195 151.83 15.8551 152 15C152.17 14.1449 152.384 12.6164 153 12C153.616 11.3836 155.145 11.1696 156 11C156.855 10.8304 157.195 10.6655 158 11C158.805 11.3346 159.517 12.2743 160 13C160.483 13.7257 161.002 15.1283 161 16C160.997 17.1642 160.823 18.1768 160 19C159.177 19.8232 158.164 19.9973 157 20ZM154 16C153.992 16.546 153.703 16.542 154 17C154.297 17.458 154.498 17.7853 155 18C155.502 18.2147 156.463 18.1015 157 18C157.537 17.8986 157.611 18.3832 158 18C158.389 17.6169 158.89 16.5349 159 16C159.11 15.4651 159.207 14.5053 159 14C158.793 13.4947 158.453 13.3043 158 13C157.547 12.6957 157.546 13.0001 157 13C156.277 12.9999 155.515 13.4929 155 14C154.485 14.5071 154.011 15.2774 154 16Z" fill="#FFC42B"/>
<path d="M164.065 29.5868L169 33L172.404 28.0593L167.47 24.6461L164.065 29.5868Z" fill="#FFC42B"/>
<path d="M160 47C162.209 47 164 45.2091 164 43C164 40.7909 162.209 39 160 39C157.791 39 156 40.7909 156 43C156 45.2091 157.791 47 160 47Z" fill="#FFC42B"/>
<path d="M184 42C185.381 42 186 41.3807 186 40C186 38.6193 185.381 37 184 37C182.619 37 181 38.6193 181 40C181 41.3807 182.619 42 184 42Z" fill="white"/>
<path d="M15 160C16.3807 160 18 159.381 18 158C18 156.619 16.3807 155 15 155C13.6193 155 13 156.619 13 158C13 159.381 13.6193 160 15 160Z" fill="#FFC42B"/>
<path d="M12.9346 138.587L8 142L11.4044 146.941L16.3391 143.527L12.9346 138.587Z" fill="#FFC42B"/>
<path d="M3 158C4.38071 158 5 157.381 5 156C5 154.619 4.38071 153 3 153C1.61929 153 0 154.619 0 156C0 157.381 1.61929 158 3 158Z" fill="white"/>
<path d="M178 125L182 224C182.065 225.502 182.899 227.042 184 227C184.939 227 185.838 226.261 186 225L192 177C192.378 173.848 191.073 171.471 189 170C188.022 169.187 187.507 168.15 187 167C186.493 165.85 185.932 164.249 186 163L187 125C187 121.659 184.45 118.905 182 119C179.668 119.084 177.87 121.806 178 125Z" fill="white"/>
<path d="M124 261C124 261 66.2593 246.809 68 193C69.7407 139.191 132.456 140.553 145 166C157.544 191.447 124 261 124 261Z" fill="#282B30"/>
<path d="M125 46H60C56.7128 46.0111 54.3234 47.6748 52 50C49.6766 52.3252 48.0083 54.7131 48 58V219C48.0083 222.286 49.6763 224.677 52 227C54.3237 229.323 56.7137 230.992 60 231H125C128.287 230.992 130.675 229.323 133 227C135.325 224.677 136.989 222.287 137 219V58C136.989 54.7122 135.325 52.3249 133 50C130.675 47.6751 128.288 46.0111 125 46ZM125 51C126.923 51.0056 128.641 52.6392 130 54C131.359 55.3608 131.997 57.077 132 59V212C131.997 213.922 131.359 215.641 130 217C128.641 218.359 126.922 218.997 125 219H60C58.0768 218.997 56.3609 218.359 55 217C53.6391 215.641 53.0056 213.923 53 212V59C53.0055 57.076 53.6394 55.3605 55 54C56.3606 52.6395 58.0758 51.0055 60 51H125Z" fill="white"/>
<path d="M124 45H61C57.6546 45.0056 54.3656 46.6136 52 49C49.6344 51.3864 48.0055 54.6251 48 58V218C48.0055 221.375 49.6344 224.614 52 227C54.3656 229.386 57.6546 230.994 61 231H124C127.345 230.994 130.634 229.386 133 227C135.366 224.614 136.994 221.375 137 218V58C136.994 54.6251 135.366 51.3864 133 49C130.634 46.6136 127.345 45.0056 124 45ZM136 218C135.994 221.215 135.254 224.728 133 227C130.746 229.272 127.187 229.997 124 230H61C57.8143 229.997 54.2526 229.272 52 227C49.7474 224.728 49.0028 221.214 49 218V58C48.9973 56.4055 49.3977 54.4742 50 53C50.6023 51.5258 50.8843 50.1294 52 49C53.1157 47.8706 54.5408 47.6127 56 47C57.4592 46.3873 59.4194 46.0028 61 46H124C127.188 46.0056 130.746 46.7262 133 49C135.254 51.2738 135.994 54.7843 136 58V218Z" fill="#282B30"/>
<path d="M133 58V212C132.997 213.922 132.361 215.641 131 217C129.639 218.359 127.924 218.997 126 219H61C59.0746 218.997 57.3625 218.359 56 217C54.6375 215.641 54.0056 213.923 54 212V58C54.0056 56.0761 54.6378 54.3604 56 53C57.3622 51.6396 59.0736 51.0055 61 51H126C127.925 51.0056 129.64 51.6393 131 53C132.36 54.3607 132.997 56.0771 133 58Z" fill="#FFC42B"/>
<path d="M86 52C86.3784 51.9979 86.6843 51.7912 87 52C87.3156 52.2087 87.8537 52.6509 88 53C88.1462 53.349 88.0725 53.6285 88 54C87.9274 54.3714 87.2668 54.7316 87 55C86.7331 55.2683 86.371 55.9254 86 56C85.629 56.0746 85.3498 56.1443 85 56C84.6501 55.8556 84.2104 55.3145 84 55C83.7895 54.6854 84 54.3785 84 54C83.9986 53.7495 83.9051 53.2318 84 53C84.0949 52.7681 84.8234 53.1776 85 53C85.1766 52.8224 84.7687 52.0962 85 52C85.2312 51.9038 85.7495 52 86 52Z" fill="#282B30"/>
<path d="M101 53C101.014 53.2808 101.146 53.7597 101 54C100.854 54.2402 100.255 54.8831 100 55C99.7446 55.1169 99.277 55.0468 99 55C98.723 54.9532 98.203 55.1943 98 55C97.797 54.8057 98.0591 54.2749 98 54C97.941 53.7251 97.8948 53.2607 98 53C98.1053 52.7393 98.7668 52.1566 99 52C99.2333 51.8433 99.7191 51.9986 100 52C100.362 51.9929 100.739 51.7498 101 52C101.261 52.2502 100.991 52.6381 101 53Z" fill="white"/>
<path d="M95 52H91C90.4435 52 90 52.4518 90 53V54C90 54.5482 90.4435 55 91 55H95C95.5565 55 96 54.5482 96 54V53C96 52.4518 95.5565 52 95 52Z" fill="white"/>
<path d="M88 54C88.002 53.6132 88.203 53.3227 88 53C87.797 52.6773 87.3394 52.1495 87 52C86.6606 51.8505 86.3612 51.9259 86 52C85.6388 52.0741 85.2609 52.7272 85 53C84.7391 53.2728 84.0725 53.6208 84 54C83.9275 54.3792 84.8597 54.6424 85 55C85.1403 55.3576 84.6942 55.7849 85 56C85.3058 56.2151 85.632 56 86 56C86.2436 56.0014 86.7746 56.097 87 56C87.2254 55.903 87.8273 55.1805 88 55C88.1727 54.8195 87.9065 55.2364 88 55C88.0935 54.7636 88 54.256 88 54ZM95 52H91C90.7563 52 90.1723 51.8189 90 52C89.8277 52.1811 90 52.7438 90 53V54C90 54.2562 89.8277 54.8189 90 55C90.1723 55.1811 90.7563 55 91 55H95C95.2437 55 94.8277 55.1811 95 55C95.1723 54.8189 96 54.2562 96 54V53C96 52.7438 95.1723 52.1811 95 52C95.2437 52 94.8277 51.8189 95 52ZM79 51H107C107 51 104.021 52.0264 104 55C103.979 57.9736 101.127 58 99 58H87C84.8732 58 82.0206 57.9628 82 55C81.9794 52.0372 79 51 79 51ZM100 52C99.6906 52.0149 99.2503 52.8083 99 53C98.7497 53.1917 98.1082 52.695 98 53C97.8918 53.305 97.9303 53.6828 98 54C98.0697 54.3172 97.7755 54.7758 98 55C98.2245 55.2242 98.6951 55.9431 99 56C99.3049 56.0569 99.7157 55.1293 100 55C100.284 54.8707 100.831 55.2726 101 55C101.169 54.7274 101.002 54.3256 101 54C100.986 53.5519 101.309 53.3088 101 53C100.691 52.6912 100.426 51.9912 100 52Z" fill="#282B30"/>
<path d="M134 58V212H132V58C131.997 56.0748 131.352 54.3623 130 53C128.648 51.6377 126.914 51.0056 125 51H61C59.0851 51.0056 57.354 51.638 56 53C54.646 54.362 54.0055 56.0738 54 58V212H52V58C52.022 55.4338 53.1911 52.8097 55 51C56.8089 49.1903 59.4487 48.0082 62 48H124C126.551 48.0055 129.192 49.1894 131 51C132.808 52.8106 133.983 55.4339 134 58Z" fill="#282B30"/>
<path d="M134 212V219C133.994 221.504 132.809 223.229 131 225C129.191 226.771 126.558 227.995 124 228H62C59.4415 227.992 56.8101 226.77 55 225C53.1899 223.23 52.011 221.504 52 219V212H54C54.0055 213.873 54.6457 215.676 56 217C57.3543 218.324 59.0861 218.997 61 219H125C126.913 218.997 128.647 218.324 130 217C131.353 215.676 131.997 213.872 132 212H134Z" fill="#282B30"/>
<path d="M124 262C124 262 99.6369 202.399 136 169C136 169 126.351 112.791 136 105C145.65 97.2086 152.492 125.191 168 214L201 260V300H141L124 262Z" fill="#282B30"/>
<path d="M48 142H39C34.5744 142 31 145.582 31 150C31 154.418 34.5744 158 39 158H48C52.4256 158 56 154.418 56 150C56 145.582 52.4256 142 48 142Z" fill="#282B30"/>
<path d="M47 158H38C32.8759 158 29 162.029 29 167C29 171.971 32.8759 176 38 176H47C52.1241 176 56 171.971 56 167C56 162.029 52.1241 158 47 158Z" fill="#282B30"/>
<path d="M47 176H38C32.8759 176 29 180.029 29 185C29 189.971 32.8759 194 38 194H47C52.1241 194 56 189.971 56 185C56 180.029 52.1241 176 47 176Z" fill="#282B30"/>
<path d="M49 195H40C35.5744 195 32 198.582 32 203C32 207.418 35.5744 211 40 211H49C53.4256 211 57 207.418 57 203C57 198.582 53.4256 195 49 195Z" fill="#282B30"/>
<g style="mix-blend-mode:multiply">
<path d="M68 68H45C41.0737 68 38 71.0737 38 75V98C38 101.926 41.0737 105 45 105H68C71.9263 105 75 101.926 75 98V75C75 71.0737 71.9263 68 68 68Z" fill="#FFC42B"/>
</g>
<g style="mix-blend-mode:multiply">
<path d="M109 67H86C82.0737 67 79 70.0737 79 74V97C79 100.926 82.0737 104 86 104H109C112.926 104 116 100.926 116 97V74C116 70.0737 112.926 67 109 67Z" fill="#FFC42B"/>
</g>
<g style="mix-blend-mode:multiply">
<path d="M67 113H44C40.0737 113 37 116.074 37 120V143C37 146.926 40.0737 150 44 150H67C70.9263 150 74 146.926 74 143V120C74 116.074 70.9263 113 67 113Z" fill="#FFC42B"/>
</g>
<g style="mix-blend-mode:multiply">
<path d="M108 112H85C81.0737 112 78 115.074 78 119V142C78 145.926 81.0737 149 85 149H108C111.926 149 115 145.926 115 142V119C115 115.074 111.926 112 108 112Z" fill="#FFC42B"/>
</g>
<g style="mix-blend-mode:multiply">
<path d="M67 158H44C40.0737 158 37 161.074 37 165V188C37 191.926 40.0737 195 44 195H67C70.9263 195 74 191.926 74 188V165C74 161.074 70.9263 158 67 158Z" fill="#FFC42B"/>
</g>
<g style="mix-blend-mode:multiply">
<path d="M108 157H85C81.0737 157 78 160.074 78 164V187C78 190.926 81.0737 194 85 194H108C111.926 194 115 190.926 115 187V164C115 160.074 111.926 157 108 157Z" fill="#FFC42B"/>
</g>
<path d="M110 182H82V184H110V182Z" fill="white"/>
<path d="M93 165C92.9978 164.527 92.7388 163.394 93 163C93.2612 162.606 94.5636 162.183 95 162C95.4364 161.818 95.5358 161.909 96 162C96.4642 162.091 96.6648 162.666 97 163C97.3352 163.334 97.9069 163.536 98 164C98.0931 164.464 98.1805 164.563 98 165C97.8195 165.437 97.3931 166.737 97 167C96.6069 167.263 96.473 167 96 167C95.3682 167 94.4477 166.446 94 166C93.5523 165.554 93.0029 165.632 93 165Z" fill="white"/>
<path d="M109 180H83C83 180 82.1466 167.626 96 168C104.333 168.222 106.877 172.615 108 176C108.44 177.327 109.038 178.605 109 180Z" fill="white"/>
<path d="M66 292C66.6867 292.936 68.9135 293.128 70 293C77.1127 292.163 83.3995 288.693 88 283V282L87 281C83.2976 280.457 79.6524 281.169 76 282C74.1474 282.434 72.5483 282.859 71 284C69.4517 285.142 68.0047 287.327 67 289C66.4363 290.064 65.2825 291.021 66 292Z" fill="white"/>
<path d="M54 279C54.2438 279.4 54.5646 279.807 55 280C59.5277 282.499 65.0028 282.356 70 281C72.9855 280.164 76.2794 278.457 79 277C77.2995 275.27 74.4412 274.354 72 274C66.6044 273.228 61.0663 274.041 56 276C55.3513 276.213 55.4995 276.546 55 277C54.756 277.236 54.0722 277.673 54 278C53.9278 278.327 53.8772 278.688 54 279Z" fill="white"/>
<path d="M46 272C47.3117 272.84 49.4196 272.977 51 273C56.894 273.394 62.3904 271.52 67 268C62.6367 266.435 57.6485 265.659 53 266C50.3863 266.071 48.1861 266.634 46 268C45.6833 268.195 45.179 268.684 45 269C44.8539 269.453 44.8162 270.56 45 271C45.1838 271.44 45.5672 271.766 46 272Z" fill="white"/>
<path d="M58 262C52.9703 259.636 47.2594 259.265 42 261C41.5571 261.148 41.4144 261.78 41 262C40.6495 262.167 40.2605 261.704 40 262C39.7395 262.296 39.1294 262.621 39 263C40.7389 264.477 42.762 265.869 45 266C47.2287 266.122 49.8151 265.475 52 265C54.2333 264.588 56.4834 264.768 58 263C58.0375 262.959 57.9855 262.055 58 262C58.0119 262.056 58.0145 261.945 58 262Z" fill="white"/>
<path d="M37 259C36.9028 259.462 37.4922 259.824 38 260C39.1697 260.325 39.8725 260.42 41 260C42.9145 259.435 45.4672 258.132 47 257C47.5245 256.658 47.7537 255.523 48 255H47C43.6719 255.168 40.7515 256.39 38 258C37.6537 258.161 37.126 258.68 37 259Z" fill="white"/>
<path d="M41 253C39.2915 251.827 37.0819 250.548 35 250C32.7395 249.413 30.2417 250.361 28 251C27.3386 251.198 26.9173 251.387 27 252C27.0827 252.613 27.4626 252.811 28 253C31.943 254.363 36.9528 254.106 41 253Z" fill="white"/>
<path d="M88 282C88.4949 282.277 88.4943 282.745 89 283C91.4099 279.512 93.5129 275.196 94 271C94.2451 269.777 94.1739 268.235 94 267C93.9115 266.384 93.3315 266.529 93 266C92.6685 265.471 92.5186 264.353 92 264C91.5833 263.735 90.4953 263.992 90 264C89.447 264.101 89.4392 264.653 89 265C88.5608 265.347 88.2213 265.489 88 266C86.5933 268.586 85.7734 272.072 86 275C86.1938 277.614 87.1085 279.532 88 282Z" fill="white"/>
<path d="M80 276L81 277C81.212 276.812 80.9167 276.266 81 276C82.4 272.336 83.6611 268.891 84 265C84.2469 263.047 84.4741 260.914 84 259C83.7547 258.045 82.6083 256.79 82 256C81.3917 255.21 80.8773 254.504 80 254C79.5508 253.741 78.5222 253.963 78 254C77.5272 254.086 77.3298 254.662 77 255C75.6505 256.45 74.9101 258.054 75 260C74.8282 265.65 77.6376 270.847 80 276Z" fill="white"/>
<path d="M67 269H68C69.0146 266.14 69.8407 263.055 70 260C70.1791 256.524 69.3087 252.453 67 250C66.7494 249.679 66.3573 249.168 66 249C65.6427 248.832 65.3899 248.981 65 249C64.0049 249.181 63.2189 250.88 63 252C62.5222 254.806 63.1566 257.294 64 260C64.8462 262.697 65.7403 265.496 67 268V269Z" fill="white"/>
<path d="M48 256C48.642 254.011 49.0345 252.108 49 250C48.9765 248.948 48.4451 247.934 48 247C47.555 246.066 46.7761 244.625 46 244C45.8249 243.834 46.2298 244.034 46 244C45.7703 243.966 45.2097 243.892 45 244C44.8438 244.144 44.0704 244.791 44 245C43.4858 246.608 43.6406 248.343 44 250C44.2963 252.23 45.3901 254.578 47 256H48Z" fill="white"/>
<path d="M54 253C55.0276 256.146 57.0753 259.448 59 262C60.0798 259.726 60.3732 257.546 60 255C59.5715 252.296 58.3619 249.275 57 247C56.6147 246.12 55.8195 245.325 55 245C54.7654 244.91 54.2346 244.91 54 245C53.6627 245.219 53.1088 245.578 53 246C52.2295 248.305 53.2389 250.674 54 253Z" fill="white"/>
<path d="M69 268C60.5147 261.612 50.4863 256.447 40 254C39.4134 253.865 40.4134 252.844 41 253C51.2663 255.395 59.6508 260.778 68 267C76.9673 273.688 86.2632 281.011 95 288C95.4505 288.373 94.4924 289.373 94 289C85.4937 282.177 77.7054 274.533 69 268Z" fill="white"/>
<path d="M105 235C105.646 235.739 105.693 237.067 106 238C106.459 239.611 106.91 241.327 107 243L108 249C108.188 250.863 107.707 252.147 108 254C108.241 255.58 109.316 257.518 111 258C112.684 258.481 113.257 257.277 114 256C114.91 254.493 115.902 252.403 117 251C117.45 250.463 117.373 250.312 118 250C118.627 249.687 119.3 250.036 120 250C120.7 249.964 121.344 249.754 122 250C122.656 250.246 123.496 250.513 124 251C126.343 253.093 126.99 256.923 127 260C126.884 263.262 125.884 265.858 125 269C123.536 274.945 122.197 282.316 125 288C125.22 288.461 124.23 288.45 124 288C124 287.916 124.042 288.073 124 288C120.705 288.985 117.381 289.368 114 290C110.541 290.648 107.509 291.734 104 292C102.222 292.136 99.7782 291.989 98 292C96.3428 292.081 94.5897 291.475 93 291C90.5419 290.163 88.5607 287.878 89 285C89.4184 282.436 91.772 281.712 94 281C94.7217 280.78 95.3619 281.209 96 281C97.4644 280.518 99.6025 278.654 100 277C100.106 276.302 100.349 275.613 100 275C99.6508 274.387 98.6539 274.265 98 274C96.5078 273.425 94.5704 273.699 93 274C91.2949 274.19 89.7153 274.029 88 274C84.6011 273.916 81.1419 273.3 78 272C77.2471 271.728 76.5829 271.549 76 271C75.4171 270.451 75.3169 269.736 75 269C74.7549 268.358 74.8649 267.674 75 267C75.1351 266.326 75.5263 265.498 76 265C78.1757 262.687 82.1381 262.732 84 260C85.046 258.524 83.4016 257.523 82 257C80.4256 256.505 78.614 256.656 77 257C73.862 257.502 71.138 258.429 68 258C66.5691 257.865 64.9992 257.034 64 256C63.1545 255.049 63.0615 254.271 63 253C62.9746 252.367 62.7285 251.572 63 251C63.2715 250.427 63.4938 250.381 64 250C65.297 249.047 67.6297 248.764 69 248C69.6718 247.662 69.7371 246.705 70 246C70.0922 245.642 70.1676 245.33 70 245C69.8324 244.67 69.3435 244.136 69 244C67.5042 243.299 65.6004 243.853 64 244C60.338 244.333 56.6704 244.221 53 244C51.3094 244.062 49.4679 243.841 48 243C47.4553 242.618 47.3026 242.593 47 242C46.6973 241.407 46.9902 240.666 47 240C47.0457 239.362 46.6313 238.522 47 238C47.3687 237.478 48.4146 237.256 49 237C49.9519 236.508 51.6548 236.214 52 235C52.4602 233.399 50.0878 232.481 49 232C47.3369 231.257 45.6736 230.733 44 230C41.521 228.953 38.7113 226.753 38 224C37.7154 222.677 38.3326 221.177 39 220C39.6673 218.823 40.719 218.435 42 218C45.0543 216.754 47.4373 217.357 50 219C51.4539 219.932 53.5565 221.079 55 222C56.4435 222.921 57.5984 223.089 59 222C60.046 221.194 60.9163 220.183 61 219C60.9694 217.852 60.6032 217.078 61 216C61.2442 215.505 61.5178 214.267 62 214C62.4822 213.733 63.4514 213.945 64 214C65.3362 214.281 66.1532 214.928 67 216C69.2898 218.378 71.1109 221.82 72 225C72.4079 226.455 72.7762 227.974 74 229C74.2189 229.227 74.6965 228.913 75 229C75.3035 229.087 74.694 230.078 75 230C75.3059 229.922 75.7744 229.221 76 229C76.2256 228.779 76.9158 228.304 77 228C77.6171 226.064 77.1444 223.324 80 223C80.5785 222.979 80.4578 222.797 81 223C81.5422 223.203 82.5776 223.604 83 224C84.054 224.968 85.2935 225.755 86 227C87.8444 229.911 89.1201 233.668 90 237C90.2598 238.551 90.0505 239.746 91 241C92.1715 242.256 94.0795 241.382 95 240C95.9205 238.618 96.226 237.434 97 236C97.2971 235.372 97.4366 234.406 98 234C98.5634 233.594 99.3106 233.083 100 233C100.816 232.923 102.246 233.678 103 234C103.754 234.322 104.49 234.357 105 235Z" fill="#FFC42B"/>
<path d="M67 233C61.0719 229.593 54.4694 227.207 48 225C47.1764 224.718 45.8235 224.251 45 224C44.9019 223.981 45.0855 223.948 45 224C44.9144 224.052 45.0296 223.904 45 224C44.9704 224.095 44.9587 224.909 45 225C45.0413 225.091 44.9087 224.96 45 225C51.5597 227.04 57.9775 229.691 64 233C69.9921 236.295 75.5907 239.813 81 244C86.5172 248.281 92.0323 253.09 97 258C102.077 262.962 107.309 267.662 112 273C116.691 278.338 121.413 284.526 126 290L127 292C127.323 292.397 128.313 291.386 128 291C123.413 285.474 118.712 280.411 114 275C109.288 269.589 104.098 264.098 99 259C94.0735 254.046 89.4485 249.371 84 245C78.5973 240.7 72.9923 236.426 67 233Z" fill="white"/>
<path d="M119 261C119.757 268.498 120.25 275.495 121 283C113.625 282.221 105.39 282.38 98 283C97.485 283 97.4534 284.041 98 284C105.545 283.376 114.474 283.183 122 284C122.284 284 122.021 283.217 122 283C121.229 275.316 120.771 267.684 120 260C119.916 259.472 118.947 260.493 119 261Z" fill="white"/>
<path d="M101 244C102.094 250.669 102.892 257.331 104 264C97.8519 263.529 91.1035 263.125 85 264C84.4943 264.072 84.4943 265.072 85 265C91.2001 264.115 98.7587 263.477 105 264C105.06 263.998 104.946 264.027 105 264C105.054 263.973 104.962 264.047 105 264C105.038 263.953 104.985 264.058 105 264C105.015 263.942 105.01 264.059 105 264C103.865 257.139 103.128 249.861 102 243C101.917 242.547 100.917 243.506 101 244Z" fill="white"/>
<path d="M83 236C85.1976 240.334 86.6609 244.311 88 249C83.1826 248.703 77.741 249.074 73 250C72.5138 250.094 72.5037 251.094 73 251C77.8574 250.048 84.0676 249.635 89 250C89.0593 249.998 88.9468 250.027 89 250C89.0531 249.973 88.9625 250.047 89 250C89.0374 249.953 88.985 250.059 89 250C89.015 249.941 89.0101 250.06 89 250C87.6199 245.057 85.311 239.562 83 235C82.7771 234.553 82.7771 235.553 83 236Z" fill="white"/>
<path d="M66 225C67.0586 228.441 68.5084 232.735 70 236L57 237C56.4969 237.053 56.4661 238.053 57 238L71 237C71.0689 237 70.9397 237.035 71 237C71.0603 236.965 70.9631 236.06 71 236C71.0368 235.94 70.9957 236.071 71 236C71.0043 235.929 71.0293 236.064 71 236C69.4294 232.628 68.0955 228.566 67 225C66.8152 224.512 65.846 224.512 66 225Z" fill="white"/>
<path d="M118 200C128.643 209.445 137.35 223.943 140 238C142.892 253.344 137.972 268.65 130 282C128.888 283.915 128.442 285.321 127 287C125.066 285.837 122.683 284.505 121 283C113.143 276.146 107.341 266.894 104 257C100.659 247.106 99.9136 237.235 102 227C104.103 216.732 109.713 206.427 118 200Z" fill="white"/>
<path d="M117 205C116.334 212.183 115.854 218.787 116 226C115.615 225.716 115.302 225.295 115 225L112 223C111.354 222.442 110.344 223.432 111 224L114 227C114.465 227.479 115.404 227.706 116 228C116.073 230.695 115.813 233.305 116 236C116.219 239.158 116.636 241.905 117 245L109 239C108.334 238.474 107.323 239.463 108 240L118 247C118.76 252.842 119.73 258.252 121 264L111 256C110.344 255.453 109.334 256.453 110 257L121 266C121.1 266.074 120.88 265.969 121 266V267C122.333 272.713 124.133 278.428 126 284C126.271 284.821 127.281 283.832 127 283C125.063 277.2 123.375 271.958 122 266L132 254C132.542 253.326 131.542 252.326 131 253L122 264C121.209 260.453 120.573 256.579 120 253C119.677 251.053 119.26 248.958 119 247L130 237C130.604 236.379 129.604 235.379 129 236L119 246C118.282 240.084 117.156 233.958 117 228C117.159 227.945 117.854 228.085 118 228C118.508 227.655 118.588 226.459 119 226L121 225L125 221C125.123 220.874 125 221.177 125 221C125 220.823 125.123 220.126 125 220C124.877 219.874 124.175 220.002 124 220C123.825 219.998 124.126 219.877 124 220L121 223C120.042 223.958 119.01 225.095 118 226H117C117 224.6 116.938 223.4 117 222C117 216.168 117.431 210.804 118 205C118.021 204.084 117.083 204.147 117 205Z" fill="#FFC42B"/>
<path d="M109 16C109.199 28.2625 93 42 93 42C75.2124 26.1444 77 16 77 16C76.9455 13.876 77.2234 11.9783 78 10C78.7766 8.02174 80.5144 6.52153 82 5C83.4857 3.47847 85.0389 1.82566 87 1C88.9612 0.174344 90.8716 0 93 0C95.1285 0 97.0389 0.174344 99 1C100.961 1.82566 102.514 3.47847 104 5C105.486 6.52153 107.223 8.02174 108 10C108.777 11.9783 109.055 13.876 109 16ZM101 16C101 14.4134 100.883 13.3192 100 12C99.117 10.6808 97.4684 9.60715 96 9C94.5317 8.39285 92.5588 7.69048 91 8C89.4412 8.30952 88.1238 9.87813 87 11C85.8762 12.1219 85.3101 13.4439 85 15C84.69 16.5561 85.3918 17.5342 86 19C86.6082 20.4658 87.6785 22.1186 89 23C90.3215 23.8814 91.4107 24 93 24C95.1312 24 97.493 23.5044 99 22C100.507 20.4956 101 18.1275 101 16Z" fill="#FFC42B"/>
<path d="M95 92C95 100.121 92.5117 108.248 88 115C83.4884 121.752 77.5027 126.892 70 130C62.4974 133.108 53.9648 133.584 46 132C38.0353 130.416 30.7423 126.742 25 121C19.2578 115.258 15.5843 107.965 14 100C12.4157 92.0352 12.8923 83.5026 16 76C19.1077 68.4974 24.2478 62.5117 31 58C37.7522 53.4883 45.8792 51 54 51V92H95Z" fill="#282B30"/>
<path d="M89 92C89 98.9551 86.864 105.217 83 111C79.1359 116.783 73.4256 121.338 67 124C60.5743 126.662 53.8214 127.357 47 126C40.1785 124.643 33.918 121.918 29 117C24.082 112.082 21.3568 105.821 20 99C18.6431 92.1785 19.3384 85.4257 22 79C24.6616 72.5743 29.217 66.864 35 63C40.7829 59.136 47.0449 57 54 57V92H89Z" fill="#FFC42B"/>
<path d="M41 79C44.3137 79 47 76.3137 47 73C47 69.6863 44.3137 67 41 67C37.6863 67 35 69.6863 35 73C35 76.3137 37.6863 79 41 79Z" fill="white"/>
<path d="M34 110C37.0376 110 39 107.038 39 104C39 100.962 37.0376 99 34 99C30.9624 99 28 100.962 28 104C28 107.038 30.9624 110 34 110Z" fill="white"/>
<path d="M44 98C45.3807 98 46 97.3807 46 96C46 94.6193 45.3807 93 44 93C42.6193 93 41 94.6193 41 96C41 97.3807 42.6193 98 44 98Z" fill="white"/>
<path d="M46 115C47.933 115 50 113.933 50 112C50 110.067 47.933 108 46 108C44.067 108 43 110.067 43 112C43 113.933 44.067 115 46 115Z" fill="white"/>
<path d="M63 105C64.933 105 66 102.933 66 101C66 99.067 64.933 98 63 98C61.067 98 59 99.067 59 101C59 102.933 61.067 105 63 105Z" fill="white"/>
<path d="M74 108C75.6569 108 77 106.657 77 105C77 103.343 75.6569 102 74 102C72.3431 102 71 103.343 71 105C71 106.657 72.3431 108 74 108Z" fill="white"/>
<path d="M91 89H57V55C61.4645 54.9986 65.875 56.292 70 58C74.125 59.708 77.8427 61.8427 81 65C84.1573 68.1573 86.2912 71.8743 88 76C89.7088 80.1257 91 84.5342 91 89Z" fill="#282B30"/>
<path d="M86 89H57V60C60.8087 59.9986 64.4809 60.5431 68 62C71.5191 63.4569 75.3068 65.3068 78 68C80.6932 70.6932 82.5431 74.4809 84 78C85.4569 81.5191 86.0014 85.1913 86 89Z" fill="#FFC42B"/>
<path d="M69 76C71.4853 76 73 73.4853 73 71C73 68.5147 71.4853 67 69 67C66.5147 67 64 68.5147 64 71C64 73.4853 66.5147 76 69 76Z" fill="white"/>
<path d="M63 86C64.933 86 67 83.933 67 82C67 80.067 64.933 79 63 79C61.067 79 60 80.067 60 82C60 83.933 61.067 86 63 86Z" fill="white"/>
<path d="M77 88C78.3807 88 79 87.3807 79 86C79 84.6193 78.3807 83 77 83C75.6193 83 74 84.6193 74 86C74 87.3807 75.6193 88 77 88Z" fill="white"/>
<path d="M35 85L29 79C28.7504 78.7957 28.3235 78.9722 28 79C27.6765 79.0278 27.2096 78.7562 27 79C26.8 79.2485 26.9719 79.6844 27 80C27.0281 80.3156 26.7592 80.7894 27 81L33 87C33.1281 87.1001 32.8426 86.9559 33 87C33.1573 87.044 33.8375 87.0187 34 87C34.1625 86.9813 33.8573 87.0786 34 87C34.1427 86.9214 34.8989 87.1265 35 87C35.1794 86.7521 35.0318 86.3027 35 86C34.9682 85.6973 35.2271 85.2067 35 85Z" fill="#282B30"/>
<path d="M31 90C30.8188 89.7785 30.2952 90.0466 30 90C29.7048 89.9534 29.2498 89.8465 29 90L24 93C23.7562 93.1624 24.0506 93.7252 24 94C23.9495 94.2748 23.8281 94.7715 24 95C24.1782 95.2253 24.7034 94.9532 25 95C25.2966 95.0468 25.7518 95.158 26 95L31 92C31.244 91.8358 30.9478 91.2757 31 91C31.0523 90.7243 31.169 90.2318 31 90Z" fill="#282B30"/>
<path d="M41 82.0001C40.6724 81.9538 40.2732 81.8348 40 82.0001C39.7268 82.1653 39.0673 82.715 39 83.0001C38.5667 84.8814 38.4333 87.109 38 89.0001C37.9573 89.2828 37.8087 89.7694 38 90.0001C38.1913 90.2307 38.6802 89.9487 39 90.0001C39.3197 90.0514 39.728 90.1563 40 90.0001C40.272 89.8438 40.9257 89.2777 41 89.0001C41.4333 87.1187 41.5667 84.8814 42 83.0001C42.0552 82.7109 42.191 82.2406 42 82.0001C41.8089 81.7595 41.3283 82.0547 41 82.0001Z" fill="#282B30"/>
<path d="M51 86C50.8773 85.6993 50.2976 85.1353 50 85C49.7024 84.8647 49.3101 84.896 49 85L44 86C43.8332 86.0458 43.1341 86.8917 43 87C42.8658 87.1084 43.0788 86.8474 43 87C42.9212 87.1527 43.0101 87.8289 43 88C42.9898 88.1712 42.9398 87.8393 43 88C43.0602 88.1608 42.8796 88.8768 43 89C43.1203 89.1232 43.8397 88.9352 44 89C44.1602 89.0649 43.827 89.0045 44 89C44.173 88.9955 44.8434 89.0731 45 89L50 87C50.2989 86.8749 50.8731 87.296 51 87C51.1268 86.7041 51.1167 86.3 51 86Z" fill="#282B30"/>
<path d="M51 68C50.9697 67.7032 50.2633 67.1912 50 67C49.7367 66.8087 49.3421 66.9737 49 67C48.6579 67.0262 48.2205 66.7716 48 67C47.7795 67.2284 47.9697 67.7032 48 68V73C48.0402 73.2908 48.738 73.8152 49 74C49.262 74.1847 49.6636 74.0252 50 74C50.3341 73.9628 50.7875 74.2267 51 74C51.2125 73.7733 51.0262 73.2913 51 73V68Z" fill="#282B30"/>
<path d="M47 61L43 62C42.7129 62.0379 42.1921 61.7861 42 62C41.9069 62.1086 42.0431 62.8643 42 63C41.9569 63.1357 41.9863 62.8584 42 63C42.0363 63.2787 41.7792 63.8228 42 64C42.2208 64.1772 42.7162 64.0218 43 64L47 63C47.2862 62.9663 47.8075 63.2118 48 63C48.1393 62.8337 47.9784 62.2148 48 62C48.0216 61.7853 48.1035 62.1901 48 62C47.8965 61.8099 47.1934 61.1007 47 61C47.2174 60.977 46.8066 60.8993 47 61Z" fill="#282B30"/>
<path d="M32 68C31.7147 67.8771 31.2953 67.9008 31 68C30.7046 68.0993 31.1393 68.7345 31 69C30.4897 70.2114 29.4998 70.7887 29 72C28.9316 72.1332 29.0092 72.8522 29 73C28.9907 73.1479 28.9487 72.8601 29 73C29.0512 73.14 28.896 73.8893 29 74C29.1039 74.1108 29.8591 73.9354 30 74C30.1408 74.0647 29.8437 73.9913 30 74C30.1563 74.0088 30.852 74.0485 31 74C31.1479 73.9516 30.8829 74.0984 31 74C31.117 73.9017 30.9316 73.1332 31 73C31.5102 71.7985 32.5001 71.2114 33 70C33.0689 69.8656 32.9909 69.1492 33 69C33.009 68.8509 33.0522 69.141 33 69C32.9477 68.8591 33.1055 68.1112 33 68C32.8944 67.8889 32.1426 68.0643 32 68Z" fill="#282B30"/>
<path d="M26 102C25.9633 101.688 26.2105 101.199 26 101C25.7895 100.802 25.2707 100.978 25 101C24.7293 101.038 24.172 100.755 24 101C23.828 101.245 23.9766 101.685 24 102L25 108C25.0368 108.312 24.7895 108.802 25 109C25.2105 109.199 25.7294 109.022 26 109C26.2698 108.96 26.8285 109.245 27 109C27.1716 108.755 27.0212 108.315 27 108L26 102Z" fill="#282B30"/>
<path d="M50 99L44 100C43.6867 100.046 43.2167 100.749 43 101C42.8031 101.269 42.9788 101.656 43 102C43.0735 102.632 43.3487 103.207 44 103L50 102C50.3108 101.956 50.7886 101.253 51 101C51.2017 100.734 51.0266 100.345 51 100C50.9265 99.4372 50.6512 98.8392 50 99Z" fill="#282B30"/>
<path d="M56 96C55.9884 95.8551 56.0609 96.1289 56 96C55.9391 95.871 56.1009 95.0934 56 95C55.899 94.9066 55.1256 95.0436 55 95C54.8744 94.9564 55.1311 94.9872 55 95C54.8688 95.0128 55.1167 94.9327 55 95C54.8833 95.0673 54.0845 94.8885 54 95C53.9155 95.1115 54.0394 95.8612 54 96C53.9605 96.1387 53.9884 95.8551 54 96C54.2768 97.8875 54.6878 100.119 55 102C55.0234 102.293 54.7961 102.811 55 103C55.2038 103.189 55.7352 103.026 56 103C56.2648 102.974 56.8293 103.225 57 103C57.1707 102.775 57.0234 102.293 57 102C56.6701 100.119 56.2592 97.8875 56 96Z" fill="#282B30"/>
<path d="M60 109L53 107C52.853 106.975 53.1463 106.972 53 107C52.8537 107.028 52.1231 106.923 52 107C51.8769 107.077 52.0811 106.886 52 107C51.9189 107.114 52.0266 107.867 52 108C51.9546 108.269 51.8304 108.776 52 109C52.1695 109.224 52.7069 108.941 53 109L60 111C60.2989 111.045 59.7507 111.156 60 111C60.2492 110.844 60.9415 110.269 61 110C61.0422 109.732 61.1713 109.222 61 109C60.8287 108.778 60.2929 109.057 60 109Z" fill="#282B30"/>
<path d="M73 95.9999C72.9207 95.7935 72.1798 95.129 72 94.9999C71.8202 94.8708 72.2213 95.0094 72 94.9999C71.7787 94.9904 71.1902 94.8867 71 94.9999C70.8098 95.1131 71.0968 95.8011 71 95.9999L69 99.9999C68.8859 100.28 68.8859 100.719 69 101C69.049 101.138 68.9007 101.892 69 102C69.0993 102.108 69.8663 101.94 70 102C70.2711 102.126 70.7183 102.1 71 102C71.2817 101.899 70.8706 101.269 71 101L73 96.9999C73.1147 96.7161 73.1147 96.2838 73 95.9999Z" fill="#282B30"/>
<path d="M83 97C82.8251 96.7409 82.276 96.0754 82 96L78 95C77.7062 94.9396 77.2453 94.8028 77 95C76.7705 95.1963 77.057 95.6758 77 96C76.9734 96.1671 76.9684 96.8341 77 97C77.0316 97.166 76.9152 96.8615 77 97C77.1804 97.2543 77.7269 97.9105 78 98L82 99C82.1445 99.0306 81.8569 99.0387 82 99C82.1431 98.9614 82.8819 99.1016 83 99C83.1178 98.9037 82.923 98.1415 83 98C83.077 97.8585 82.9757 98.165 83 98C83.0243 97.8351 83.0321 97.1631 83 97C83.0836 97.1363 82.9678 96.8369 83 97Z" fill="#282B30"/>
<path d="M81 107C80.7785 106.799 80.2828 106.972 80 107C79.7172 107.028 79.1876 106.758 79 107L76 112C75.8233 112.251 75.981 112.679 76 113C76.0164 113.241 75.8677 113.811 76 114C76.1323 114.189 76.7972 113.927 77 114C77.2029 114.072 76.7962 114.069 77 114C77.2039 113.931 77.8651 114.187 78 114L81 109C81.1816 108.753 81.0248 108.321 81 108C80.9753 107.679 81.2167 107.208 81 107Z" fill="#282B30"/>
<path d="M71 115L70 111C69.9062 110.721 69.2427 110.124 69 110C68.7573 109.875 69.2507 109.897 69 110C68.8769 110.049 68.0961 109.901 68 110C67.9039 110.099 68.0536 110.867 68 111C67.9114 111.282 67.9114 111.717 68 112L69 116C69.0962 116.272 69.765 116.87 70 117C70.2503 117.114 69.7496 117.114 70 117C70.2461 116.893 70.8804 116.263 71 116C71.0777 115.725 71.0834 115.273 71 115Z" fill="#282B30"/>
<path d="M63 114L57 115C56.7013 115.027 56.1925 114.763 56 115C55.8075 115.237 55.9735 115.692 56 116C56.0264 116.308 55.7701 116.801 56 117C56.2298 117.198 56.7013 117.027 57 117L63 116C63.152 115.991 62.8633 116.069 63 116C63.1367 115.931 63.9003 116.119 64 116C64.0997 115.881 63.9531 116.149 64 116C64.0469 115.851 64.0133 115.156 64 115C63.9866 114.844 64.0715 115.139 64 115C63.9285 114.861 64.1183 114.099 64 114C63.8817 113.901 63.1463 114.043 63 114C63.1512 113.981 62.8536 113.957 63 114Z" fill="#282B30"/>
<path d="M65 119C64.8174 118.755 64.3053 119.051 64 119C63.6947 118.949 63.2553 118.828 63 119L59 123C58.7461 123.176 58.0524 123.7 58 124C57.9476 124.3 57.8202 123.752 58 124C58.1797 124.248 58.6933 124.949 59 125C59.3066 125.051 59.7461 125.176 60 125L64 121C64.2531 120.821 64.9477 120.301 65 120C65.0522 119.699 65.1785 119.251 65 119Z" fill="#282B30"/>
<path d="M53 121L49 117C48.7702 116.815 48.2978 116.975 48 117C47.7021 117.025 47.193 116.779 47 117C46.9033 117.109 47.046 117.863 47 118C46.9539 118.137 46.9883 117.857 47 118C47.0474 118.283 46.7832 118.804 47 119C48.1827 120.209 49.8073 121.791 51 123C51.2298 123.185 51.7021 123.025 52 123C52.2978 122.975 52.8069 123.221 53 123C53.1917 122.778 53.0262 122.288 53 122C52.952 121.73 53.2096 121.184 53 121Z" fill="#282B30"/>
<path d="M42 116L36 117C35.7015 117.032 35.1893 116.791 35 117C34.8106 117.209 34.9736 117.732 35 118C35.0264 118.269 34.7727 118.824 35 119C35.2273 119.177 35.6998 119.015 36 119L42 118C42.2985 117.968 42.8106 118.209 43 118C43.1893 117.791 43.0264 117.269 43 117C42.9736 116.732 43.2273 116.177 43 116C42.7727 115.824 42.3002 115.985 42 116Z" fill="#282B30"/>
<path d="M36 113L31 111C30.723 110.882 30.2867 110.904 30 111C29.7133 111.096 29.134 111.745 29 112C28.9347 112.128 29.0077 111.859 29 112C28.9923 112.141 28.949 111.867 29 112C29.051 112.133 28.898 112.895 29 113C29.102 113.105 29.8628 112.94 30 113L35 115C35.2774 115.116 35.714 115.096 36 115C36.286 114.905 36.864 114.254 37 114C37.1291 113.742 37.1028 114.269 37 114C36.8972 113.732 36.2753 113.123 36 113Z" fill="#282B30"/>
<path d="M72 78.0001C71.6865 77.9467 71.2618 77.8187 71 78.0001C70.7382 78.1815 71.0619 78.6866 71 79.0001C70.5114 80.7935 69.4815 83.1924 69 85.0001C68.9441 85.3156 68.819 84.7363 69 85.0001C69.1809 85.2639 69.6868 85.9404 70 86.0001C70.3072 86.0521 70.7398 86.1724 71 86.0001C71.2601 85.8278 70.9264 85.3044 71 85.0001C71.4886 83.196 72.522 81.8042 73 80.0001C73.0354 79.8407 73.0299 79.1606 73 79.0001C72.9701 78.8395 73.0904 79.1358 73 79.0001C72.9096 78.8643 72.1363 78.0891 72 78.0001C72.1601 78.028 71.8637 77.9111 72 78.0001Z" fill="#282B30"/>
<path d="M81 79.0001C80.8101 78.7363 80.3198 78.0575 80 78.0001H77C76.6697 77.9525 76.2804 77.8191 76 78.0001C75.7338 78.1924 75.055 78.6762 75 79.0001C74.945 79.3239 74.8122 79.7306 75 80.0001C75.1898 80.2639 75.6801 80.9426 76 81.0001H79C79.3303 81.0477 79.7196 81.1811 80 81.0001C80.2662 80.8078 80.945 80.3239 81 80.0001C81.055 79.6762 81.1878 79.2695 81 79.0001Z" fill="#282B30"/>
<path d="M76 70C75.7009 69.9508 75.2498 69.8328 75 70C74.7502 70.1672 75.0591 70.711 75 71C74.8277 72.2101 74.1723 73.7898 74 75C73.9611 75.2854 73.8255 75.7672 74 76C74.1745 76.2327 74.7083 75.9481 75 76C75.2917 76.0518 75.7519 76.1576 76 76C76.2481 75.8423 75.9323 75.2802 76 75C76.1723 73.7898 76.8176 72.2101 77 71C77.0504 70.7081 77.1743 70.2427 77 70C76.8257 69.7572 76.2995 70.0551 76 70Z" fill="#282B30"/>
<path d="M64 65C63.4312 64.1055 62.5688 62.9039 62 62C61.8276 61.7859 61.2716 62.038 61 62C60.7284 61.9619 60.2242 61.8414 60 62C59.7758 62.1585 60.0558 62.7304 60 63C59.9442 63.2695 59.8572 63.7649 60 64C60.5688 64.9515 61.4407 66.096 62 67C62.1659 67.2347 62.7173 66.9518 63 67C63.2827 67.0481 63.7662 67.1665 64 67C64.2338 66.8334 63.952 66.2837 64 66C64.048 65.7162 64.1659 65.2347 64 65Z" fill="#282B30"/>
<path d="M63 70.0001C62.7645 69.7974 62.3031 69.9722 62 70.0001C61.6969 70.028 61.1985 69.7575 61 70.0001L58 74.0001C57.8341 74.2491 57.9623 74.6985 58 75.0001C58.0377 75.3016 57.7785 75.8046 58 76.0001C58.2216 76.1956 58.7111 76.0134 59 76.0001C59.2889 75.9867 59.7956 76.2152 60 76.0001L63 72.0001C63.1927 71.7524 63.0265 71.3188 63 71.0001C62.9735 70.6813 63.2307 70.2088 63 70.0001Z" fill="#282B30"/>
</svg>
