<svg width="300" height="300" viewBox="0 0 300 300" fill="none" xmlns="http://www.w3.org/2000/svg">
<path d="M52 122H249V286H52V122Z" fill="#FE724E"/>
<path d="M52 131H71V253H52V131Z" fill="#FFC42B"/>
<path d="M230 131H249V253H230V131Z" fill="#FFC42B"/>
<path d="M145 286H117V234H131V253H145V286Z" fill="white"/>
<path d="M248 150C244.593 150 241.71 149.087 239 147C236.29 144.913 233.903 141.319 233 138L220 89H248L263 129C263.906 131.38 264.295 133.467 264 136C263.705 138.533 262.429 140.898 261 143C259.571 145.102 258.234 146.812 256 148C253.766 149.188 250.524 150 248 150Z" fill="#FFC42B"/>
<path d="M216 150H215C211.277 150 207.839 148.41 205 146C202.161 143.59 200.605 140.675 200 137L192 89H220L231 130C231.64 132.332 232.46 134.626 232 137C231.54 139.374 230.466 142.077 229 144C227.534 145.923 225.167 146.927 223 148C220.833 149.073 218.418 150 216 150Z" fill="#D8D8D8"/>
<path d="M183 150H182C178.028 150 173.885 148.762 171 146C168.115 143.238 167.218 139.012 167 135L164 89H192L199 132C199.366 134.249 198.602 135.803 198 138C197.398 140.197 196.458 142.262 195 144C193.542 145.738 192.045 148.042 190 149C187.955 149.958 185.254 150 183 150Z" fill="#FFC42B"/>
<path d="M150 150H149C146.869 150 143.958 149.844 142 149C140.043 148.156 138.465 146.551 137 145C135.535 143.449 134.734 142.005 134 140C133.266 137.995 132.883 135.133 133 133L135 89H164L166 133C166.117 135.133 165.734 137.995 165 140C164.266 142.005 163.465 143.449 162 145C160.535 146.551 158.958 148.156 157 149C155.043 149.844 152.131 150 150 150Z" fill="#D8D8D8"/>
<path d="M136 89L133 135C132.782 139.012 131.885 143.238 129 146C126.115 148.762 121.972 150 118 150H117C114.746 150 112.045 149.958 110 149C107.955 148.042 106.458 145.738 105 144C103.542 142.262 102.601 140.197 102 138C101.398 135.803 100.633 134.249 101 132L108 89H136Z" fill="#FFC42B"/>
<path d="M108 89L100 137C99.3946 140.675 97.8389 143.59 95.0001 146C92.1613 148.41 88.7234 150 85.0001 150H84.0001C81.5822 150 79.1669 149.073 77.0001 148C74.8333 146.927 72.4659 145.923 71.0001 144C69.5342 142.077 68.4606 139.374 68.0001 137C67.5396 134.626 68.3596 132.332 69.0001 130L80.0001 89H108Z" fill="#D8D8D8"/>
<path d="M79.0002 89L66.0002 138C65.0976 141.319 62.7099 144.913 60.0002 147C57.2905 149.087 54.4075 150 51.0002 150C48.4759 150 45.234 149.188 43.0002 148C40.7664 146.812 39.4293 145.102 38.0002 143C36.5711 140.898 35.2957 138.533 35.0002 136C34.7047 133.467 35.094 131.38 36.0002 129L51.0002 89H79.0002Z" fill="#FFC42B"/>
<path d="M202 286H230V234H216V253H202V286Z" fill="white"/>
<path d="M159 230H187V244H159V230Z" fill="#FFC42B"/>
<path d="M52 14H249V89H52V14Z" fill="#FFC42B"/>
<path d="M154 28V42C154 43.273 153.844 45.0998 153 46C152.156 46.9002 151.193 47 150 47C148.807 47 146.844 46.9002 146 46C145.156 45.0998 145 43.273 145 42V28C145 26.727 145.156 24.9002 146 24C146.844 23.0998 148.807 23 150 23C151.193 23 152.156 23.0998 153 24C153.844 24.9002 154 26.727 154 28Z" fill="#FE724E"/>
<path d="M183 61C183 64.7129 181.652 68.3746 179 71C176.348 73.6254 172.751 74.9997 169 75H131C127.25 74.9986 123.652 73.6252 121 71C118.348 68.3748 117.001 64.7126 117 61H183Z" fill="#FE724E"/>
<path d="M173 61H126C126 59.3875 125.688 57.5807 126 56C127.086 50.5794 130.804 45.4981 135 42C139.196 38.5019 144.584 37 150 37C155.416 37 159.804 38.5019 164 42C168.196 45.4981 171.913 50.5794 173 56C173.312 57.5807 172.999 59.3875 173 61Z" fill="#FE724E"/>
<path d="M202 56C209.732 56 216 49.732 216 42C216 34.268 209.732 28 202 28C194.268 28 188 34.268 188 42C188 49.732 194.268 56 202 56Z" fill="#FFC42B"/>
<path d="M202 253H286V286H202V253Z" fill="#D8D8D8"/>
<path d="M14 253H98V286H14V253Z" fill="#D8D8D8"/>
<path d="M285 248H253V154C255.896 153.405 258.623 151.758 261 150C263.378 148.242 264.582 146.594 266 144C267.418 141.406 268.804 137.95 269 135C269.196 132.05 268.062 129.759 267 127L253 88V14C253 13.3849 252.235 12.5683 252 12C251.765 11.4317 251.435 10.4349 251 10C250.565 9.56508 250.568 9.2353 250 9C249.432 8.7647 248.615 8.99984 248 9H51.0001C50.3851 8.99984 49.5684 8.7647 49.0001 9C48.4318 9.2353 48.435 9.56508 48.0001 10C47.5652 10.4349 47.2354 11.4317 47.0001 12C46.7648 12.5683 46 13.3849 46.0001 14V88L32.0001 127C30.938 129.759 29.8038 132.05 30.0001 135C30.1965 137.95 31.5818 141.406 33.0001 144C34.4185 146.594 35.6226 148.242 38.0001 150C40.3777 151.758 43.1039 153.405 46.0001 154V248H14.0001C13.3851 248 12.5684 247.765 12.0001 248C11.4318 248.235 10.435 248.565 10.0001 249C9.5652 249.435 9.23542 250.432 9.00012 251C8.76482 251.568 8.99996 252.385 9.00012 253V285C8.99996 285.615 8.76482 286.432 9.00012 287C9.23542 287.568 9.5652 288.565 10.0001 289C10.435 289.435 11.4318 289.765 12.0001 290C12.5684 290.235 13.3851 290 14.0001 290H285C285.615 290 286.432 290.235 287 290C287.568 289.765 288.565 289.435 289 289C289.435 288.565 289.765 287.568 290 287C290.235 286.432 290 285.615 290 285V253C290 252.385 290.235 251.568 290 251C289.765 250.432 289.435 249.435 289 249C288.565 248.565 287.568 248.235 287 248C286.432 247.765 285.615 248 285 248ZM234 248V148C236.563 150.657 239.435 152.045 243 153V248H234ZM196 253V281H178V248H187C188.242 248 189.122 246.878 190 246C190.878 245.122 192 244.242 192 243V229C192 227.758 190.878 226.878 190 226C189.122 225.122 188.242 224 187 224H159C157.758 224 156.878 225.122 156 226C155.122 226.878 154 227.758 154 229V243C154 244.242 155.122 245.122 156 246C156.878 246.878 157.758 248 159 248H168V281H150V253C150 252.385 149.235 251.568 149 251C148.765 250.432 148.435 249.435 148 249C147.565 248.565 147.568 248.235 147 248C146.432 247.765 145.615 248 145 248H135V234C135 233.385 135.235 232.568 135 232C134.765 231.432 134.435 230.435 134 230C133.565 229.565 133.568 229.235 133 229C132.432 228.765 131.615 229 131 229H121V154C125.54 153.06 130.05 150.576 133 147C133.287 147.357 133.678 147.661 134 148C135.896 150.019 138.456 151.905 141 153C143.544 154.095 146.23 154.011 149 154H150C152.77 154.011 155.456 154.095 158 153C160.544 151.905 163.104 150.019 165 148C165.322 147.661 165.713 147.357 166 147C166.676 147.815 167.207 148.298 168 149V164C161.792 164.006 156.39 165.61 152 170C147.61 174.39 145.006 180.791 145 187C145 187.615 144.765 188.432 145 189C145.235 189.568 145.565 189.565 146 190C146.435 190.435 147.432 190.765 148 191C148.568 191.235 148.385 192 149 192H196C196.615 192 197.432 191.235 198 191C198.568 190.765 199.565 190.435 200 190C200.435 189.565 200.765 189.568 201 189C201.235 188.432 201 187.615 201 187C200.994 180.791 198.39 174.39 194 170C189.61 165.61 184.209 164.006 178 164V154C179.361 154.285 180.609 154.001 182 154H183C185.956 154.002 189.318 153.242 192 152C194.682 150.758 197.089 149.255 199 147C199.123 146.859 198.889 147.146 199 147C200.907 149.386 203.245 150.68 206 152C208.755 153.32 211.945 154.009 215 154H216C218.943 154.005 221.324 153.224 224 152V229H215C214.385 229 213.568 228.765 213 229C212.432 229.235 212.435 229.565 212 230C211.565 230.435 211.235 231.432 211 232C210.765 232.568 210 233.385 210 234V248H201C200.385 248 199.568 247.765 199 248C198.432 248.235 198.435 248.565 198 249C197.565 249.435 197.235 250.432 197 251C196.765 251.568 196 252.385 196 253ZM164 238V234H182V238H164ZM72.0001 131L83.0001 93H102L95.0001 136C94.5827 138.575 92.9895 140.312 91.0001 142C89.0107 143.688 86.6091 145.008 84.0001 145H83.0001C81.3091 144.999 79.5158 144.75 78.0001 144C76.4844 143.25 75.0267 141.344 74.0001 140C72.9735 138.656 72.3251 137.659 72.0001 136C71.6751 134.341 71.5563 132.632 72.0001 131ZM75.0001 152C77.6767 153.224 80.0568 154.005 83.0001 154H84.0001C87.055 154.009 90.245 153.32 93.0001 152C95.7552 150.68 98.0928 149.386 100 147C100.111 147.146 99.8771 146.859 100 147C103.02 150.564 107.409 153.141 112 154V178H75.0001V152ZM116 145C114.404 145.001 112.449 144.67 111 144C109.551 143.33 108.033 142.217 107 141C105.967 139.783 105.426 138.539 105 137C104.575 135.461 104.74 133.575 105 132L111 93H131L128 134C127.846 136.809 127.043 140.066 125 142C122.957 143.934 119.813 145 117 145H116ZM158 141C156.976 142.09 156.374 143.409 155 144C153.626 144.591 151.496 145.005 150 145H149C147.507 145 145.372 144.589 144 144C142.629 143.411 142.028 142.083 141 141C139.973 139.917 138.517 139.4 138 138C137.483 136.6 137.922 134.491 138 133L140 93H159L161 133C161.086 134.489 161.516 136.6 161 138C160.484 139.4 159.031 139.922 158 141ZM171 134L168 93H188L194 132C194.261 133.575 194.426 135.461 194 137C193.575 138.539 193.033 139.783 192 141C190.967 142.217 189.449 143.33 188 144C186.551 144.67 184.596 145.001 183 145H182C179.187 145 176.043 143.934 174 142C171.957 140.066 171.154 136.809 171 134ZM178 173C180.905 173.003 183.628 173.323 186 175C188.372 176.677 190.028 179.263 191 182H155C155.972 179.263 157.628 176.677 160 175C162.372 173.323 165.095 173.003 168 173H178ZM225 140C223.978 141.351 222.518 143.248 221 144C219.482 144.752 217.694 145.006 216 145H215C212.391 145.008 209.99 143.688 208 142C206.011 140.312 204.417 138.575 204 136L197 93H216L227 131C227 131.006 227 130.994 227 131C227.449 132.629 227.324 134.341 227 136C226.676 137.659 226.029 138.659 225 140ZM220 238H224V248H220V238ZM259 130C259.641 131.666 259.209 133.227 259 135C258.791 136.773 258.011 138.528 257 140C255.989 141.472 255.58 143.168 254 144C252.42 144.832 249.786 145 248 145C245.592 144.995 243.915 144.46 242 143C240.085 141.54 238.644 139.321 238 137L226 93H245L259 130ZM56.0001 18H243V84H56.0001V18ZM42.0001 140C40.9767 138.533 40.2095 136.776 40.0001 135C39.7907 133.224 39.3458 131.664 40.0001 130L54.0001 93H73.0001L61.0001 137C60.3565 139.321 58.9154 141.54 57.0001 143C55.0848 144.46 53.4082 144.995 51.0001 145C49.2126 145.013 46.5821 144.832 45.0001 144C43.4181 143.168 43.0018 141.481 42.0001 140ZM56.0001 153C59.5657 152.045 62.4371 150.657 65.0001 148V248H56.0001V153ZM93.0001 281H18.0001V257H93.0001V281ZM98.0001 248H75.0001V187H112V281H103V253C103 252.385 102.235 251.568 102 251C101.765 250.432 101.435 249.435 101 249C100.565 248.565 100.568 248.235 100 248C99.4318 247.765 98.6152 248 98.0001 248ZM121 238H126V253C126 253.615 125.765 253.432 126 254C126.235 254.568 126.565 255.565 127 256C127.435 256.435 128.432 256.765 129 257C129.568 257.235 130.385 257 131 257H140V281H121V238ZM281 281H206V257H281V281Z" fill="#282B30"/>
<path d="M183 56H178C177.017 50.2726 174.127 45.1085 170 41C165.873 36.8915 160.753 33.9782 155 33V28C155 26.7623 154.879 24.8752 154 24C153.121 23.1248 152.243 23 151 23C149.757 23 147.879 23.1248 147 24C146.121 24.8752 146 26.7623 146 28V33C140.247 33.9782 135.127 36.8915 131 41C126.873 45.1085 123.983 50.2726 123 56H118C116.757 56 114.879 56.1248 114 57C113.121 57.8752 113 58.7623 113 60C113.006 64.949 114.485 70.5005 118 74C121.515 77.4995 127.029 78.9944 132 79H169C173.971 78.9944 179.485 77.4995 183 74C186.515 70.5005 187.994 64.949 188 60C188 58.7623 187.879 57.8752 187 57C186.121 56.1248 184.243 56 183 56ZM151 42C155.156 42.0053 158.714 43.4667 162 46C165.286 48.5333 167.955 51.9956 169 56H132C133.045 51.9956 135.714 48.5333 139 46C142.286 43.4667 146.844 42.0053 151 42ZM169 70H132C130.355 69.9991 128.425 68.8191 127 68C125.575 67.1809 124.823 66.4182 124 65H177C176.177 66.4182 175.425 67.1809 174 68C172.575 68.8191 170.645 69.9991 169 70Z" fill="#282B30"/>
<path d="M116 46C116.651 45.5683 116.631 44.6861 117 44C117.369 43.3139 118 42.7782 118 42V28H109V39C107.493 39.7655 105.648 40.6171 104 41V28H94V41C92.3522 40.617 91.5072 39.7655 90 39V28H80V42C80 42.7782 80.631 43.3139 81 44C81.369 44.6861 81.3493 45.5683 82 46C85.6547 48.4287 89.6597 50.3143 94 51V80H104V51C108.34 50.3143 112.345 48.4287 116 46Z" fill="#282B30"/>
<path d="M202 23C197.375 23.0003 192.47 24.9964 189 28C185.53 31.0036 183.583 34.4928 183 39C182.417 43.5072 183.404 48.2396 186 52C188.595 55.7604 192.522 58.8639 197 60V79H207V60C211.478 58.8639 215.404 55.7604 218 52C220.595 48.2396 221.583 43.5072 221 39C220.417 34.4928 218.47 31.0036 215 28C211.53 24.9964 206.624 23.0003 202 23ZM202 51C200.121 51 198.562 50.0256 197 49C195.438 47.9744 193.719 46.7054 193 45C192.281 43.2946 192.633 41.8105 193 40C193.366 38.1895 193.671 36.3053 195 35C196.328 33.6947 198.157 33.3601 200 33C201.843 32.6399 204.264 32.2936 206 33C207.736 33.7064 208.956 34.4651 210 36C211.044 37.5349 211 40.154 211 42C210.997 44.4745 210.781 46.2503 209 48C207.219 49.7497 204.519 50.9972 202 51Z" fill="#282B30"/>
</svg>
