<svg width="286" height="300" viewBox="0 0 286 300" fill="none" xmlns="http://www.w3.org/2000/svg">
<path d="M272 154H43V288H272V154Z" fill="white"/>
<g style="mix-blend-mode:multiply" opacity="0.3">
<path d="M272 154H43V166H272V154Z" fill="#282B30" fill-opacity="0.5"/>
</g>
<path d="M275 287H41V299H275V287Z" fill="#D8D8D8"/>
<path d="M113 175H61V237H113V175Z" fill="#282B30"/>
<path d="M84 179H65V234H84V179Z" fill="#FFC42B"/>
<path d="M109 179H90V234H109V179Z" fill="#FFC42B"/>
<g style="mix-blend-mode:multiply" opacity="0.4">
<path d="M65 179H74L65 234V179Z" fill="#FFC42B"/>
</g>
<g style="mix-blend-mode:multiply" opacity="0.4">
<path d="M90 179H99L90 234V179Z" fill="#FFC42B"/>
</g>
<path d="M179 175H127V237H179V175Z" fill="#282B30"/>
<path d="M150 179H131V234H150V179Z" fill="#FFC42B"/>
<path d="M175 179H156V234H175V179Z" fill="#FFC42B"/>
<g style="mix-blend-mode:multiply" opacity="0.4">
<path d="M131 179H140L131 234V179Z" fill="#FFC42B"/>
</g>
<g style="mix-blend-mode:multiply" opacity="0.4">
<path d="M156 179H165L156 234V179Z" fill="#FFC42B"/>
</g>
<path d="M251 154H203V300H251V154Z" fill="#D8D8D8"/>
<path d="M209 228C208.995 228.378 209.214 228.688 209 229C208.786 229.312 208.351 229.86 208 230C207.649 230.14 207.37 230.078 207 230C206.63 229.922 206.264 229.271 206 229C205.736 228.729 205.069 228.372 205 228C204.931 227.628 204.851 227.348 205 227C205.149 226.653 205.683 226.206 206 226C206.317 225.794 206.622 225.995 207 226C207.251 226.003 207.769 225.901 208 226C208.231 226.099 207.825 226.82 208 227C208.175 227.18 208.907 226.767 209 227C209.093 227.233 209.003 227.749 209 228Z" fill="white"/>
<path d="M243 161H210V224H243V161Z" fill="#FFC42B"/>
<g style="mix-blend-mode:multiply" opacity="0.4">
<path d="M210 161H226L210 224V161Z" fill="#FFC42B"/>
</g>
<path d="M243 230H210V293H243V230Z" fill="#FFC42B"/>
<g style="mix-blend-mode:multiply" opacity="0.4">
<path d="M210 230H226L210 293V230Z" fill="#FFC42B"/>
</g>
<path d="M14 170H13V193H14V170Z" fill="#FFC42B"/>
<path d="M32 170H31V193H32V170Z" fill="#FFC42B"/>
<path d="M44 168H4V172H44V168Z" fill="#FFC42B"/>
<path d="M9 169C9.00449 169.767 8.42268 170.36 8 171C7.57733 171.64 7.70702 172.703 7 173C6.29298 173.296 4.75249 173.147 4 173C3.24751 172.853 2.54371 172.541 2 172C1.45629 171.459 1.15123 170.752 1 170C0.848774 169.248 0.707653 167.709 1 167C1.29235 166.291 2.36285 166.426 3 166C3.63715 165.574 4.23333 165 5 165C5.50735 164.997 6.53042 164.808 7 165C7.46959 165.192 7.6402 165.642 8 166C8.35981 166.358 8.80516 166.532 9 167C9.19484 167.468 9.00001 168.493 9 169Z" fill="#282B30"/>
<path d="M37 193C37 199.899 30.9975 205 23 205C15.0025 205 8 199.899 8 193C8 186.101 15.0025 180 23 180C30.9975 180 37 186.101 37 193Z" fill="#FFC42B"/>
<path d="M203 172H186L198 154H210L203 172Z" fill="white"/>
<path d="M186 172C186.076 174.111 187.457 176.517 189 178C190.543 179.483 191.834 179.955 194 180C195.042 179.988 196.049 179.415 197 179C197.951 178.585 199.296 178.75 200 178C200.704 177.25 201.659 175.961 202 175C202.341 174.039 202.079 173.014 202 172H186Z" fill="#282B30"/>
<path d="M219 172H203L210 154H222L219 172Z" fill="#282B30"/>
<path d="M203 172C203.081 174.098 204.462 176.519 206 178C207.538 179.481 208.833 179.933 211 180C212.048 179.988 213.044 179.416 214 179C214.956 178.584 216.295 178.75 217 178C217.705 177.25 218.662 175.961 219 175C219.338 174.039 219.086 173.011 219 172H203Z" fill="white"/>
<path d="M235 172H219L222 154H233L235 172Z" fill="white"/>
<path d="M219 172C219.098 174.104 220.453 176.521 222 178C223.547 179.479 224.829 179.934 227 180C228.043 179.985 229.049 179.417 230 179C230.951 178.583 232.3 178.751 233 178C233.7 177.249 234.667 175.959 235 175C235.333 174.041 235.089 173.008 235 172H219Z" fill="#282B30"/>
<path d="M251 172H235L233 154H244L251 172Z" fill="#282B30"/>
<path d="M235 172C235.104 174.106 236.448 176.521 238 178C239.552 179.479 240.824 179.935 243 180C244.044 179.989 246.049 179.417 247 179C247.951 178.583 248.302 178.752 249 178C249.698 177.248 250.673 175.96 251 175C251.327 174.04 251.1 173.007 251 172H235Z" fill="white"/>
<path d="M267 172H251L244 154H255L267 172Z" fill="white"/>
<path d="M251 172C251.12 174.109 252.444 176.523 254 178C255.556 179.477 256.825 179.93 259 180C260.04 179.986 262.053 179.418 263 179C263.947 178.582 264.306 178.752 265 178C265.694 177.248 266.675 175.959 267 175C267.325 174.041 267.099 173.005 267 172H251Z" fill="#282B30"/>
<path d="M269 98H46L29 154H286L269 98Z" fill="#FFC42B"/>
<path d="M221 117H90V138H221V117Z" fill="#282B30"/>
<path d="M138.056 118.519H136.441V123H135.781V118.519H134.169V117.974H138.056V118.519ZM141.301 121.688H139.195L138.723 123H138.039L139.958 117.974H140.538L142.461 123H141.781L141.301 121.688ZM139.396 121.143H141.105L140.248 118.792L139.396 121.143ZM146.614 117.974V121.391C146.612 121.865 146.462 122.253 146.165 122.555C145.871 122.856 145.47 123.025 144.964 123.062L144.788 123.069C144.238 123.069 143.799 122.921 143.473 122.624C143.146 122.327 142.98 121.918 142.976 121.398V117.974H143.631V121.377C143.631 121.741 143.732 122.024 143.932 122.227C144.132 122.427 144.417 122.527 144.788 122.527C145.163 122.527 145.45 122.427 145.648 122.227C145.848 122.026 145.948 121.745 145.948 121.381V117.974H146.614ZM149.504 120.967H148.323V123H147.657V117.974H149.321C149.887 117.974 150.322 118.103 150.626 118.36C150.932 118.618 151.085 118.993 151.085 119.486C151.085 119.799 151 120.071 150.829 120.304C150.661 120.536 150.426 120.71 150.125 120.825L151.306 122.959V123H150.594L149.504 120.967ZM148.323 120.425H149.341C149.67 120.425 149.932 120.34 150.125 120.169C150.321 119.999 150.418 119.771 150.418 119.486C150.418 119.175 150.325 118.937 150.139 118.771C149.955 118.605 149.688 118.521 149.338 118.519H148.323V120.425ZM154.792 121.688H152.686L152.214 123H151.53L153.449 117.974H154.029L155.952 123H155.272L154.792 121.688ZM152.887 121.143H154.596L153.739 118.792L152.887 121.143ZM160.492 123H159.826L157.295 119.127V123H156.629V117.974H157.295L159.832 121.864V117.974H160.492V123ZM165.038 118.519H163.423V123H162.763V118.519H161.151V117.974H165.038V118.519Z" fill="#282B30"/>
<path d="M80 284H78V299H80V284Z" fill="#282B30"/>
<path d="M168 284H166V299H168V284Z" fill="#282B30"/>
<path d="M84 257H82V279H84V257Z" fill="#282B30"/>
<path d="M161 257H159V279H161V257Z" fill="#282B30"/>
<path d="M179 283H66L76 277H169L179 283Z" fill="#FFC42B"/>
<path d="M179 283H66V285H179V283Z" fill="#282B30"/>
<path d="M171 269H75L76 275H170L171 269Z" fill="#FFC42B"/>
<path d="M170 268H76L75 269H171L170 268Z" fill="#282B30"/>
<path d="M171 260H75L76 266H170L171 260Z" fill="#FFC42B"/>
<path d="M170 259H76L75 260H171L170 259Z" fill="#282B30"/>
<path d="M171 251H75L76 257H170L171 251Z" fill="#FFC42B"/>
<path d="M170 250H76L75 251H171L170 250Z" fill="#282B30"/>
<path d="M51 265L49 299C43.882 299.702 39.118 299.702 34 299L32 264C38.2991 264.813 44.665 265.463 51 265Z" fill="#282B30"/>
<path d="M31 260C35.9718 259.504 40.9874 259.052 46 259C48.38 258.885 50.7544 259.379 53 260C45.7838 261.415 38.2281 261.378 31 260Z" fill="#282B30"/>
<path d="M53 260V264C53 264 37.1648 266.423 31 264V260C38.3087 260.777 45.6973 260.82 53 260Z" fill="#D8D8D8"/>
<path d="M38 259C38 259 38 252.077 38 249C38.1478 244.427 38.9442 239.447 40 235C41.1457 231.108 43.4271 232.928 44 234C44.5875 238.496 45.2522 243.472 45 248C44.8167 250.634 45.5729 257.602 45 259C44.7709 259.723 39.6728 259.909 38 259Z" fill="#FFC42B"/>
<path d="M38 249C37.4004 248.721 36.4215 247.483 36 247C35.5785 246.517 36.1682 246.601 36 246C35.6579 244.17 35.222 240.752 34 241C32.778 241.249 30.2913 242.618 31 247C31.055 247.726 31.6338 248.355 32 249C32.3662 249.645 32.3844 250.546 33 251C33.6156 251.454 34.2388 251.813 35 252C35.7612 252.187 37.2215 252.111 38 252" fill="#FFC42B"/>
<path d="M45 247C45.552 246.84 45.6139 246.433 46 246C46.3861 245.567 46.8962 245.576 47 245C47.5522 242.842 49.9195 238.327 51 241C52.0805 243.673 52.7612 247.695 50 250C48.6406 251.307 46.8669 251.983 45 252" fill="#FFC42B"/>
<path d="M39 238C38.2519 237.107 38.1932 236.134 38 235C37.6038 232.962 35.52 231.763 35 235C34.7063 236.168 35.3992 237.948 36 239C36.6008 240.052 36.8219 240.619 38 241" fill="#FFC42B"/>
<path d="M209 6.97024e-06C200.232 0.000786859 191.307 2.90786 185 9.00001C178.693 15.0922 175.306 24.2358 175 33C175 33 170.916 52.328 209 89C226.047 72.4704 234.774 59.3746 239 50C241.83 44.8386 243.098 38.8858 243 33C242.902 27.1143 241 22.0644 238 17C235 11.9356 231.114 6.91314 226 4.00001C220.885 1.08687 214.886 -0.00318106 209 6.97024e-06ZM209 48C206.17 48.0234 203.365 47.5555 201 46C198.635 44.4445 197.099 41.6083 196 39C194.901 36.3917 194.462 33.779 195 31C195.538 28.221 197.007 26.0098 199 24C200.993 21.9902 203.226 20.5609 206 20C208.774 19.4391 211.383 19.9223 214 21C216.617 22.0777 219.425 23.6482 221 26C222.575 28.3519 223 31.1694 223 34C223.016 35.8705 222.705 37.2674 222 39C221.295 40.7326 220.317 42.6718 219 44C217.683 45.3282 215.726 46.2806 214 47C212.274 47.7194 210.87 48.0001 209 48Z" fill="#FFC42B"/>
<path d="M111 129H110V133H107V122H111C112.306 122 113.264 122.449 114 123C114.736 123.551 116 123.994 116 125C116 125.728 115.313 126.521 115 127C114.692 127.479 114.66 127.703 114 128L116 133H113L111 129ZM110 127H111C111.504 127 111.748 127.249 112 127C112.257 126.746 113 126.45 113 126C113 125.55 112.257 125.254 112 125C111.743 124.741 111.499 124 111 124H110V127Z" fill="white"/>
<path d="M124 128H120V131H125V133H117V122H125V124H120V126H124V128Z" fill="white"/>
<path d="M131 130C131 129.631 131.277 129.206 131 129C130.728 128.794 130.691 128.22 130 128C129.309 127.78 128.439 128.206 128 128C126.573 127.334 126 126.164 126 125C126 124.421 125.647 123.441 126 123C126.358 122.555 127.35 122.244 128 122C128.65 121.751 129.188 122 130 122C130.792 122 131.375 121.732 132 122C132.63 122.268 133.652 123.502 134 124C134.348 124.493 134 124.363 134 125H131C131 124.574 131.277 124.235 131 124C130.728 123.765 130.469 124 130 124C129.526 124 129.277 123.799 129 124C128.728 124.196 128 124.694 128 125C128 125.268 128.698 125.78 129 126C129.302 126.216 129.239 125.765 130 126C130.761 126.23 131.511 126.732 132 127C133.19 127.651 134 128.855 134 130C134 130.915 133.726 131.478 133 132C132.274 132.522 131.265 133 130 133C129.108 133 128.726 133.302 128 133C127.279 132.694 126.368 131.527 126 131C125.637 130.468 125 129.69 125 129H128C128 129.56 128.698 130.732 129 131C129.308 131.263 129.314 131 130 131C130.439 131 130.748 131.177 131 131C131.257 130.818 131 130.326 131 130Z" fill="white"/>
<path d="M144 124H141V133H138V124H135V122H144V124Z" fill="white"/>
<path d="M151 131H147L146 133H143L148 122H150L154 133H151V131ZM148 129H150L149 125L148 129Z" fill="white"/>
<path d="M163 122V129C163 129.776 163.348 130.43 163 131C162.652 131.565 161.65 132.703 161 133C160.35 133.297 159.887 133 159 133C157.659 133 156.771 132.661 156 132C155.229 131.339 155.015 130.149 155 129V122H157V129C157.03 130.145 157.911 131 159 131C159.55 131 159.718 131.287 160 131C160.282 130.713 161 129.647 161 129V122H163Z" fill="white"/>
<path d="M169 129H168V133H165V122H169C170.306 122 171.264 122.449 172 123C172.736 123.551 174 123.994 174 125C174 125.728 173.313 126.521 173 127C172.692 127.479 172.66 127.703 172 128L174 133H171L169 129ZM168 127H169C169.504 127 170.748 127.249 171 127C171.257 126.746 171 126.45 171 126C171 125.55 171.257 125.254 171 125C170.743 124.741 169.499 124 169 124H168V127Z" fill="white"/>
<path d="M181 131H178L177 133H174L178 122H181L185 133H182L181 131ZM178 129H181L180 125L178 129Z" fill="white"/>
<path d="M195 133H192L188 126V133H186V122H188L192 129V122H195V133Z" fill="white"/>
<path d="M205 124H202V133H199V124H196V122H205V124Z" fill="white"/>
</svg>
