<svg width="190" height="189" viewBox="0 0 190 189" fill="none" xmlns="http://www.w3.org/2000/svg">
<path d="M70 134L86 112L73 100L70 134Z" fill="#D8D8D8"/>
<path d="M111 137L29 57L186 4L111 137Z" fill="#FE724E"/>
<path d="M185 4L52 80L69 135L73 100L185 4Z" fill="#FE724E"/>
<path d="M14 185C19.2467 185 23 181.247 23 176C23 170.753 19.2467 166 14 166C8.75329 166 4 170.753 4 176C4 181.247 8.75329 185 14 185Z" fill="#FFC42B"/>
<path d="M38 154C39.6569 154 41 152.657 41 151C41 149.343 39.6569 148 38 148C36.3431 148 35 149.343 35 151C35 152.657 36.3431 154 38 154Z" fill="#FFC42B"/>
<path d="M29 163C30.6569 163 32 161.657 32 160C32 158.343 30.6569 157 29 157C27.3431 157 26 158.343 26 160C26 161.657 27.3431 163 29 163Z" fill="#FFC42B"/>
<path d="M47 145C48.6569 145 50 143.657 50 142C50 140.343 48.6569 139 47 139C45.3431 139 44 140.343 44 142C44 143.657 45.3431 145 47 145Z" fill="#FFC42B"/>
<path d="M56 136C57.6569 136 59 134.657 59 133C59 131.343 57.6569 130 56 130C54.3431 130 53 131.343 53 133C53 134.657 54.3431 136 56 136Z" fill="#FFC42B"/>
<path d="M1.00001 176C1.21655 179.137 2.71207 182.853 5.00001 185C7.28794 187.147 9.86865 187.995 13 188C13.2901 188 13.7076 188.02 14 188C16.4421 187.83 19.0636 186.504 21 185C22.9364 183.496 24.222 181.331 25 179C25.7781 176.669 26.6426 174.372 26 172C25.3575 169.628 23.8466 167.614 22 166C20.1534 164.386 17.4282 163.311 15 163C12.5718 162.688 10.1914 162.904 8.00001 164C5.80862 165.095 4.21597 166.866 3.00001 169C1.78404 171.133 0.830694 173.547 1.00001 176ZM9 171C9.53216 170.382 10.2722 170.364 11 170C11.7278 169.636 12.1888 169.054 13 169C13.1462 168.989 13.8546 169 14 169C15.4129 169.002 15.9011 170.108 17 171C18.0989 171.892 19.7017 172.613 20 174C20.2983 175.387 19.6344 176.732 19 178C18.3656 179.268 17.2862 180.412 16 181C14.7138 181.587 13.3685 182.353 12 182C10.6315 181.647 8.84481 180.137 8.00001 179C7.1552 177.862 6.94707 176.418 7.00001 175C7.05294 173.582 8.07277 172.07 9 171Z" fill="#282B30"/>
<path d="M29 163C30.6569 163 32 161.657 32 160C32 158.343 30.6569 157 29 157C27.3431 157 26 158.343 26 160C26 161.657 27.3431 163 29 163Z" fill="#282B30"/>
<path d="M38 154C39.6569 154 41 152.657 41 151C41 149.343 39.6569 148 38 148C36.3431 148 35 149.343 35 151C35 152.657 36.3431 154 38 154Z" fill="#282B30"/>
<path d="M45 140C44.5981 140.42 44.1109 140.418 44 141C43.8891 141.582 43.7825 142.452 44 143C44.2175 143.548 44.5274 143.67 45 144C45.4726 144.33 46.4316 145 47 145C47.5684 145 48.5274 144.33 49 144C49.4726 143.67 49.7825 143.548 50 143C50.2175 142.452 50.1109 141.582 50 141C49.8891 140.418 49.402 140.42 49 140C48.4611 139.437 47.7621 139 47 139C46.2379 139 45.5389 139.437 45 140Z" fill="#282B30"/>
<path d="M54 131C53.5981 131.415 53.1109 131.424 53 132C52.8891 132.575 52.7825 133.458 53 134C53.2175 134.542 53.5274 134.674 54 135C54.4726 135.326 55.4316 136 56 136C56.5684 136 57.5274 135.326 58 135C58.4726 134.674 58.7825 134.542 59 134C59.2175 133.458 59.1109 132.575 59 132C58.8891 131.424 58.4019 131.415 58 131C57.7332 130.724 57.3487 130.149 57 130C56.6513 129.851 56.3774 130 56 130C55.6226 130 55.3487 129.851 55 130C54.6513 130.149 54.2669 130.724 54 131Z" fill="#282B30"/>
<path d="M188 1.99978C187.595 1.51698 187.61 1.17012 187 0.999782C186.39 0.829441 185.6 0.797681 185 0.999782L28 53.9998C27.4952 54.1699 27.3574 54.6076 27 54.9998C26.6425 55.3919 26.1197 55.4847 26 55.9998C25.8802 56.5148 25.8517 57.4921 26 57.9998C26.1482 58.5075 26.6212 58.6278 27 58.9998L50 81.9998L67 135C67.168 135.549 67.5666 136.62 68 137C68.4333 137.38 68.43 137.901 69 138C69.5699 138.098 70.4625 137.212 71 137C71.5374 136.787 71.6546 136.46 72 136C72.014 135.982 71.9863 136.018 72 136L86 117L108 139C108.586 139.575 110.175 140 111 140C111.145 140 110.856 140.02 111 140C111.477 139.933 111.602 139.269 112 139C112.398 138.73 112.764 138.416 113 138L189 5.99978C189.31 5.45205 189.058 4.62547 189 3.99978C188.942 3.3741 188.405 2.4828 188 1.99978ZM157 16.9998L54 76.9998L35 57.9998L157 16.9998ZM158 23.9998L71 97.9998C70.3892 98.5213 70.0776 99.2044 70 99.9998L68 119L57 81.9998L158 23.9998ZM74 123L76 107L82 113L74 123ZM110 132L78 99.9998L174 17.9998L110 132Z" fill="#282B30"/>
</svg>
