<svg width="84" height="76" viewBox="0 0 84 76" fill="none" xmlns="http://www.w3.org/2000/svg">
<path d="M13.2898 70.9067C13.1487 71.4567 13.1462 72.0286 13.2823 72.5796C13.4185 73.1306 13.6898 73.6464 14.0759 74.0883C14.462 74.5302 14.9529 74.8867 15.5118 75.1312C16.0707 75.3757 16.6831 75.5018 17.3031 75.5C18.1161 75.5001 18.9111 75.281 19.5876 74.87L42.0003 61.2589L64.4131 74.87C65.1143 75.2941 65.9411 75.5124 66.7825 75.4956C67.624 75.4788 68.4395 75.2277 69.1196 74.776C69.7996 74.3244 70.3116 73.6938 70.5865 72.9693C70.8614 72.2447 70.8862 71.4607 70.6574 70.723L63.1289 46.7253L81.8 31.4193C82.398 30.9288 82.8251 30.2894 83.0284 29.5802C83.2317 28.8709 83.2023 28.123 82.9439 27.4287C82.6855 26.7345 82.2094 26.1246 81.5745 25.6742C80.9395 25.2239 80.1736 24.953 79.3714 24.895L55.9049 23.1926L45.7502 2.7159C45.4268 2.05639 44.9008 1.49623 44.2356 1.10303C43.5705 0.709828 42.7946 0.500391 42.0017 0.499995C41.2087 0.499598 40.4326 0.708259 39.767 1.10079C39.1014 1.49333 38.5747 2.05296 38.2505 2.71215L28.0958 23.1926L4.62924 24.8912C3.84081 24.9481 3.08706 25.2107 2.45817 25.6476C1.82928 26.0845 1.35189 26.6772 1.0831 27.3548C0.81431 28.0324 0.76551 28.7662 0.942537 29.4684C1.11956 30.1706 1.51492 30.8115 2.08131 31.3143L19.427 46.7141L13.2898 70.9067Z" fill="#282B30"/>
</svg>
