<svg width="200" height="200" viewBox="0 0 200 200" fill="none" xmlns="http://www.w3.org/2000/svg">
<path d="M135 29C135 17.3518 125.518 8 114 8H27C15.4732 8 6 17.3601 6 29V148C6 159.648 15.4815 169 27 169H120C128.381 169 135 162.465 135 154V29Z" fill="#FE724E"/>
<path d="M71 57C79.2843 57 86 50.2843 86 42C86 33.7157 79.2843 27 71 27C62.7157 27 56 33.7157 56 42C56 50.2843 62.7157 57 71 57Z" fill="#D8D8D8"/>
<path d="M95 98H47C43.8917 98 41 95.1083 41 92V89C41 77.625 50.625 68 62 68H80C91.375 68 101 77.625 101 89V92C101 95.1083 98.1083 98 95 98Z" fill="#D8D8D8"/>
<path d="M146 195C118.979 195 97 173.021 97 146C97 118.979 118.979 97 146 97C173.021 97 195 118.979 195 146C195 173.021 173.021 195 146 195Z" fill="#FFC42B"/>
<path d="M77 126H39C35.55 126 33 123.588 33 120C33 116.412 35.55 113 39 113H77C80.45 113 83 116.412 83 120C83 123.588 80.45 126 77 126Z" fill="#282B30"/>
<path d="M69 151H39C35.5224 151 33 148.588 33 145C33 141.412 35.5224 138 39 138H69C72.4776 138 75 141.412 75 145C75 148.588 72.4776 151 69 151Z" fill="#282B30"/>
<path d="M71 58C61.9002 58 54 51.0998 54 42C54 32.9002 61.9002 25 71 25C80.0998 25 87 32.9002 87 42C87 51.0998 80.0998 58 71 58ZM71 37C68.723 37 66 39.723 66 42C66 44.277 68.723 46 71 46C73.277 46 75 44.277 75 42C75 39.723 73.277 37 71 37Z" fill="#282B30"/>
<path d="M98 100C94.5327 100 91 97.4155 91 94V90C91 84.3158 86.7704 79 81 79H60C54.2296 79 50 84.3158 50 90V94C50 97.4155 46.4672 100 43 100C39.5327 100 37 97.4155 37 94V90C37 77.4848 47.2951 67 60 67H81C93.7049 67 104 77.4848 104 90V94C104 97.4155 101.467 100 98 100Z" fill="#282B30"/>
<path d="M69 175H23C10.3286 175 0 164.642 0 152V23C0 10.3583 10.3286 0 23 0H119C131.671 0 142 10.3583 142 23V69C142 72.45 139.458 76 136 76C132.542 76 129 72.45 129 69V23C129 17.2583 124.755 13 119 13H23C17.2448 13 13 17.2583 13 23V152C13 157.742 17.2448 163 23 163H69C72.4581 163 75 165.55 75 169C75 172.45 72.4581 175 69 175Z" fill="#282B30"/>
<path d="M146 200C116.225 200 92 175.775 92 146C92 116.225 116.225 92 146 92C175.775 92 200 116.225 200 146C200 175.775 175.775 200 146 200ZM146 104C123.096 104 104 123.096 104 146C104 168.904 123.096 188 146 188C168.904 188 188 168.904 188 146C188 123.096 168.904 104 146 104Z" fill="#282B30"/>
<path d="M138 167C136.341 167 134.167 166.183 133 165L117 148C114.557 145.541 114.557 142.459 117 140C119.443 137.541 123.557 137.541 126 140L137 152L162 123C164.276 120.382 168.399 120.709 171 123C173.601 125.291 173.276 128.39 171 131L142 165C140.858 166.309 139.734 166.941 138 167C138.067 167 137.933 167.009 138 167Z" fill="#282B30"/>
</svg>
