<svg width="78" height="60" viewBox="0 0 78 60" fill="none" xmlns="http://www.w3.org/2000/svg">
<path fill-rule="evenodd" clip-rule="evenodd" d="M9.74908 30C10.0344 30.4853 10.3784 31.0514 10.7797 31.6801C12.1806 33.8746 14.2531 36.7895 16.9389 39.6879C22.3895 45.5702 29.8614 50.8627 39 50.8627C48.1386 50.8627 55.6106 45.5702 61.0611 39.6879C63.7469 36.7895 65.8195 33.8746 67.2203 31.6801C67.6217 31.0514 67.9656 30.4853 68.2509 30C67.9656 29.5147 67.6217 28.9486 67.2203 28.3199C65.8195 26.1253 63.7469 23.2105 61.0611 20.3121C55.6106 14.4298 48.1386 9.13732 39 9.13732C29.8614 9.13732 22.3895 14.4298 16.9389 20.3121C14.2531 23.2105 12.1806 26.1253 10.7797 28.3199C10.3784 28.9486 10.0344 29.5147 9.74908 30ZM72.976 30C76.6851 28.167 76.6844 28.1656 76.6837 28.1642L76.6778 28.1523L76.6659 28.1285L76.6283 28.054C76.5971 27.9926 76.5537 27.908 76.4981 27.8017C76.3869 27.5892 76.227 27.2896 76.0189 26.9154C75.6031 26.1675 74.9933 25.1182 74.1951 23.8676C72.6037 21.3746 70.2362 18.0395 67.1307 14.6879C60.9985 8.07017 51.4825 0.862671 39 0.862671C26.5175 0.862671 17.0015 8.07017 10.8694 14.6879C7.76378 18.0395 5.3963 21.3746 3.80494 23.8676C3.00668 25.1182 2.39692 26.1675 1.98111 26.9154C1.77305 27.2896 1.61308 27.5892 1.50192 27.8017C1.44632 27.908 1.40289 27.9926 1.3717 28.054L1.33411 28.1285L1.32222 28.1523L1.318 28.1608L1.31633 28.1642C1.31561 28.1656 1.31494 28.167 5.02404 30L1.31494 28.167C0.743979 29.3223 0.743979 30.6777 1.31494 31.833L5.02404 30C1.31494 31.833 1.31561 31.8344 1.31633 31.8358L1.32222 31.8477L1.33411 31.8715L1.3717 31.946C1.40289 32.0073 1.44632 32.0919 1.50192 32.1982C1.61308 32.4108 1.77305 32.7104 1.98111 33.0846C2.39692 33.8325 3.00668 34.8818 3.80494 36.1324C5.3963 38.6253 7.76378 41.9605 10.8694 45.3121C17.0015 51.9298 26.5175 59.1373 39 59.1373C51.4825 59.1373 60.9985 51.9298 67.1307 45.3121C70.2362 41.9605 72.6037 38.6253 74.1951 36.1324C74.9933 34.8818 75.6031 33.8325 76.0189 33.0846C76.227 32.7104 76.3869 32.4108 76.4981 32.1982C76.5537 32.0919 76.5971 32.0073 76.6283 31.946L76.6659 31.8715L76.6778 31.8477L76.6837 31.8358C76.6844 31.8344 76.6851 31.833 72.976 30ZM72.976 30L76.6851 31.833C77.256 30.6777 77.256 29.3223 76.6851 28.167L72.976 30ZM39 24.7622C36.2128 24.7622 33.8712 27.0615 33.8712 29.9999C33.8712 32.9382 36.2128 35.2375 39 35.2375C41.7872 35.2375 44.1289 32.9382 44.1289 29.9999C44.1289 27.0615 41.7872 24.7622 39 24.7622ZM25.5965 29.9999C25.5965 22.5829 31.5521 16.4875 39 16.4875C46.448 16.4875 52.4035 22.5829 52.4035 29.9999C52.4035 37.4168 46.448 43.5122 39 43.5122C31.5521 43.5122 25.5965 37.4168 25.5965 29.9999Z" fill="#282B30"/>
</svg>
